<svg width="20" height="20" viewBox="0 0 20 20" fill="none" xmlns="http://www.w3.org/2000/svg">
<path d="M15.4156 6.5625H14.375V5.625C14.375 5.12772 14.1775 4.65081 13.8258 4.29917C13.4742 3.94754 12.9973 3.75 12.5 3.75H2.5C2.00272 3.75 1.52581 3.94754 1.17417 4.29917C0.822544 4.65081 0.625 5.12772 0.625 5.625V13.125C0.625 13.6223 0.822544 14.0992 1.17417 14.4508C1.52581 14.8025 2.00272 15 2.5 15H3.3375C3.17872 15.3334 3.10694 15.7016 3.12886 16.0703C3.15077 16.439 3.26567 16.7961 3.46284 17.1084C3.66001 17.4206 3.93303 17.6779 4.25646 17.8562C4.57988 18.0345 4.94319 18.128 5.3125 18.128C5.68181 18.128 6.04511 18.0345 6.36854 17.8562C6.69197 17.6779 6.96499 17.4206 7.16216 17.1084C7.35933 16.7961 7.47423 16.439 7.49614 16.0703C7.51806 15.7016 7.44628 15.3334 7.2875 15H11.775C11.6162 15.3334 11.5444 15.7016 11.5664 16.0703C11.5883 16.439 11.7032 16.7961 11.9003 17.1084C12.0975 17.4206 12.3705 17.6779 12.694 17.8562C13.0174 18.0345 13.3807 18.128 13.75 18.128C14.1193 18.128 14.4826 18.0345 14.806 17.8562C15.1295 17.6779 15.4025 17.4206 15.5997 17.1084C15.7968 16.7961 15.9117 16.439 15.9336 16.0703C15.9556 15.7016 15.8838 15.3334 15.725 15H17.5C17.9973 15 18.4742 14.8025 18.8258 14.4508C19.1775 14.0992 19.375 13.6223 19.375 13.125V10.3125C19.375 8.24375 17.6 6.5625 15.4156 6.5625ZM1.875 13.125V5.625C1.875 5.45924 1.94085 5.30027 2.05806 5.18306C2.17527 5.06585 2.33424 5 2.5 5H12.5C12.6658 5 12.8247 5.06585 12.9419 5.18306C13.0592 5.30027 13.125 5.45924 13.125 5.625V13.75H2.5C2.33424 13.75 2.17527 13.6842 2.05806 13.5669C1.94085 13.4497 1.875 13.2908 1.875 13.125ZM6.25 15.9375C6.25 16.1229 6.19502 16.3042 6.092 16.4583C5.98899 16.6125 5.84257 16.7327 5.67127 16.8036C5.49996 16.8746 5.31146 16.8932 5.1296 16.857C4.94775 16.8208 4.7807 16.7315 4.64959 16.6004C4.51848 16.4693 4.42919 16.3023 4.39301 16.1204C4.35684 15.9385 4.37541 15.75 4.44636 15.5787C4.51732 15.4074 4.63748 15.261 4.79165 15.158C4.94582 15.055 5.12708 15 5.3125 15C5.56114 15 5.7996 15.0988 5.97541 15.2746C6.15123 15.4504 6.25 15.6889 6.25 15.9375ZM14.6875 15.9375C14.6875 16.1229 14.6325 16.3042 14.5295 16.4583C14.4265 16.6125 14.2801 16.7327 14.1088 16.8036C13.9375 16.8746 13.749 16.8932 13.5671 16.857C13.3852 16.8208 13.2182 16.7315 13.0871 16.6004C12.956 16.4693 12.8667 16.3023 12.8305 16.1204C12.7943 15.9385 12.8129 15.75 12.8839 15.5787C12.9548 15.4074 13.075 15.261 13.2292 15.158C13.3833 15.055 13.5646 15 13.75 15C13.9986 15 14.2371 15.0988 14.4129 15.2746C14.5887 15.4504 14.6875 15.6889 14.6875 15.9375ZM18.125 13.125C18.125 13.2908 18.0592 13.4497 17.9419 13.5669C17.8247 13.6842 17.6658 13.75 17.5 13.75H14.375V7.8125H15.4156C16.9094 7.8125 18.125 8.93437 18.125 10.3125V13.125Z" fill="#8B8D91"/>
</svg>
