<svg width="16" height="20" viewBox="0 0 16 20" fill="none" xmlns="http://www.w3.org/2000/svg">
<path d="M14.7998 6.3905V14.7998C14.7998 17.3872 13.256 18.2497 11.3499 18.2497H4.44995C2.54385 18.2497 1 17.3872 1 14.7998V6.3905C1 3.58742 2.54385 2.94055 4.44995 2.94055C4.44995 3.47529 4.66555 3.95829 5.01917 4.31191C5.37279 4.66553 5.85581 4.88115 6.39055 4.88115H9.40926C10.4787 4.88115 11.3499 4.01004 11.3499 2.94055C13.256 2.94055 14.7998 3.58742 14.7998 6.3905Z" stroke="#8B8D91" stroke-width="1.79343" stroke-linecap="round" stroke-linejoin="round"/>
<path d="M11.3499 2.9406C11.3499 4.01008 10.4787 4.88119 9.40926 4.88119H6.39055C5.85581 4.88119 5.37279 4.66557 5.01917 4.31195C4.66555 3.95833 4.44995 3.47534 4.44995 2.9406C4.44995 1.87111 5.32106 1 6.39055 1H9.40926C9.944 1 10.427 1.21562 10.7806 1.56924C11.1342 1.92286 11.3499 2.40586 11.3499 2.9406Z" stroke="#8B8D91" stroke-width="1.79343" stroke-linecap="round" stroke-linejoin="round"/>
<path d="M4.44995 10.4874H7.8999" stroke="#8B8D91" stroke-width="1.79343" stroke-linecap="round" stroke-linejoin="round"/>
<path d="M4.44995 13.9373H11.3499" stroke="#8B8D91" stroke-width="1.79343" stroke-linecap="round" stroke-linejoin="round"/>
</svg>
