<svg width="17" height="17" viewBox="0 0 17 17" fill="none" xmlns="http://www.w3.org/2000/svg">
<path d="M6.62512 9.8125C6.62512 10.54 7.18762 11.125 7.87762 11.125H9.28762C9.88762 11.125 10.3751 10.615 10.3751 9.9775C10.3751 9.295 10.0751 9.0475 9.63262 8.89L7.37512 8.1025C6.93262 7.945 6.63263 7.705 6.63263 7.015C6.63263 6.38499 7.12012 5.86749 7.72012 5.86749H9.13012C9.82012 5.86749 10.3826 6.45249 10.3826 7.18" stroke="#8B8D91" stroke-width="1.2057" stroke-linecap="round" stroke-linejoin="round"/>
<path d="M8.50024 5.125V11.875" stroke="#8B8D91" stroke-width="1.2057" stroke-linecap="round" stroke-linejoin="round"/>
<path d="M16 8.5C16 12.64 12.64 16 8.5 16C4.36 16 1 12.64 1 8.5C1 4.36 4.36 1 8.5 1" stroke="#8B8D91" stroke-width="1.2057" stroke-linecap="round" stroke-linejoin="round"/>
<path d="M16.0004 4V1H13.0004" stroke="#8B8D91" stroke-width="1.2057" stroke-linecap="round" stroke-linejoin="round"/>
<path d="M12.2507 4.75L16.0007 1" stroke="#8B8D91" stroke-width="1.2057" stroke-linecap="round" stroke-linejoin="round"/>
</svg>
