<svg width="16" height="16" viewBox="0 0 16 16" fill="none" xmlns="http://www.w3.org/2000/svg">
<g clip-path="url(#clip0_309_2963)">
<path d="M8.00033 9.33366V10.667C6.93946 10.667 5.92204 11.0884 5.1719 11.8386C4.42175 12.5887 4.00033 13.6061 4.00033 14.667H2.66699C2.66699 13.2525 3.2289 11.896 4.22909 10.8958C5.22928 9.89556 6.58584 9.33366 8.00033 9.33366ZM8.00033 8.66699C5.79033 8.66699 4.00033 6.87699 4.00033 4.66699C4.00033 2.45699 5.79033 0.666992 8.00033 0.666992C10.2103 0.666992 12.0003 2.45699 12.0003 4.66699C12.0003 6.87699 10.2103 8.66699 8.00033 8.66699ZM8.00033 7.33366C9.47366 7.33366 10.667 6.14033 10.667 4.66699C10.667 3.19366 9.47366 2.00033 8.00033 2.00033C6.52699 2.00033 5.33366 3.19366 5.33366 4.66699C5.33366 6.14033 6.52699 7.33366 8.00033 7.33366ZM14.0003 11.3337H14.667V14.667H9.33366V11.3337H10.0003V10.667C10.0003 10.1366 10.211 9.62785 10.5861 9.25278C10.9612 8.87771 11.4699 8.66699 12.0003 8.66699C12.5308 8.66699 13.0395 8.87771 13.4145 9.25278C13.7896 9.62785 14.0003 10.1366 14.0003 10.667V11.3337ZM12.667 11.3337V10.667C12.667 10.4902 12.5968 10.3206 12.4717 10.1956C12.3467 10.0706 12.1771 10.0003 12.0003 10.0003C11.8235 10.0003 11.6539 10.0706 11.5289 10.1956C11.4039 10.3206 11.3337 10.4902 11.3337 10.667V11.3337H12.667Z" fill="#8B8D91"/>
</g>
<defs>
<clipPath id="clip0_309_2963">
<rect width="16" height="16" fill="white"/>
</clipPath>
</defs>
</svg>
