<svg width="18" height="18" viewBox="0 0 18 18" fill="none" xmlns="http://www.w3.org/2000/svg">
<g clip-path="url(#clip0_309_2988)">
<path d="M11.625 6.75L11.7537 6.87868C12.7537 7.87867 13.2537 8.3787 13.2537 9C13.2537 9.6213 12.7537 10.1213 11.7537 11.1213L11.625 11.25" stroke="white" stroke-width="1.125" stroke-linecap="round"/>
<path d="M9.97037 5.37793L8.9998 9.00012L8.0293 12.6224" stroke="white" stroke-width="1.125" stroke-linecap="round"/>
<path d="M6.37527 6.75L6.24658 6.87868C5.24658 7.87867 4.74658 8.3787 4.74658 9C4.74658 9.6213 5.24658 10.1213 6.24658 11.1213L6.37527 11.25" stroke="white" stroke-width="1.125" stroke-linecap="round"/>
<path d="M1.5 9C1.5 5.46446 1.5 3.6967 2.59835 2.59835C3.6967 1.5 5.46446 1.5 9 1.5C12.5355 1.5 14.3033 1.5 15.4016 2.59835C16.5 3.6967 16.5 5.46446 16.5 9C16.5 12.5355 16.5 14.3033 15.4016 15.4016C14.3033 16.5 12.5355 16.5 9 16.5C5.46446 16.5 3.6967 16.5 2.59835 15.4016C1.5 14.3033 1.5 12.5355 1.5 9Z" stroke="white" stroke-width="1.125"/>
</g>
<defs>
<clipPath id="clip0_309_2988">
<rect width="18" height="18" fill="white"/>
</clipPath>
</defs>
</svg>
