<svg width="16" height="16" viewBox="0 0 16 16" fill="none" xmlns="http://www.w3.org/2000/svg">
<g clip-path="url(#clip0_309_2942)">
<path fill-rule="evenodd" clip-rule="evenodd" d="M7.22124 0.832339C7.71844 0.611877 8.28124 0.611877 8.77844 0.832339L14.5328 3.38393C15.8499 3.96793 15.4467 6.00033 14.0138 6.00033H1.98588C0.55295 6.00033 0.149765 3.96793 1.46682 3.38393L7.22124 0.832339ZM8.25937 2.08543C8.09364 2.01194 7.90604 2.01194 7.7403 2.08543L2.27368 4.50934C2.20782 4.53854 2.22866 4.63695 2.3007 4.63695H13.699C13.771 4.63695 13.7918 4.53854 13.726 4.50934L8.25937 2.08543Z" fill="#8B8D91"/>
<path d="M1.3335 14.6667C1.3335 14.2985 1.63198 14 2.00016 14H14.0002C14.3684 14 14.6668 14.2985 14.6668 14.6667C14.6668 15.0349 14.3684 15.3333 14.0002 15.3333H2.00016C1.63198 15.3333 1.3335 15.0349 1.3335 14.6667Z" fill="#8B8D91"/>
<path d="M7.3335 12.667C7.3335 13.0352 7.63196 13.3337 8.00016 13.3337C8.36836 13.3337 8.66683 13.0352 8.66683 12.667V7.33366C8.66683 6.96546 8.36836 6.66699 8.00016 6.66699C7.63196 6.66699 7.3335 6.96546 7.3335 7.33366V12.667Z" fill="#8B8D91"/>
<path d="M4.00016 13.3337C3.63198 13.3337 3.3335 13.0352 3.3335 12.667V7.33366C3.3335 6.96546 3.63197 6.66699 4.00016 6.66699C4.36835 6.66699 4.66683 6.96546 4.66683 7.33366V12.667C4.66683 13.0352 4.36836 13.3337 4.00016 13.3337Z" fill="#8B8D91"/>
<path d="M11.3335 12.667C11.3335 13.0352 11.632 13.3337 12.0002 13.3337C12.3684 13.3337 12.6668 13.0352 12.6668 12.667V7.33366C12.6668 6.96546 12.3684 6.66699 12.0002 6.66699C11.632 6.66699 11.3335 6.96546 11.3335 7.33366V12.667Z" fill="#8B8D91"/>
</g>
<defs>
<clipPath id="clip0_309_2942">
<rect width="16" height="16" fill="white"/>
</clipPath>
</defs>
</svg>
