<svg width="20" height="20" viewBox="0 0 20 20" fill="none" xmlns="http://www.w3.org/2000/svg">
<path d="M10.492 10.8337L8.57533 12.7421C8.49722 12.8195 8.43522 12.9117 8.39292 13.0133C8.35061 13.1148 8.32883 13.2237 8.32883 13.3337C8.32883 13.4438 8.35061 13.5527 8.39292 13.6542C8.43522 13.7558 8.49722 13.8479 8.57533 13.9254C8.65279 14.0035 8.74496 14.0655 8.84651 14.1078C8.94806 14.1501 9.05698 14.1719 9.16699 14.1719C9.277 14.1719 9.38592 14.1501 9.48747 14.1078C9.58902 14.0655 9.68119 14.0035 9.75866 13.9254L13.092 10.5921C13.1679 10.5128 13.2273 10.4194 13.267 10.3171C13.3503 10.1142 13.3503 9.88663 13.267 9.68374C13.2273 9.58145 13.1679 9.488 13.092 9.40874L9.75866 6.07541C9.68096 5.99771 9.58872 5.93608 9.4872 5.89403C9.38568 5.85198 9.27688 5.83033 9.16699 5.83033C9.05711 5.83033 8.9483 5.85198 8.84678 5.89403C8.74527 5.93608 8.65302 5.99771 8.57533 6.07541C8.49763 6.15311 8.43599 6.24535 8.39394 6.34687C8.35189 6.44839 8.33025 6.55719 8.33025 6.66708C8.33025 6.77696 8.35189 6.88577 8.39394 6.98728C8.43599 7.0888 8.49763 7.18104 8.57533 7.25874L10.492 9.16708H2.50033C2.27931 9.16708 2.06735 9.25487 1.91107 9.41115C1.75479 9.56743 1.66699 9.7794 1.66699 10.0004C1.66699 10.2214 1.75479 10.4334 1.91107 10.5897C2.06735 10.7459 2.27931 10.8337 2.50033 10.8337H10.492ZM10.0003 1.66708C8.4429 1.66012 6.9147 2.08975 5.58905 2.90723C4.2634 3.72472 3.19337 4.89733 2.50033 6.29208C2.40087 6.49099 2.3845 6.72126 2.45483 6.93224C2.52516 7.14322 2.67641 7.31762 2.87533 7.41707C3.07424 7.51653 3.30451 7.5329 3.51549 7.46257C3.72647 7.39224 3.90087 7.24099 4.00033 7.04208C4.52715 5.97818 5.32852 5.07426 6.32162 4.42373C7.31471 3.77321 8.46351 3.39967 9.64929 3.34174C10.8351 3.2838 12.0148 3.54356 13.0666 4.09417C14.1184 4.64478 15.0041 5.46627 15.6321 6.47374C16.2601 7.48121 16.6077 8.63811 16.639 9.82489C16.6703 11.0117 16.384 12.1853 15.8099 13.2244C15.2358 14.2636 14.3946 15.1305 13.3733 15.7358C12.3519 16.341 11.1875 16.6625 10.0003 16.6671C8.75773 16.6725 7.53879 16.3274 6.4834 15.6714C5.42802 15.0155 4.57895 14.0753 4.03366 12.9587C3.9342 12.7598 3.7598 12.6086 3.54882 12.5382C3.33785 12.4679 3.10757 12.4843 2.90866 12.5837C2.70975 12.6832 2.55849 12.8576 2.48816 13.0686C2.41784 13.2796 2.4342 13.5098 2.53366 13.7087C3.19435 15.0383 4.19826 16.1673 5.44155 16.9788C6.68484 17.7903 8.12237 18.2549 9.60543 18.3246C11.0885 18.3942 12.5632 18.0664 13.8771 17.375C15.191 16.6836 16.2963 15.6537 17.0787 14.3919C17.8611 13.1301 18.2922 11.6822 18.3274 10.1979C18.3626 8.71363 18.0006 7.2469 17.2789 5.94943C16.5571 4.65197 15.5019 3.57088 14.2222 2.818C12.9426 2.06511 11.485 1.66777 10.0003 1.66708Z" fill="#8B8D91"/>
</svg>
