<svg width="16" height="16" viewBox="0 0 16 16" fill="none" xmlns="http://www.w3.org/2000/svg">
<g clip-path="url(#clip0_5615_1013)">
<path d="M12.2981 0.165344H11.7434C11.6374 0.165344 11.5356 0.207487 11.4606 0.282502C11.3856 0.357516 11.3434 0.459258 11.3434 0.565344C11.3434 0.671431 11.3856 0.773172 11.4606 0.848187C11.5356 0.923202 11.6374 0.965344 11.7434 0.965344H12.2981C13.0319 0.966613 13.7353 1.25863 14.2542 1.77744C14.7731 2.29625 15.0652 2.99957 15.0666 3.73334V6.59841C15.0666 6.7045 15.1088 6.80624 15.1838 6.88125C15.2588 6.95627 15.3606 6.99841 15.4666 6.99841C15.5727 6.99841 15.6745 6.95627 15.7495 6.88125C15.8245 6.80624 15.8666 6.7045 15.8666 6.59841V3.73334C15.8652 2.78739 15.4888 1.8806 14.8199 1.21176C14.1509 0.542918 13.2441 0.166614 12.2981 0.165344Z" fill="#8B8D91"/>
<path d="M3.70136 15.8986C3.80745 15.8986 3.90919 15.8565 3.9842 15.7815C4.05922 15.7065 4.10136 15.6047 4.10136 15.4986C4.10136 15.3926 4.05922 15.2908 3.9842 15.2158C3.90919 15.1408 3.80745 15.0986 3.70136 15.0986C2.96749 15.0972 2.2641 14.805 1.74527 14.286C1.22645 13.767 0.934489 13.0634 0.933362 12.3296V8.94291C0.933362 8.83682 0.891219 8.73508 0.816204 8.66006C0.74119 8.58505 0.639448 8.54291 0.533362 8.54291C0.427275 8.54291 0.325534 8.58505 0.250519 8.66006C0.175505 8.73508 0.133362 8.83682 0.133362 8.94291V12.3296C0.13449 13.2756 0.510732 14.1826 1.17959 14.8517C1.84844 15.5207 2.75532 15.8972 3.70136 15.8986Z" fill="#8B8D91"/>
<path d="M13.8666 8.75519H7.77332C7.2431 8.75589 6.7348 8.96683 6.35988 9.34175C5.98496 9.71667 5.77402 10.225 5.77332 10.7552V13.8347C5.77402 14.3649 5.98496 14.8732 6.35988 15.2481C6.7348 15.623 7.2431 15.8339 7.77332 15.8347H13.8666C14.3969 15.8339 14.9052 15.623 15.2801 15.2481C15.655 14.8732 15.8659 14.3649 15.8666 13.8347V10.7552C15.8659 10.225 15.655 9.71667 15.2801 9.34175C14.9052 8.96683 14.3969 8.75589 13.8666 8.75519ZM15.0666 13.8347C15.0662 14.1528 14.9397 14.4578 14.7147 14.6827C14.4898 14.9077 14.1848 15.0342 13.8666 15.0347H7.77332C7.45519 15.0342 7.15021 14.9077 6.92525 14.6827C6.7003 14.4578 6.57374 14.1528 6.57332 13.8347V10.7552C6.57374 10.4371 6.7003 10.1321 6.92525 9.90713C7.15021 9.68217 7.45519 9.55561 7.77332 9.55519H13.8666C14.1848 9.55561 14.4898 9.68217 14.7147 9.90713C14.9397 10.1321 15.0662 10.4371 15.0666 10.7552V13.8347Z" fill="#8B8D91"/>
<path d="M8.33121 11.687C8.22433 11.6868 8.11982 11.7184 8.0309 11.7777C7.94199 11.837 7.87266 11.9214 7.83168 12.0201C7.79071 12.1188 7.77994 12.2275 7.80072 12.3323C7.82151 12.4371 7.87292 12.5334 7.94846 12.6091C8.02399 12.6847 8.12026 12.7362 8.22508 12.7571C8.32989 12.778 8.43855 12.7673 8.5373 12.7264C8.63605 12.6855 8.72046 12.6163 8.77985 12.5274C8.83924 12.4386 8.87094 12.3341 8.87094 12.2272C8.87101 12.1563 8.8571 12.0861 8.83001 12.0205C8.80291 11.955 8.76317 11.8954 8.71304 11.8452C8.66292 11.795 8.60339 11.7552 8.53788 11.7281C8.47236 11.7009 8.40213 11.687 8.33121 11.687Z" fill="#8B8D91"/>
<path d="M10.7424 11.687C10.6356 11.687 10.5311 11.7186 10.4423 11.778C10.3534 11.8374 10.2842 11.9217 10.2433 12.0205C10.2024 12.1192 10.1917 12.2278 10.2125 12.3326C10.2334 12.4374 10.2848 12.5337 10.3604 12.6092C10.4359 12.6848 10.5322 12.7363 10.637 12.7571C10.7418 12.7779 10.8504 12.7673 10.9492 12.7264C11.0479 12.6855 11.1323 12.6162 11.1916 12.5274C11.251 12.4385 11.2827 12.3341 11.2827 12.2272C11.2827 12.1563 11.2687 12.086 11.2416 12.0205C11.2144 11.9549 11.1746 11.8954 11.1244 11.8452C11.0743 11.795 11.0147 11.7552 10.9492 11.7281C10.8836 11.7009 10.8134 11.687 10.7424 11.687Z" fill="#8B8D91"/>
<path d="M13.1541 11.687C13.0473 11.6868 12.9428 11.7184 12.8538 11.7777C12.7649 11.837 12.6956 11.9214 12.6546 12.0201C12.6136 12.1188 12.6029 12.2275 12.6237 12.3323C12.6444 12.4371 12.6959 12.5334 12.7714 12.6091C12.8469 12.6847 12.9432 12.7362 13.048 12.7571C13.1528 12.778 13.2615 12.7673 13.3602 12.7264C13.459 12.6855 13.5434 12.6163 13.6028 12.5274C13.6622 12.4386 13.6939 12.3341 13.6939 12.2272C13.6939 12.1563 13.68 12.0861 13.6529 12.0205C13.6259 11.955 13.5861 11.8954 13.536 11.8452C13.4859 11.795 13.4263 11.7552 13.3608 11.7281C13.2953 11.7009 13.2251 11.687 13.1541 11.687Z" fill="#8B8D91"/>
<path d="M2.40319 4.75842C2.31044 4.75842 2.21979 4.78593 2.14268 4.83747C2.06558 4.889 2.00549 4.96225 1.97002 5.04794C1.93456 5.13364 1.9253 5.22793 1.94343 5.31888C1.96157 5.40983 2.00627 5.49336 2.07188 5.5589C2.1375 5.62444 2.22108 5.66905 2.31206 5.68708C2.40303 5.70511 2.49731 5.69575 2.58296 5.66018C2.66861 5.62462 2.74179 5.56445 2.79324 5.48729C2.84469 5.41012 2.87209 5.31943 2.87199 5.22669C2.87199 5.16515 2.85986 5.10422 2.83629 5.04737C2.81273 4.99052 2.77819 4.93888 2.73465 4.89539C2.69111 4.8519 2.63942 4.81742 2.58255 4.79391C2.52567 4.77041 2.46473 4.75835 2.40319 4.75842Z" fill="#8B8D91"/>
<path d="M4.17066 4.75842C4.07794 4.75853 3.98733 4.78613 3.9103 4.83773C3.83326 4.88933 3.77326 4.96261 3.73787 5.04831C3.70249 5.13402 3.69331 5.22829 3.7115 5.31921C3.7297 5.41012 3.77444 5.4936 3.84008 5.55909C3.90572 5.62458 3.9893 5.66913 4.08026 5.68712C4.17122 5.7051 4.26547 5.69571 4.35109 5.66013C4.43671 5.62455 4.50986 5.56438 4.56128 5.48723C4.61271 5.41008 4.6401 5.31941 4.63999 5.22669C4.63999 5.16511 4.62785 5.10413 4.60425 5.04725C4.58065 4.99036 4.54606 4.9387 4.50246 4.8952C4.45887 4.8517 4.40712 4.81723 4.35018 4.79376C4.29325 4.77029 4.23224 4.75828 4.17066 4.75842Z" fill="#8B8D91"/>
<path d="M2.13336 7.28585H7.61123C8.14144 7.28515 8.64974 7.07421 9.02466 6.69929C9.39958 6.32437 9.61052 5.81607 9.61123 5.28585V2.10132C9.61052 1.5711 9.39958 1.0628 9.02466 0.687884C8.64974 0.312964 8.14144 0.102024 7.61123 0.101318H2.13336C1.60315 0.102024 1.09485 0.312964 0.719927 0.687884C0.345008 1.0628 0.134067 1.5711 0.133362 2.10132V5.28585C0.134067 5.81607 0.345008 6.32437 0.719927 6.69929C1.09485 7.07421 1.60315 7.28515 2.13336 7.28585ZM7.61123 6.48585H2.13336C1.81523 6.48543 1.51025 6.35886 1.2853 6.13391C1.06035 5.90896 0.933785 5.60398 0.933362 5.28585V2.87252H8.81123V5.28585C8.8108 5.60398 8.68424 5.90896 8.45929 6.13391C8.23434 6.35886 7.92936 6.48543 7.61123 6.48585ZM2.13336 0.901318H7.61123C7.92437 0.902076 8.22481 1.02521 8.44841 1.24443C8.67201 1.46365 8.80107 1.76159 8.80803 2.07465H0.936562C0.94352 1.76159 1.07258 1.46365 1.29618 1.24443C1.51978 1.02521 1.82022 0.902076 2.13336 0.901318Z" fill="#8B8D91"/>
</g>
<defs>
<clipPath id="clip0_5615_1013">
<rect width="16" height="16" fill="white"/>
</clipPath>
</defs>
</svg>
