<svg width="16" height="20" viewBox="0 0 16 20" fill="none" xmlns="http://www.w3.org/2000/svg">
<path d="M14.7998 6.76538V15.1746C14.7998 17.7621 13.256 18.6246 11.3499 18.6246H4.44995C2.54385 18.6246 1 17.7621 1 15.1746V6.76538C1 3.9623 2.54385 3.31543 4.44995 3.31543C4.44995 3.85017 4.66555 4.33317 5.01917 4.68679C5.37279 5.04041 5.85581 5.25603 6.39055 5.25603H9.40926C10.4787 5.25603 11.3499 4.38491 11.3499 3.31543C13.256 3.31543 14.7998 3.9623 14.7998 6.76538Z" stroke="#8B8D91" stroke-width="1.79343" stroke-linecap="round" stroke-linejoin="round"/>
<path d="M11.3496 3.3156C11.3496 4.38508 10.4785 5.25619 9.40901 5.25619H6.3903C5.85556 5.25619 5.37254 5.04057 5.01892 4.68695C4.6653 4.33333 4.44971 3.85034 4.44971 3.3156C4.44971 2.24611 5.32082 1.375 6.3903 1.375H9.40901C9.94375 1.375 10.4267 1.59062 10.7804 1.94424C11.134 2.29786 11.3496 2.78086 11.3496 3.3156Z" stroke="#8B8D91" stroke-width="1.79343" stroke-linecap="round" stroke-linejoin="round"/>
<path d="M4.44971 10.8623H7.89966" stroke="#8B8D91" stroke-width="1.79343" stroke-linecap="round" stroke-linejoin="round"/>
<path d="M4.44971 14.3125H11.3496" stroke="#8B8D91" stroke-width="1.79343" stroke-linecap="round" stroke-linejoin="round"/>
</svg>
