<svg width="58" height="58" viewBox="0 0 58 58" fill="none" xmlns="http://www.w3.org/2000/svg">
<path d="M57.1327 36.0158C53.2589 51.5519 37.5217 61.0054 21.9823 57.132C6.44987 53.2586 -3.0063 37.5233 0.868329 21.988C4.74059 6.45031 20.4778 -3.00554 36.0125 0.867848C51.5504 4.74124 61.0066 20.4789 57.1327 36.0158Z" fill="#F79430"/>
<path d="M35.5005 24.8123C34.6025 28.4061 29.0651 26.5797 27.2676 26.1323L28.8524 19.7796C30.6491 20.2269 36.4355 21.0626 35.5005 24.8123ZM34.5167 35.0636C33.5329 39.0142 26.8801 36.8798 24.7218 36.3427L26.4697 29.3386C28.6264 29.8765 35.5422 30.9429 34.5167 35.0636ZM41.7886 24.869C42.3652 21.0106 39.4263 18.9361 35.4083 17.5522L36.712 12.325L33.5289 11.5319L32.26 16.6213C31.4242 16.4126 30.5649 16.2165 29.711 16.0212L30.9894 10.8987L27.8087 10.1055L26.5043 15.3304C25.812 15.1729 25.1322 15.017 24.4729 14.8532L24.476 14.8366L20.0878 13.7411L19.2411 17.1395L21.5522 17.7145C22.8408 18.0358 23.0748 18.8888 23.0354 19.5646L21.5459 25.5424L19.464 33.8846C19.3065 34.276 18.9071 34.8628 18.006 34.6399L15.6926 34.0626L14.1133 37.706L18.2549 38.7385C19.0253 38.9315 19.7807 39.1331 20.5227 39.3237L19.2056 44.6116L22.3847 45.4047L23.6891 40.1735C24.5572 40.409 25.4 40.6264 26.2247 40.832L24.925 46.038L28.1073 46.8311L29.4243 41.5542C34.8507 42.5804 38.9317 42.1661 40.6472 37.2602C42.0312 33.3089 40.5795 31.0296 37.7241 29.5426C39.8036 29.0614 41.3703 27.6941 41.7886 24.869Z" fill="white"/>
</svg>
