<svg width="58" height="58" viewBox="0 0 58 58" fill="none" xmlns="http://www.w3.org/2000/svg">
<path fill-rule="evenodd" clip-rule="evenodd" d="M29 0C45.0165 0 58 12.9843 58 29C58 45.0165 45.0165 58 29 58C12.9843 58 0 45.0165 0 29C0 12.9843 12.9843 0 29 0Z" fill="#5C77BA"/>
<path d="M43.5 29.5918L29.7838 23.426V7.10204L43.5 29.5918Z" fill="#B4C2E3"/>
<path d="M29.7838 7.10204L16.4595 29.5918L29.7838 23.426V7.10204Z" fill="white"/>
<path d="M29.7838 50.898V39.9007L43.5 31.9592L29.7838 50.898Z" fill="#B4C2E3"/>
<path d="M29.7838 50.898V39.8983L16.4595 31.9592L29.7838 50.898Z" fill="white"/>
<path d="M29.7838 37.483V23.2789L43.5 29.4544L29.7838 37.483Z" fill="#7990C9"/>
<path d="M29.7838 37.483L16.4595 29.4544L29.7838 23.2789V37.483Z" fill="#B4C2E3"/>
</svg>
