<svg width="58" height="58" viewBox="0 0 58 58" fill="none" xmlns="http://www.w3.org/2000/svg">
<path d="M29.0004 0C45.0155 0 58 12.9851 58 29C58 45.0157 45.0155 58 29.0004 58C12.9852 58 0 45.0189 0 29C0 12.9811 12.9829 0 29.0004 0Z" fill="#4FB197"/>
<path d="M32.5816 31.681V31.6778C32.38 31.6904 31.3459 31.7526 29.0437 31.7526C27.2023 31.7526 25.9075 31.6999 25.4506 31.6762V31.6825C18.3669 31.3683 13.079 30.1349 13.079 28.659C13.079 27.1822 18.3677 25.9504 25.4506 25.6362V30.4531C25.9153 30.4854 27.2417 30.5634 29.0736 30.5634C31.2734 30.5634 32.38 30.472 32.5824 30.4531V25.6362C39.6527 25.9512 44.9289 27.1862 44.9289 28.6566C44.9289 30.1278 39.6504 31.3628 32.5824 31.6778M32.5793 25.1361V20.8224H42.4448V14.2491H15.5812V20.8224H25.4475V25.1329C17.4289 25.5015 11.3998 27.0893 11.3998 28.9913C11.3998 30.8941 17.432 32.4819 25.4475 32.8529V46.6712H32.5816V32.8513C40.5853 32.4819 46.6026 30.8949 46.6026 28.9945C46.6026 27.094 40.5853 25.507 32.5816 25.1376" fill="white"/>
</svg>
