<svg width="58" height="58" viewBox="0 0 58 58" fill="none" xmlns="http://www.w3.org/2000/svg">
<path d="M29 58C45.0717 58 58 45.0716 58 29C58 12.9284 45.0717 0 29 0C12.9284 0 0 12.9284 0 29C0 45.0716 12.9284 58 29 58Z" fill="#2F76BC"/>
<path d="M36.9744 33.5909C36.9744 29.3631 34.4376 27.9131 29.3623 27.3067C25.737 26.8223 25.0124 25.8567 25.0124 24.1658C25.0124 22.4756 26.2214 21.3879 28.6369 21.3879C30.8123 21.3879 32.0212 22.1125 32.6245 23.9255C32.7466 24.2878 33.1089 24.5288 33.4712 24.5288H35.4055C35.8899 24.5288 36.253 24.1658 36.253 23.6814V23.5601C35.7686 20.9004 33.5933 18.8471 30.8154 18.6069V15.707C30.8154 15.2226 30.4524 14.8595 29.8498 14.7406H28.0368C27.5524 14.7406 27.1901 15.1037 27.0712 15.707V18.4848C23.4459 18.9692 21.1493 21.3848 21.1493 24.4068C21.1493 28.3943 23.5648 29.9656 28.6401 30.5689C32.0244 31.1722 33.1121 31.8976 33.1121 33.8319C33.1121 35.7662 31.4211 37.0941 29.1245 37.0941C25.9835 37.0941 24.8967 35.7662 24.5336 33.9532C24.4123 33.4688 24.0492 33.2286 23.6869 33.2286H21.6337C21.1493 33.2286 20.787 33.5909 20.787 34.0753V34.1973C21.2714 37.2186 23.2025 39.3939 27.1901 39.9972V42.8971C27.1901 43.3815 27.5524 43.7438 28.1557 43.8627H29.9688C30.4524 43.8627 30.8154 43.5004 30.9344 42.8971V39.9972C34.5565 39.3907 36.9744 36.8531 36.9744 33.5909Z" fill="white"/>
<path d="M35.6434 8.5785C35.159 8.33749 34.6778 8.5785 34.5565 9.06287C34.4344 9.18494 34.4344 9.30387 34.4344 9.54724V11.2382C34.4344 11.7218 34.7967 12.2038 35.159 12.4472C44.5842 15.8315 49.4184 26.3443 45.9128 35.6473C44.0998 40.7218 40.1122 44.5881 35.159 46.4003C34.6755 46.6406 34.4344 47.0036 34.4344 47.6093V49.3003C34.4344 49.7846 34.6755 50.1469 35.159 50.2658C35.2811 50.2658 35.5221 50.2658 35.6434 50.1438C47.121 46.5193 53.4052 34.3163 49.7815 22.8347C47.6062 15.9504 42.2907 10.7538 35.6434 8.5785ZM22.8371 46.2783C13.412 42.894 8.57773 32.382 12.0841 23.0781C13.8964 18.0036 17.8839 14.1381 22.8371 12.3251C23.3215 12.0849 23.5625 11.7218 23.5625 11.1161V9.42516C23.5625 8.94079 23.3215 8.5785 22.8371 8.45957C22.7158 8.45957 22.4748 8.45957 22.3527 8.58165C10.8751 12.2062 4.59092 24.4099 8.21542 35.8907C10.3908 42.6561 15.5873 47.8535 22.3527 50.028C22.8371 50.269 23.3183 50.028 23.4404 49.5436C23.5625 49.4223 23.5625 49.3034 23.5625 49.0593V47.3691C23.5625 47.0036 23.2002 46.5224 22.8371 46.2783Z" fill="white"/>
</svg>
