<svg width="24" height="24" viewBox="0 0 24 24" fill="none" xmlns="http://www.w3.org/2000/svg">
<path fill-rule="evenodd" clip-rule="evenodd" d="M18.1124 15.6791L18.1182 10.1178L14.1601 6.17219C12.9655 4.98297 11.0345 4.98297 9.84007 6.17219L5.89062 10.1082V15.6762C5.8938 17.3602 7.26129 18.723 8.94535 18.7204H15.0577C16.7406 18.7231 18.1076 17.362 18.1124 15.6791Z" stroke="white" stroke-width="1.44" stroke-linecap="round" stroke-linejoin="round"/>
<path d="M18.8387 6.25711C18.8387 5.85946 18.5163 5.53711 18.1187 5.53711C17.721 5.53711 17.3987 5.85946 17.3987 6.25711H18.8387ZM18.1187 10.1173H17.3987C17.3987 10.3086 17.4748 10.4921 17.6103 10.6272L18.1187 10.1173ZM19.1713 12.1833C19.4529 12.4641 19.9088 12.4633 20.1895 12.1818C20.4703 11.9001 20.4696 11.4443 20.1879 11.1635L19.1713 12.1833ZM6.39851 10.6176C6.68012 10.3368 6.68082 9.88094 6.40007 9.59933C6.11932 9.31772 5.66344 9.31702 5.38183 9.59777L6.39851 10.6176ZM3.81127 11.1635C3.52967 11.4443 3.52896 11.9001 3.80972 12.1818C4.09046 12.4633 4.54634 12.4641 4.82795 12.1833L3.81127 11.1635ZM13.1996 18.7199C13.1996 19.1175 13.522 19.4399 13.9196 19.4399C14.3172 19.4399 14.6396 19.1175 14.6396 18.7199H13.1996ZM9.35961 18.7199C9.35961 19.1175 9.68198 19.4399 10.0796 19.4399C10.4772 19.4399 10.7996 19.1175 10.7996 18.7199H9.35961ZM17.3987 6.25711V10.1173H18.8387V6.25711H17.3987ZM17.6103 10.6272L19.1713 12.1833L20.1879 11.1635L18.627 9.60737L17.6103 10.6272ZM5.38183 9.59777L3.81127 11.1635L4.82795 12.1833L6.39851 10.6176L5.38183 9.59777ZM14.6396 18.7199V17.0111H13.1996V18.7199H14.6396ZM14.6396 17.0111C14.6396 15.553 13.4577 14.3711 11.9996 14.3711V15.8111C12.6624 15.8111 13.1996 16.3483 13.1996 17.0111H14.6396ZM11.9996 14.3711C10.5416 14.3711 9.35961 15.553 9.35961 17.0111H10.7996C10.7996 16.3483 11.3368 15.8111 11.9996 15.8111V14.3711ZM9.35961 17.0111V18.7199H10.7996V17.0111H9.35961Z" fill="white"/>
</svg>
