<svg width="44" height="32" viewBox="0 0 44 32" fill="none" xmlns="http://www.w3.org/2000/svg">
<rect width="44" height="32" rx="4" fill="#C3922E"/>
<path d="M25.8855 21.7938L16.3588 12.2671C16.0333 11.9416 16.0333 11.4018 16.3588 11.0763C16.6843 10.7508 17.2241 10.7508 17.5496 11.0763L27.0763 20.6029C27.4018 20.9284 27.4018 21.4683 27.0763 21.7938C26.7508 22.1193 26.211 22.1193 25.8855 21.7938Z" fill="white"/>
<path d="M16.3588 21.7938C16.0333 21.4683 16.0333 20.9284 16.3588 20.6029L25.8854 11.0763C26.2109 10.7508 26.7508 10.7508 27.0763 11.0763C27.4017 11.4017 27.4017 11.9416 27.0763 12.2671L17.5496 21.7938C17.2241 22.1192 16.6842 22.1192 16.3588 21.7938Z" fill="white"/>
</svg>
