<svg width="22" height="22" viewBox="0 0 22 22" fill="none" xmlns="http://www.w3.org/2000/svg">
<path d="M14.8854 16.0763L5.35868 6.54962C5.03319 6.22412 5.03319 5.68428 5.35868 5.35878C5.68418 5.03329 6.22402 5.03329 6.54952 5.35878L16.0762 14.8854C16.4017 15.2109 16.4017 15.7508 16.0762 16.0763C15.7507 16.4018 15.2108 16.4018 14.8854 16.0763Z" fill="black"/>
<path d="M5.35839 16.0762C5.03289 15.7507 5.03289 15.2109 5.35839 14.8854L14.8851 5.35872C15.2105 5.03323 15.7504 5.03323 16.0759 5.35872C16.4014 5.68422 16.4014 6.22406 16.0759 6.54956L6.54922 16.0762C6.22373 16.4017 5.68388 16.4017 5.35839 16.0762Z" fill="black"/>
</svg>
