<svg width="17" height="17" viewBox="0 0 17 17" fill="none" xmlns="http://www.w3.org/2000/svg">
<path d="M4.25005 5.00001C4.25005 5.41422 4.58584 5.75001 5.00005 5.75001C5.41426 5.75001 5.75005 5.41422 5.75005 5.00001H4.25005ZM5.00005 4.76701H5.75006L5.75004 4.76284L5.00005 4.76701ZM8.2311 1.50001V0.75L8.2269 0.75002L8.2311 1.50001ZM12.269 1.50001L12.2732 0.75001H12.269V1.50001ZM15.5 4.76701L14.75 4.76284V4.76701H15.5ZM15.5 8.73301H14.75L14.7501 8.73721L15.5 8.73301ZM12.269 12V12.75H12.2732L12.269 12ZM12 11.25C11.5858 11.25 11.25 11.5858 11.25 12C11.25 12.4142 11.5858 12.75 12 12.75V11.25ZM5.00005 5.75001C5.41426 5.75001 5.75005 5.41422 5.75005 5.00001C5.75005 4.5858 5.41426 4.25001 5.00005 4.25001V5.75001ZM4.73105 5.00001V4.25L4.72691 4.25002L4.73105 5.00001ZM1.50005 8.26701H2.25006L2.25004 8.26281L1.50005 8.26701ZM1.50005 12.234L2.25005 12.2379V12.234H1.50005ZM4.73105 15.5L4.72691 16.25H4.73105V15.5ZM8.769 15.5V16.25H8.7732L8.769 15.5ZM12 12.233H11.25L11.2501 12.2372L12 12.233ZM12.75 12C12.75 11.5858 12.4143 11.25 12 11.25C11.5858 11.25 11.25 11.5858 11.25 12H12.75ZM5.00005 4.25001C4.58584 4.25001 4.25005 4.5858 4.25005 5.00001C4.25005 5.41422 4.58584 5.75001 5.00005 5.75001V4.25001ZM8.7691 5.00001L8.7732 4.25001H8.7691V5.00001ZM12.0001 8.26701L11.2501 8.26281V8.26701H12.0001ZM11.25 12C11.25 12.4142 11.5858 12.75 12 12.75C12.4142 12.75 12.75 12.4142 12.75 12H11.25ZM5.75005 5.00001L5.75006 4.76701H4.25005V5.00001H5.75005ZM5.75004 4.76284C5.74636 4.10006 6.0061 3.46297 6.4722 2.99172L5.40566 1.93695C4.65985 2.69107 4.24417 3.71057 4.25006 4.77118L5.75004 4.76284ZM6.4722 2.99172C6.9382 2.52047 7.5724 2.25366 8.2352 2.25L8.2269 0.75002C7.1663 0.75588 6.1515 1.18283 5.40566 1.93695L6.4722 2.99172ZM8.2311 2.25001H12.269V0.75001L8.2311 0.75V2.25001ZM12.2649 2.25C12.9277 2.25366 13.5619 2.52047 14.0279 2.99172L15.0944 1.93695C14.3486 1.18283 13.3338 0.75587 12.2732 0.75001L12.2649 2.25ZM14.0279 2.99172C14.494 3.46297 14.7536 4.10006 14.75 4.76284L16.25 4.77118C16.2559 3.71057 15.8402 2.69107 15.0944 1.93695L14.0279 2.99172ZM14.75 4.76701V8.73301H16.25V4.76701H14.75ZM14.7501 8.73721C14.7537 9.39991 14.494 10.037 14.0279 10.5083L15.0944 11.5631C15.8402 10.8089 16.2559 9.78941 16.25 8.72881L14.7501 8.73721ZM14.0279 10.5083C13.5619 10.9795 12.9277 11.2463 12.2649 11.25L12.2732 12.75C13.3338 12.7441 14.3486 12.3172 15.0944 11.5631L14.0279 10.5083ZM12.269 11.25H12V12.75H12.269V11.25ZM5.00005 4.25001L4.73105 4.25V5.75001H5.00005V4.25001ZM4.72691 4.25002C3.6663 4.25588 2.65146 4.68283 1.90566 5.43695L2.97218 6.49172C3.43824 6.02047 4.07241 5.75366 4.73519 5.75L4.72691 4.25002ZM1.90566 5.43695C1.15985 6.19107 0.744172 7.21061 0.750062 8.27121L2.25004 8.26281C2.24636 7.60011 2.50612 6.96301 2.97218 6.49172L1.90566 5.43695ZM0.750052 8.26701V12.234H2.25005L2.25006 8.26701H0.750052ZM0.750062 12.2301C0.738472 14.4382 2.51879 16.2378 4.72691 16.25L4.7352 14.75C3.35533 14.7424 2.24281 13.6178 2.25005 12.2379L0.750062 12.2301ZM4.73105 16.25H8.769V14.75H4.73105V16.25ZM8.7732 16.25C9.8338 16.2441 10.8486 15.8172 11.5944 15.0631L10.5279 14.0083C10.0619 14.4795 9.4277 14.7463 8.7649 14.75L8.7732 16.25ZM11.5944 15.0631C12.3402 14.3089 12.7559 13.2894 12.75 12.2288L11.2501 12.2372C11.2537 12.8999 10.994 13.537 10.5279 14.0083L11.5944 15.0631ZM12.75 12.233V12H11.25V12.233H12.75ZM5.00005 5.75001H8.7691V4.25001H5.00005V5.75001ZM8.7649 5.75C9.4277 5.75366 10.0619 6.02047 10.5279 6.49172L11.5944 5.43695C10.8486 4.68283 9.8338 4.25587 8.7732 4.25001L8.7649 5.75ZM10.5279 6.49172C10.994 6.96301 11.2537 7.60011 11.2501 8.26281L12.75 8.27121C12.7559 7.21061 12.3402 6.19107 11.5944 5.43695L10.5279 6.49172ZM11.2501 8.26701L11.25 12H12.75L12.7501 8.26701H11.2501Z" fill="black"/>
</svg>
