<svg width="31" height="31" viewBox="0 0 31 31" fill="none" xmlns="http://www.w3.org/2000/svg">
<path d="M10.5586 22.0561L9.16927 12.332H21.8359L20.4466 22.0561C20.3926 22.4334 20.2044 22.7785 19.9165 23.0282C19.6285 23.2779 19.2602 23.4154 18.8791 23.4154H12.1261C11.745 23.4154 11.3767 23.2779 11.0887 23.0282C10.8008 22.7785 10.6126 22.4334 10.5586 22.0561ZM22.6276 9.16536H18.6693V8.3737C18.6693 8.16373 18.5859 7.96237 18.4374 7.81391C18.2889 7.66544 18.0876 7.58203 17.8776 7.58203H13.1276C12.9176 7.58203 12.7163 7.66544 12.5678 7.81391C12.4193 7.96237 12.3359 8.16373 12.3359 8.3737V9.16536H8.3776C8.16764 9.16536 7.96628 9.24877 7.81781 9.39724C7.66934 9.5457 7.58594 9.74707 7.58594 9.95703C7.58594 10.167 7.66934 10.3684 7.81781 10.5168C7.96628 10.6653 8.16764 10.7487 8.3776 10.7487H22.6276C22.8376 10.7487 23.0389 10.6653 23.1874 10.5168C23.3359 10.3684 23.4193 10.167 23.4193 9.95703C23.4193 9.74707 23.3359 9.5457 23.1874 9.39724C23.0389 9.24877 22.8376 9.16536 22.6276 9.16536Z" fill="black"/>
<rect x="0.5" y="0.5" width="30" height="30" rx="3.5" stroke="black"/>
</svg>
