<svg width="164" height="41" viewBox="0 0 164 41" fill="none" xmlns="http://www.w3.org/2000/svg">
<mask id="mask0_11_3051" style="mask-type:alpha" maskUnits="userSpaceOnUse" x="22" y="11" width="18" height="19">
<rect x="22" y="11.7761" width="17.4478" height="17.4478" fill="#D9D9D9"/>
</mask>
<g mask="url(#mask0_11_3051)">
<path d="M30.7239 23.408L27.0889 19.773L28.1067 18.7189L29.9969 20.6091V14.6841H31.4509V20.6091L33.3411 18.7189L34.3589 19.773L30.7239 23.408ZM26.3619 26.316C25.9621 26.316 25.6198 26.1736 25.3351 25.8889C25.0503 25.6041 24.908 25.2618 24.908 24.862V22.681H26.3619V24.862H35.0859V22.681H36.5398V24.862C36.5398 25.2618 36.3975 25.6041 36.1127 25.8889C35.828 26.1736 35.4857 26.316 35.0859 26.316H26.3619Z" fill="#217EFD"/>
</g>
<path d="M50.8979 26V16.1973H53.605C57.0594 16.1973 58.7866 17.79 58.7866 20.9756C58.7866 22.4886 58.3058 23.7054 57.3442 24.626C56.3872 25.542 55.1043 26 53.4956 26H50.8979ZM52.0464 17.2363V24.9609H53.5093C54.7944 24.9609 55.7948 24.6169 56.5103 23.9287C57.2257 23.2406 57.5835 22.2653 57.5835 21.0029C57.5835 18.4919 56.2482 17.2363 53.5776 17.2363H52.0464ZM63.4897 26.1641C62.4552 26.1641 61.6281 25.8382 61.0083 25.1865C60.3931 24.5303 60.0854 23.6621 60.0854 22.582C60.0854 21.4062 60.4067 20.488 61.0493 19.8271C61.6919 19.1663 62.5601 18.8359 63.6538 18.8359C64.6974 18.8359 65.5109 19.1572 66.0942 19.7998C66.6821 20.4424 66.9761 21.3333 66.9761 22.4727C66.9761 23.5892 66.6593 24.4847 66.0259 25.1592C65.397 25.8291 64.5516 26.1641 63.4897 26.1641ZM63.5718 19.7793C62.8517 19.7793 62.2821 20.0254 61.8628 20.5176C61.4435 21.0052 61.2339 21.6797 61.2339 22.541C61.2339 23.3704 61.4458 24.0244 61.8696 24.5029C62.2935 24.9814 62.8608 25.2207 63.5718 25.2207C64.2964 25.2207 64.8524 24.986 65.2397 24.5166C65.6317 24.0472 65.8276 23.3796 65.8276 22.5137C65.8276 21.6387 65.6317 20.9642 65.2397 20.4902C64.8524 20.0163 64.2964 19.7793 63.5718 19.7793ZM77.5854 19L75.4868 26H74.3247L72.8823 20.9893C72.8276 20.7979 72.7912 20.5814 72.7729 20.3398H72.7456C72.7319 20.5039 72.6841 20.7158 72.6021 20.9756L71.0366 26H69.9155L67.7964 19H68.9722L70.4214 24.2637C70.467 24.4232 70.4989 24.6328 70.5171 24.8926H70.5718C70.5854 24.6921 70.6265 24.4779 70.6948 24.25L72.3081 19H73.3335L74.7827 24.2773C74.8283 24.446 74.8625 24.6556 74.8853 24.9062H74.9399C74.9491 24.7285 74.9878 24.5189 75.0562 24.2773L76.478 19H77.5854ZM84.6948 26H83.5737V22.0078C83.5737 20.5221 83.0314 19.7793 81.9468 19.7793C81.3862 19.7793 80.9214 19.9912 80.5522 20.415C80.1877 20.8343 80.0054 21.3652 80.0054 22.0078V26H78.8843V19H80.0054V20.1621H80.0327C80.5614 19.278 81.327 18.8359 82.3296 18.8359C83.0952 18.8359 83.6808 19.0843 84.0864 19.5811C84.492 20.0732 84.6948 20.7865 84.6948 21.7207V26ZM87.9351 26H86.814V15.6367H87.9351V26ZM93.1304 26.1641C92.0959 26.1641 91.2687 25.8382 90.6489 25.1865C90.0337 24.5303 89.7261 23.6621 89.7261 22.582C89.7261 21.4062 90.0474 20.488 90.6899 19.8271C91.3325 19.1663 92.2007 18.8359 93.2944 18.8359C94.3381 18.8359 95.1515 19.1572 95.7349 19.7998C96.3228 20.4424 96.6167 21.3333 96.6167 22.4727C96.6167 23.5892 96.3 24.4847 95.6665 25.1592C95.0376 25.8291 94.1922 26.1641 93.1304 26.1641ZM93.2124 19.7793C92.4924 19.7793 91.9227 20.0254 91.5034 20.5176C91.0841 21.0052 90.8745 21.6797 90.8745 22.541C90.8745 23.3704 91.0864 24.0244 91.5103 24.5029C91.9341 24.9814 92.5015 25.2207 93.2124 25.2207C93.937 25.2207 94.493 24.986 94.8804 24.5166C95.2723 24.0472 95.4683 23.3796 95.4683 22.5137C95.4683 21.6387 95.2723 20.9642 94.8804 20.4902C94.493 20.0163 93.937 19.7793 93.2124 19.7793ZM103.418 26H102.297V24.9062H102.27C101.782 25.7448 101.065 26.1641 100.117 26.1641C99.4194 26.1641 98.8726 25.9795 98.4761 25.6104C98.0841 25.2412 97.8882 24.7513 97.8882 24.1406C97.8882 22.8327 98.6584 22.0716 100.199 21.8574L102.297 21.5635C102.297 20.374 101.817 19.7793 100.855 19.7793C100.012 19.7793 99.2508 20.0664 98.5718 20.6406V19.4922C99.2599 19.0547 100.053 18.8359 100.951 18.8359C102.596 18.8359 103.418 19.7064 103.418 21.4473V26ZM102.297 22.459L100.609 22.6914C100.089 22.7643 99.6974 22.8942 99.4331 23.0811C99.1688 23.2633 99.0366 23.5892 99.0366 24.0586C99.0366 24.4004 99.1574 24.6807 99.3989 24.8994C99.645 25.1136 99.9709 25.2207 100.376 25.2207C100.932 25.2207 101.39 25.027 101.75 24.6396C102.115 24.2477 102.297 23.7533 102.297 23.1562V22.459ZM111.505 26H110.384V24.8105H110.357C109.837 25.7129 109.035 26.1641 107.951 26.1641C107.071 26.1641 106.367 25.8519 105.838 25.2275C105.314 24.5986 105.052 23.7441 105.052 22.6641C105.052 21.5065 105.344 20.5791 105.927 19.8818C106.511 19.1846 107.288 18.8359 108.258 18.8359C109.22 18.8359 109.919 19.2142 110.357 19.9707H110.384V15.6367H111.505V26ZM110.384 22.835V21.8027C110.384 21.2376 110.197 20.7591 109.824 20.3672C109.45 19.9753 108.976 19.7793 108.402 19.7793C107.718 19.7793 107.181 20.0299 106.789 20.5312C106.397 21.0326 106.201 21.7253 106.201 22.6094C106.201 23.416 106.388 24.054 106.761 24.5234C107.139 24.9883 107.645 25.2207 108.279 25.2207C108.903 25.2207 109.409 24.9951 109.796 24.5439C110.188 24.0928 110.384 23.5231 110.384 22.835ZM124.439 25.5898C123.714 25.9727 122.812 26.1641 121.732 26.1641C120.337 26.1641 119.221 25.7152 118.382 24.8174C117.544 23.9196 117.125 22.7415 117.125 21.2832C117.125 19.7155 117.596 18.4486 118.54 17.4824C119.483 16.5163 120.679 16.0332 122.128 16.0332C123.058 16.0332 123.828 16.1676 124.439 16.4365V17.6602C123.737 17.2682 122.962 17.0723 122.115 17.0723C120.989 17.0723 120.075 17.4482 119.374 18.2002C118.676 18.9521 118.328 19.957 118.328 21.2148C118.328 22.4089 118.653 23.3613 119.305 24.0723C119.961 24.7786 120.82 25.1318 121.882 25.1318C122.867 25.1318 123.719 24.9131 124.439 24.4756V25.5898ZM125.977 25.6035V24.25C126.132 24.3867 126.317 24.5098 126.531 24.6191C126.75 24.7285 126.977 24.8219 127.214 24.8994C127.456 24.9723 127.697 25.0293 127.939 25.0703C128.181 25.1113 128.404 25.1318 128.609 25.1318C129.315 25.1318 129.842 25.002 130.188 24.7422C130.539 24.4779 130.714 24.0996 130.714 23.6074C130.714 23.3431 130.655 23.113 130.537 22.917C130.423 22.721 130.263 22.5433 130.058 22.3838C129.853 22.2197 129.609 22.0648 129.327 21.9189C129.049 21.7686 128.748 21.6113 128.424 21.4473C128.083 21.2741 127.764 21.0986 127.467 20.9209C127.171 20.7432 126.914 20.5472 126.695 20.333C126.476 20.1188 126.303 19.8773 126.175 19.6084C126.052 19.335 125.991 19.016 125.991 18.6514C125.991 18.2048 126.089 17.8174 126.285 17.4893C126.481 17.1566 126.738 16.8831 127.057 16.6689C127.376 16.4548 127.738 16.2952 128.144 16.1904C128.554 16.0856 128.971 16.0332 129.395 16.0332C130.361 16.0332 131.065 16.1494 131.507 16.3818V17.6738C130.929 17.2728 130.186 17.0723 129.279 17.0723C129.028 17.0723 128.778 17.0996 128.527 17.1543C128.276 17.2044 128.053 17.2887 127.857 17.4072C127.661 17.5257 127.501 17.6784 127.378 17.8652C127.255 18.0521 127.194 18.2799 127.194 18.5488C127.194 18.7995 127.239 19.016 127.331 19.1982C127.426 19.3805 127.565 19.5469 127.748 19.6973C127.93 19.8477 128.151 19.9935 128.411 20.1348C128.675 20.276 128.978 20.431 129.32 20.5996C129.671 20.7728 130.003 20.9551 130.318 21.1465C130.632 21.3379 130.908 21.5498 131.145 21.7822C131.382 22.0146 131.569 22.2721 131.706 22.5547C131.847 22.8372 131.917 23.1608 131.917 23.5254C131.917 24.0085 131.822 24.4186 131.63 24.7559C131.444 25.0885 131.188 25.3597 130.865 25.5693C130.546 25.779 130.177 25.9294 129.757 26.0205C129.338 26.1162 128.896 26.1641 128.431 26.1641C128.276 26.1641 128.085 26.1504 127.857 26.123C127.629 26.1003 127.397 26.0638 127.16 26.0137C126.923 25.9681 126.697 25.9111 126.483 25.8428C126.273 25.7699 126.105 25.6901 125.977 25.6035ZM141.16 16.1973L137.53 26H136.265L132.71 16.1973H133.989L136.703 23.9697C136.789 24.2204 136.855 24.5098 136.901 24.8379H136.928C136.965 24.5645 137.04 24.2705 137.154 23.9561L139.922 16.1973H141.16Z" fill="#217EFD"/>
<rect x="0.5" y="0.5" width="162.448" height="40" rx="9.5" stroke="#217EFD"/>
</svg>
