<svg width="21" height="21" viewBox="0 0 21 21" fill="none" xmlns="http://www.w3.org/2000/svg">
<path fill-rule="evenodd" clip-rule="evenodd" d="M18.3707 2.85714C17.3997 1.88617 15.8255 1.88616 14.8545 2.85714L13.4624 4.24931L6.91006 10.8016C6.80384 10.9078 6.7285 11.0409 6.69207 11.1866L5.86329 14.5017C5.79268 14.7842 5.87543 15.0829 6.08128 15.2887C6.28713 15.4946 6.5859 15.5774 6.86833 15.5068L10.1834 14.678C10.3292 14.6415 10.4622 14.5662 10.5684 14.46L17.0731 7.95537L18.5129 6.51553C19.4839 5.54456 19.4839 3.9703 18.5129 2.99933L18.3707 2.85714ZM16.0266 4.0292C16.3502 3.70555 16.875 3.70555 17.1987 4.0292L17.3409 4.17139C17.6645 4.49505 17.6645 5.01981 17.3409 5.34346L16.4984 6.18593L15.2093 4.84647L16.0266 4.0292ZM14.037 6.01875L15.3261 7.35821L9.55875 13.1256L7.80636 13.5637L8.24445 11.8114L14.037 6.01875ZM4.18099 7.24376C4.18099 6.78604 4.55205 6.41498 5.00977 6.41498H9.15365C9.61138 6.41498 9.98242 6.04393 9.98242 5.5862C9.98242 5.12849 9.61138 4.75743 9.15365 4.75743H5.00977C3.63661 4.75743 2.52344 5.8706 2.52344 7.24376V16.3603C2.52344 17.7335 3.63661 18.8466 5.00977 18.8466H14.1263C15.4995 18.8466 16.6126 17.7335 16.6126 16.3603V12.2164C16.6126 11.7587 16.2416 11.3876 15.7839 11.3876C15.3261 11.3876 14.9551 11.7587 14.9551 12.2164V16.3603C14.9551 16.818 14.584 17.189 14.1263 17.189H5.00977C4.55205 17.189 4.18099 16.818 4.18099 16.3603V7.24376Z" fill="black"/>
</svg>
