<svg width="31" height="31" viewBox="0 0 31 31" fill="none" xmlns="http://www.w3.org/2000/svg">
<rect width="31" height="30.0882" rx="4.73416" fill="#181818"/>
<g clip-path="url(#clip0_459_24860)">
<path d="M21.2443 15.378H20.141V12.1993L15.7674 16.1162L11.3143 12.1872V18.688H16.831V19.7914H10.7626C10.6163 19.7914 10.476 19.7333 10.3725 19.6298C10.2691 19.5263 10.2109 19.386 10.2109 19.2397V10.413C10.2109 10.2667 10.2691 10.1264 10.3725 10.0229C10.476 9.91945 10.6163 9.86133 10.7626 9.86133H20.6927C20.839 9.86133 20.9793 9.91945 21.0827 10.0229C21.1862 10.1264 21.2443 10.2667 21.2443 10.413V15.378ZM11.5962 10.9647L15.7613 14.6399L19.8663 10.9647H11.5962ZM20.6927 18.1364H22.3477V19.2397H20.6927V20.8947H19.5893V19.2397H17.9343V18.1364H19.5893V16.4814H20.6927V18.1364Z" fill="white"/>
</g>
<defs>
<clipPath id="clip0_459_24860">
<rect width="13.2401" height="13.2401" fill="white" transform="translate(9.11719 8.20605)"/>
</clipPath>
</defs>
</svg>
