<svg width="25" height="25" viewBox="0 0 25 25" fill="none" xmlns="http://www.w3.org/2000/svg">
<path d="M12.5026 7.29167C11.352 7.29167 10.4193 6.35893 10.4193 5.20833C10.4193 4.05774 11.352 3.125 12.5026 3.125C13.6532 3.125 14.5859 4.05774 14.5859 5.20833C14.5859 6.35893 13.6532 7.29167 12.5026 7.29167Z" fill="#C3922E"/>
<path d="M12.5026 21.8747C11.352 21.8747 10.4193 20.942 10.4193 19.7913C10.4193 18.6407 11.352 17.708 12.5026 17.708C13.6532 17.708 14.5859 18.6407 14.5859 19.7913C14.5859 20.942 13.6532 21.8747 12.5026 21.8747Z" fill="#C3922E"/>
<path d="M12.5026 14.5837C11.352 14.5837 10.4193 13.651 10.4193 12.5003C10.4193 11.3497 11.352 10.417 12.5026 10.417C13.6532 10.417 14.5859 11.3497 14.5859 12.5003C14.5859 13.651 13.6532 14.5837 12.5026 14.5837Z" fill="#C3922E"/>
</svg>
