<svg width="26" height="26" viewBox="0 0 26 26" fill="none" xmlns="http://www.w3.org/2000/svg">
<path d="M24.146 5.9832V25.9999H2.42969V0H18.1628L20.9496 2.78682L24.146 5.9832Z" fill="#FFFEFE"/>
<path d="M12.2745 1.7417H1.85938V6.40179H12.2745V1.7417Z" fill="#B43331"/>
<path d="M5.59474 3.26915C5.54878 3.15814 5.48754 3.05861 5.40334 2.97442C5.3191 2.89022 5.21576 2.82131 5.09708 2.77536C4.9746 2.72559 4.83673 2.70264 4.68367 2.70264H3.53906V5.65785H4.11711V4.54386H4.68367C4.83678 4.54386 4.9746 4.52091 5.09708 4.47114C5.21576 4.42519 5.31905 4.35633 5.40334 4.27208C5.48754 4.18789 5.54883 4.09216 5.59474 3.97735C5.63679 3.86634 5.65979 3.74766 5.65979 3.62518C5.65974 3.49884 5.63679 3.38016 5.59474 3.26915ZM4.97074 3.91605C4.89416 3.98877 4.78701 4.02706 4.65681 4.02706H4.11711V3.21553H4.65681C4.78701 3.21553 4.89416 3.25382 4.97074 3.33034C5.04346 3.40306 5.0817 3.50259 5.0817 3.62508C5.08175 3.7438 5.04346 3.84334 4.97074 3.91605Z" fill="#FFFEFE"/>
<path d="M8.35857 3.8472C8.35476 3.74386 8.35095 3.65199 8.33943 3.56775C8.328 3.4835 8.3088 3.40697 8.28199 3.33425C8.25523 3.26534 8.22075 3.19643 8.17479 3.13519C8.07145 2.98589 7.94516 2.87489 7.80348 2.80598C7.65804 2.73707 7.48579 2.70264 7.28287 2.70264H6.21875V5.65785H7.28292C7.48584 5.65785 7.65809 5.62342 7.80353 5.55451C7.94521 5.4856 8.0715 5.37459 8.17484 5.2253C8.2208 5.16405 8.25528 5.09514 8.28204 5.02623C8.30886 4.95352 8.328 4.87694 8.33948 4.79274C8.351 4.70855 8.35476 4.61663 8.35862 4.51329C8.36243 4.41376 8.36243 4.30275 8.36243 4.18027C8.36238 4.05779 8.36238 3.94673 8.35857 3.8472ZM7.78053 4.47886C7.78053 4.56692 7.77291 4.63583 7.76519 4.69707C7.75752 4.7545 7.7461 4.80808 7.73076 4.84637C7.71548 4.88846 7.69247 4.92675 7.66571 4.96118C7.56999 5.08367 7.42455 5.1411 7.23316 5.1411H6.79298V3.21558H7.23316C7.42455 3.21558 7.57004 3.27682 7.66571 3.3993C7.69252 3.43373 7.71548 3.46821 7.73076 3.51031C7.7461 3.55241 7.75757 3.60218 7.76519 3.66342C7.77291 3.72085 7.78053 3.79357 7.78053 3.87777C7.78434 3.96201 7.78434 4.06535 7.78434 4.18017C7.78439 4.29509 7.78439 4.39462 7.78053 4.47886Z" fill="#FFFEFE"/>
<path d="M10.8235 3.21558V2.70264H8.875V5.65785H9.45304V4.45972H10.6206V3.94292H9.45304V3.21558H10.8235Z" fill="#FFFEFE"/>
<path d="M5.59474 3.26915C5.54878 3.15814 5.48754 3.05861 5.40334 2.97442C5.3191 2.89022 5.21576 2.82131 5.09708 2.77536C4.9746 2.72559 4.83673 2.70264 4.68367 2.70264H3.53906V5.65785H4.11711V4.54386H4.68367C4.83678 4.54386 4.9746 4.52091 5.09708 4.47114C5.21576 4.42519 5.31905 4.35633 5.40334 4.27208C5.48754 4.18789 5.54883 4.09216 5.59474 3.97735C5.63679 3.86634 5.65979 3.74766 5.65979 3.62518C5.65974 3.49884 5.63679 3.38016 5.59474 3.26915ZM4.97074 3.91605C4.89416 3.98877 4.78701 4.02706 4.65681 4.02706H4.11711V3.21553H4.65681C4.78701 3.21553 4.89416 3.25382 4.97074 3.33034C5.04346 3.40306 5.0817 3.50259 5.0817 3.62508C5.08175 3.7438 5.04346 3.84334 4.97074 3.91605Z" fill="#FFFEFE"/>
<path opacity="0.08" d="M24.146 5.98348V26.0002H2.42969V21.307L12.5816 11.1551L13.1826 10.5542L13.5156 10.2211L14.0707 9.66604L14.7291 9.00761L20.9496 2.78711L24.146 5.98348Z" fill="#040000"/>
<path d="M24.1479 5.98386H18.1641V0L24.1479 5.98386Z" fill="#BBBBBA"/>
<path d="M21.0486 18.8225C20.9223 18.6005 20.75 18.3899 20.5357 18.1985C20.3596 18.0377 20.1529 17.8884 19.9194 17.7506C18.9777 17.1956 17.634 16.9276 15.8081 16.9276H15.6243C15.5248 16.8358 15.4214 16.7439 15.3143 16.6482C14.6214 16.0242 14.0702 15.3466 13.6414 14.5925C14.4835 12.7359 14.8855 11.0822 14.8357 9.67352C14.8281 9.43616 14.7936 9.21415 14.7324 9.00742C14.6405 8.67439 14.4874 8.37961 14.273 8.13845C14.2692 8.13464 14.2692 8.13464 14.2654 8.13078C13.9247 7.74799 13.45 7.52979 12.9677 7.52979C12.4815 7.52979 12.0336 7.74032 11.7082 8.12697C11.3867 8.50976 11.2144 9.03423 11.2067 9.65051C11.1953 10.5922 11.2718 11.4841 11.4326 12.3071C11.4479 12.3722 11.4594 12.4373 11.4747 12.5023C11.6355 13.2488 11.8728 13.957 12.1791 14.6154C11.8192 15.3465 11.4555 15.9782 11.203 16.4069C11.0116 16.7323 10.801 17.073 10.5828 17.4137C9.59898 17.5898 8.76444 17.8042 8.03715 18.0721C7.05332 18.4282 6.26474 18.8875 5.69822 19.4349C5.33067 19.7871 5.08189 20.1622 4.95935 20.5527C4.8292 20.9546 4.83692 21.3566 4.98236 21.7164C5.11632 22.0494 5.35748 22.3289 5.67902 22.5203C5.7556 22.5662 5.83599 22.6045 5.92018 22.6389C6.1652 22.7385 6.43318 22.792 6.71258 22.792C7.35953 22.792 8.02558 22.5126 8.58833 22.0111C9.63717 21.0732 10.7205 19.565 11.3598 18.6118C11.8842 18.5314 12.4546 18.4625 13.0977 18.3936C13.8557 18.317 14.5256 18.2711 15.1342 18.2481C15.3218 18.4166 15.5017 18.5773 15.674 18.7305C16.6311 19.5841 17.3584 20.2004 18.0168 20.633C18.0168 20.6368 18.0206 20.6368 18.0244 20.6368C18.2848 20.809 18.5335 20.9507 18.7824 21.0655C19.0618 21.1957 19.3451 21.2646 19.636 21.2646C20.0035 21.2646 20.348 21.1536 20.6351 20.9507C20.926 20.7402 21.1366 20.4378 21.2323 20.0971C21.3434 19.6876 21.2783 19.2321 21.0486 18.8225ZM12.5849 11.155C12.5313 10.6803 12.5083 10.1865 12.516 9.66585C12.5236 9.17205 12.7036 8.83898 12.9677 8.83898C13.1667 8.83898 13.3773 9.01889 13.473 9.36339C13.4998 9.46673 13.519 9.58541 13.5228 9.71937C13.5304 9.88014 13.5266 10.0486 13.519 10.2208C13.496 10.707 13.4117 11.2238 13.2663 11.7789C13.1782 12.1349 13.0634 12.5062 12.9218 12.8928C12.761 12.3493 12.6461 11.7712 12.5849 11.155ZM6.19979 21.2303C6.13469 21.0695 6.2074 20.7594 6.60553 20.3766C7.21414 19.7948 8.16731 19.3354 9.49569 18.987C9.24301 19.3315 8.99423 19.6455 8.75302 19.9325C8.38551 20.3766 8.03334 20.7517 7.71561 21.035C7.44388 21.28 7.14523 21.4331 6.86197 21.4714C6.81221 21.4791 6.76244 21.4829 6.71268 21.4829C6.4639 21.4829 6.26098 21.3834 6.19979 21.2303ZM12.3169 17.1611L12.3437 17.119L12.3016 17.1267C12.3092 17.1075 12.3208 17.0884 12.3322 17.0731C12.493 16.8013 12.6958 16.453 12.914 16.051L12.9332 16.0931L12.9829 15.9898C13.1437 16.2195 13.3198 16.4453 13.5036 16.6635C13.5917 16.7668 13.6835 16.8664 13.7753 16.9659L13.7141 16.9697L13.7677 17.0195C13.6108 17.031 13.4462 17.0463 13.2816 17.0616C13.1782 17.0731 13.071 17.0807 12.9638 17.0922C12.7418 17.1152 12.5236 17.1382 12.3169 17.1611ZM18.7595 19.5498C18.304 19.2588 17.7948 18.8492 17.167 18.3018C18.0589 18.3937 18.7595 18.5889 19.2571 18.8799C19.4753 19.0062 19.6399 19.1363 19.7509 19.2626C19.9347 19.4578 19.9998 19.634 19.9653 19.7526C19.9347 19.8713 19.8007 19.9517 19.636 19.9517C19.5403 19.9517 19.4408 19.9287 19.3375 19.879C19.1614 19.7948 18.9777 19.6914 18.7824 19.5651C18.7747 19.5651 18.7671 19.5574 18.7595 19.5498Z" fill="#B43331"/>
</svg>
