<svg width="31" height="30" viewBox="0 0 31 30" fill="none" xmlns="http://www.w3.org/2000/svg">
<rect width="31" height="29.8519" rx="5.16667" fill="#181818"/>
<path d="M20.4799 18.5238C20.6059 18.6501 20.7003 18.8044 20.7555 18.974C20.8107 19.1437 20.8252 19.324 20.7978 19.5003C20.7705 19.6766 20.7019 19.8439 20.5978 19.9888C20.4937 20.1337 20.3569 20.252 20.1986 20.3342C19.2936 20.8179 18.2393 20.9415 17.247 20.6803C14.6135 20.0173 10.8282 16.232 10.1652 13.5985C9.904 12.6062 10.0276 11.5519 10.5113 10.6469C10.5935 10.4886 10.7118 10.3518 10.8567 10.2477C11.0016 10.1436 11.1689 10.0751 11.3452 10.0477C11.5215 10.0203 11.7018 10.0348 11.8715 10.09C12.0411 10.1452 12.1954 10.2396 12.3217 10.3656L13.4455 11.4888C13.6076 11.6493 13.7173 11.855 13.7601 12.079C13.8029 12.303 13.7769 12.5347 13.6854 12.7436C13.5853 12.978 13.4432 13.1921 13.2661 13.3753C11.9811 14.6603 16.1858 18.8649 17.4702 17.5795C17.6534 17.4017 17.8677 17.259 18.1024 17.1585C18.3113 17.0669 18.543 17.0408 18.7671 17.0836C18.9911 17.1264 19.1968 17.2362 19.3572 17.3984L20.4799 18.5238ZM17.578 14.8845C17.7209 14.8845 17.858 14.8277 17.9591 14.7266C18.0602 14.6255 18.117 14.4885 18.117 14.3455V13.2675H19.195C19.3379 13.2675 19.475 13.2107 19.5761 13.1097C19.6772 13.0086 19.734 12.8715 19.734 12.7285C19.734 12.5856 19.6772 12.4485 19.5761 12.3474C19.475 12.2463 19.3379 12.1895 19.195 12.1895H18.117V11.1116C18.117 10.9686 18.0602 10.8315 17.9591 10.7304C17.858 10.6293 17.7209 10.5726 17.578 10.5726C17.435 10.5726 17.2979 10.6293 17.1969 10.7304C17.0958 10.8315 17.039 10.9686 17.039 11.1116V12.1895H15.961C15.8181 12.1895 15.681 12.2463 15.5799 12.3474C15.4788 12.4485 15.422 12.5856 15.422 12.7285C15.422 12.8715 15.4788 13.0086 15.5799 13.1097C15.681 13.2107 15.8181 13.2675 15.961 13.2675H17.039V14.3455C17.039 14.4885 17.0958 14.6255 17.1969 14.7266C17.2979 14.8277 17.435 14.8845 17.578 14.8845Z" fill="white"/>
</svg>
