<svg width="51" height="51" viewBox="0 0 51 51" fill="none" xmlns="http://www.w3.org/2000/svg">
<mask id="mask0_199_2264" style="mask-type:alpha" maskUnits="userSpaceOnUse" x="0" y="0" width="51" height="51">
<rect width="51" height="51" fill="#D9D9D9"/>
</mask>
<g mask="url(#mask0_199_2264)">
<path d="M4.25008 14.875V4.25002H14.8751V8.50002H8.50008V14.875H4.25008ZM4.25008 46.75V36.125H8.50008V42.5H14.8751V46.75H4.25008ZM36.1251 46.75V42.5H42.5001V36.125H46.7501V46.75H36.1251ZM42.5001 14.875V8.50002H36.1251V4.25002H46.7501V14.875H42.5001ZM37.1876 37.1875H40.3751V40.375H37.1876V37.1875ZM37.1876 30.8125H40.3751V34H37.1876V30.8125ZM34.0001 34H37.1876V37.1875H34.0001V34ZM30.8126 37.1875H34.0001V40.375H30.8126V37.1875ZM27.6251 34H30.8126V37.1875H27.6251V34ZM34.0001 27.625H37.1876V30.8125H34.0001V27.625ZM30.8126 30.8125H34.0001V34H30.8126V30.8125ZM27.6251 27.625H30.8126V30.8125H27.6251V27.625ZM40.3751 10.625V23.375H27.6251V10.625H40.3751ZM23.3751 27.625V40.375H10.6251V27.625H23.3751ZM23.3751 10.625V23.375H10.6251V10.625H23.3751ZM20.1876 37.1875V30.8125H13.8126V37.1875H20.1876ZM20.1876 20.1875V13.8125H13.8126V20.1875H20.1876ZM37.1876 20.1875V13.8125H30.8126V20.1875H37.1876Z" fill="#1C1B1F" fill-opacity="0.32"/>
</g>
</svg>
