<svg width="11" height="14" viewBox="0 0 11 14" fill="none" xmlns="http://www.w3.org/2000/svg">
<path d="M6.31549 1.45833C6.31549 1.0211 6.66992 0.666656 7.10716 0.666656C7.3901 0.666656 7.63837 0.815087 7.77833 1.03832L9.90603 3.16603C10.2153 3.47519 10.2153 3.97645 9.90603 4.28561C9.59688 4.59478 9.09559 4.59478 8.78645 4.28561L7.89883 3.39798V9.37506C7.89883 9.81222 7.5444 10.1667 7.10716 10.1667C6.66992 10.1667 6.31549 9.81222 6.31549 9.37506V1.49747C6.31541 1.49025 6.31541 1.48303 6.31549 1.47581V1.45833Z" fill="#C1922E"/>
<path d="M4.75702 12.5534C4.75702 12.9907 4.40259 13.3451 3.96535 13.3451C3.68241 13.3451 3.43414 13.1967 3.29415 12.9735L1.16644 10.8458C0.85728 10.5366 0.85728 10.0354 1.16644 9.72614C1.47561 9.41699 1.97687 9.41699 2.28604 9.72614L3.17367 10.6138V4.63678C3.17367 4.19955 3.52812 3.84511 3.96535 3.84511C4.40259 3.84511 4.75702 4.19955 4.75702 4.63678V12.5143C4.7571 12.5215 4.7571 12.5287 4.75702 12.536V12.5534Z" fill="#C1922E"/>
</svg>
