<svg width="20" height="17" viewBox="0 0 20 17" fill="none" xmlns="http://www.w3.org/2000/svg">
<mask id="path-1-inside-1_548_1496" fill="white">
<path d="M2.5 5.24998H17.5V6.74998H2.5V5.24998ZM5.875 10H14.125V11.5H5.875V10ZM8.125 14.75H11.875V16.25H8.125V14.75ZM0.25 0.5H19.75V2H0.25V0.5Z"/>
</mask>
<path d="M2.5 5.24998H17.5V6.74998H2.5V5.24998ZM5.875 10H14.125V11.5H5.875V10ZM8.125 14.75H11.875V16.25H8.125V14.75ZM0.25 0.5H19.75V2H0.25V0.5Z" fill="#E4A951"/>
<path d="M2.5 5.24998V3.24998H0.5V5.24998H2.5ZM17.5 5.24998H19.5V3.24998H17.5V5.24998ZM17.5 6.74998V8.74998H19.5V6.74998H17.5ZM2.5 6.74998H0.5V8.74998H2.5V6.74998ZM5.875 10V8.00002H3.875V10H5.875ZM14.125 10H16.125V8.00002H14.125V10ZM14.125 11.5V13.5H16.125V11.5H14.125ZM5.875 11.5H3.875V13.5H5.875V11.5ZM8.125 14.75V12.75H6.125V14.75H8.125ZM11.875 14.75H13.875V12.75H11.875V14.75ZM11.875 16.25V18.25H13.875V16.25H11.875ZM8.125 16.25H6.125V18.25H8.125V16.25ZM0.25 0.5V-1.5H-1.75V0.5H0.25ZM19.75 0.5H21.75V-1.5H19.75V0.5ZM19.75 2V4H21.75V2H19.75ZM0.25 2H-1.75V4H0.25V2ZM2.5 7.24998H17.5V3.24998H2.5V7.24998ZM15.5 5.24998V6.74998H19.5V5.24998H15.5ZM17.5 4.74998H2.5V8.74998H17.5V4.74998ZM4.5 6.74998V5.24998H0.5V6.74998H4.5ZM5.875 12H14.125V8.00002H5.875V12ZM12.125 10V11.5H16.125V10H12.125ZM14.125 9.50002H5.875V13.5H14.125V9.50002ZM7.875 11.5V10H3.875V11.5H7.875ZM8.125 16.75H11.875V12.75H8.125V16.75ZM9.875 14.75V16.25H13.875V14.75H9.875ZM11.875 14.25H8.125V18.25H11.875V14.25ZM10.125 16.25V14.75H6.125V16.25H10.125ZM0.25 2.5H19.75V-1.5H0.25V2.5ZM17.75 0.5V2H21.75V0.5H17.75ZM19.75 0H0.25V4H19.75V0ZM2.25 2V0.5H-1.75V2H2.25Z" fill="black" mask="url(#path-1-inside-1_548_1496)"/>
</svg>
