<svg width="22" height="23" viewBox="0 0 22 23" fill="none" xmlns="http://www.w3.org/2000/svg">
<path d="M8.94757 22.0414C8.33332 22.0414 7.74978 21.7343 7.35052 21.1917L6.12204 19.5537C6.12204 19.5639 6.07084 19.5332 6.05037 19.5332H5.67159C2.17036 19.5332 0 18.5811 0 13.8616V9.76664C0 5.45666 2.63105 4.33054 4.84235 4.13602C5.08805 4.10531 5.3747 4.09506 5.67159 4.09506H12.2236C15.9296 4.09506 17.8952 6.06067 17.8952 9.76664V13.8616C17.8952 14.1585 17.8849 14.4452 17.844 14.7216C17.6597 16.9022 16.5336 19.5332 12.2236 19.5332H11.8141L10.5446 21.1917C10.1454 21.7343 9.56183 22.0414 8.94757 22.0414ZM5.67159 5.63069C5.43613 5.63069 5.21089 5.64093 4.9959 5.6614C2.6208 5.86615 1.53563 7.16633 1.53563 9.76664V13.8616C1.53563 17.3731 2.62081 17.9976 5.67159 17.9976H6.08108C6.54177 17.9976 7.06387 18.2535 7.35052 18.6221L8.57903 20.2703C8.80427 20.5775 9.09091 20.5775 9.31613 20.2703L10.5446 18.6323C10.8415 18.2331 11.3124 17.9976 11.8141 17.9976H12.2236C14.8239 17.9976 16.1241 16.9022 16.3186 14.568C16.3493 14.3223 16.3595 14.0971 16.3595 13.8616V9.76664C16.3595 6.91039 15.0799 5.63069 12.2236 5.63069H5.67159Z" fill="black"/>
<path d="M8.94807 13.2472C8.37477 13.2472 7.92432 12.7865 7.92432 12.2235C7.92432 11.6604 8.385 11.1997 8.94807 11.1997C9.5111 11.1997 9.97179 11.6604 9.97179 12.2235C9.97179 12.7865 9.52134 13.2472 8.94807 13.2472Z" fill="black"/>
<path d="M12.223 13.2472C11.6497 13.2472 11.1992 12.7865 11.1992 12.2235C11.1992 11.6604 11.6599 11.1997 12.223 11.1997C12.786 11.1997 13.2467 11.6604 13.2467 12.2235C13.2467 12.7865 12.786 13.2472 12.223 13.2472Z" fill="black"/>
<path d="M5.68244 13.2472C5.10914 13.2472 4.65869 12.7865 4.65869 12.2235C4.65869 11.6604 5.11938 11.1997 5.68244 11.1997C6.24551 11.1997 6.70619 11.6604 6.70619 12.2235C6.70619 12.7865 6.24551 13.2472 5.68244 13.2472Z" fill="black"/>
<path d="M17.0861 15.3972C16.8813 15.3972 16.6766 15.3153 16.5332 15.1618C16.3694 14.998 16.2979 14.7625 16.3286 14.5373C16.3593 14.3223 16.3694 14.0971 16.3694 13.8616V9.76659C16.3694 6.91033 15.0899 5.63063 12.2336 5.63063H5.68152C5.44605 5.63063 5.22086 5.64087 5.00587 5.66134C4.78065 5.69206 4.54516 5.61015 4.38136 5.45658C4.21756 5.29278 4.12541 5.06758 4.14589 4.84235C4.33016 2.63105 5.46653 0 9.77649 0H16.3286C20.0346 0 22.0001 1.96561 22.0001 5.67159V9.76659C22.0001 14.0766 19.3691 15.2027 17.1578 15.3972C17.1271 15.3972 17.1065 15.3972 17.0861 15.3972ZM5.8044 4.095H12.2233C15.9292 4.095 17.8949 6.06062 17.8949 9.76659V13.7285C19.6353 13.2985 20.4543 12.0188 20.4543 9.76659V5.67159C20.4543 2.81533 19.1745 1.53563 16.3183 1.53563H9.76635C7.51405 1.53563 6.24461 2.35463 5.8044 4.095Z" fill="black"/>
</svg>
