<svg width="37" height="37" viewBox="0 0 37 37" fill="none" xmlns="http://www.w3.org/2000/svg">
<path d="M36.4467 22.9756C33.9755 32.8866 23.9363 38.9172 14.0232 36.4463C4.11457 33.9753 -1.91781 23.9373 0.553934 14.0268C3.02417 4.11486 13.0634 -1.91733 22.9735 0.553627C32.8856 3.02458 38.918 13.0642 36.4467 22.9756Z" fill="#F79430"/>
<path d="M22.6436 15.8272C22.0708 18.1198 18.5383 16.9547 17.3916 16.6693L18.4026 12.6167C19.5488 12.902 23.24 13.4351 22.6436 15.8272ZM22.016 22.3668C21.3884 24.887 17.1443 23.5254 15.7675 23.1828L16.8826 18.7147C18.2584 19.0578 22.6702 19.7381 22.016 22.3668ZM26.655 15.8634C27.0228 13.402 25.148 12.0786 22.5848 11.1958L23.4164 7.86116L21.3859 7.35521L20.5763 10.6019C20.0432 10.4688 19.495 10.3437 18.9503 10.2191L19.7658 6.95126L17.7368 6.44531L16.9047 9.77844C16.463 9.67795 16.0293 9.57847 15.6087 9.47396L15.6107 9.46341L12.8114 8.76453L12.2712 10.9325L13.7455 11.2993C14.5676 11.5043 14.7168 12.0484 14.6917 12.4795L13.7415 16.293L12.4134 21.6147C12.3129 21.8644 12.0581 22.2387 11.4833 22.0965L10.0075 21.7283L9 24.0525L11.6421 24.7112C12.1335 24.8343 12.6154 24.9629 13.0888 25.0845L12.2486 28.4578L14.2766 28.9638L15.1088 25.6266C15.6625 25.7768 16.2002 25.9155 16.7263 26.0466L15.8972 29.3677L17.9272 29.8737L18.7674 26.5074C22.229 27.162 24.8324 26.8978 25.9269 23.7681C26.8097 21.2474 25.8836 19.7934 24.0621 18.8448C25.3887 18.5378 26.3881 17.6656 26.655 15.8634Z" fill="white"/>
</svg>
