<svg width="18" height="18" viewBox="0 0 18 18" fill="none" xmlns="http://www.w3.org/2000/svg">
<g clip-path="url(#clip0_534_28290)">
<path fill-rule="evenodd" clip-rule="evenodd" d="M9 0C4.03403 0 0 4.03403 0 9C0 13.966 4.03403 18 9 18C13.966 18 18 13.966 18 9C18 4.03403 13.966 0 9 0Z" fill="#66BB6A"/>
<path fill-rule="evenodd" clip-rule="evenodd" d="M9.00391 0C8.87421 0 8.74556 0.00437124 8.61719 0.00981903C13.404 0.212966 17.2305 4.16373 17.2305 9C17.2305 13.8363 13.404 17.787 8.61719 17.9902C8.74556 17.9956 8.87421 18 9.00391 18C13.9699 18 18.0039 13.966 18.0039 9C18.0039 4.03403 13.9699 3.51563e-09 9.00391 0Z" fill="#4CAF50"/>
<path d="M14.172 4.42969C13.841 4.42972 13.5231 4.5616 13.2892 4.79581L7.27858 10.8119L4.71472 8.24565C4.7147 8.24563 4.71467 8.2456 4.71465 8.24558C4.23045 7.76104 3.43329 7.76104 2.94908 8.24558C2.94906 8.2456 2.94903 8.24563 2.94901 8.24565C2.46491 8.73029 2.46491 9.5272 2.94901 10.0118C2.94903 10.0118 2.94906 10.0118 2.94908 10.0118L5.96496 13.0305C6.6841 13.7502 7.87314 13.7503 8.59227 13.0305L15.0549 6.562C15.539 6.07735 15.539 5.28045 15.0549 4.79581C14.821 4.5616 14.5032 4.42974 14.1721 4.42969C14.1721 4.42969 14.1721 4.42969 14.172 4.42969Z" fill="#E8F5E9"/>
<path d="M14.1707 4.42969C14.0381 4.4297 13.9079 4.4518 13.7841 4.49224C13.9693 4.55274 14.14 4.65544 14.2802 4.79581C14.7643 5.28045 14.7643 6.07735 14.2802 6.562L7.81753 13.0305C7.55579 13.2924 7.23155 13.4578 6.89062 13.5291C7.48638 13.6536 8.13359 13.4883 8.59097 13.0305L15.0536 6.562C15.5377 6.07735 15.5377 5.28045 15.0536 4.79581C14.8197 4.5616 14.5019 4.42974 14.1709 4.42969H14.1707Z" fill="#C8E6C9"/>
</g>
<defs>
<clipPath id="clip0_534_28290">
<rect width="18" height="18" fill="white"/>
</clipPath>
</defs>
</svg>
