<svg width="37" height="37" viewBox="0 0 37 37" fill="none" xmlns="http://www.w3.org/2000/svg">
<path fill-rule="evenodd" clip-rule="evenodd" d="M18.5 0C28.7174 0 37 8.28307 37 18.5C37 28.7174 28.7174 37 18.5 37C8.28307 37 0 28.7174 0 18.5C0 8.28307 8.28307 0 18.5 0Z" fill="#5C77BA"/>
<path d="M27.75 18.8782L19 14.9448V4.53125L27.75 18.8782Z" fill="#B4C2E3"/>
<path d="M19 4.53125L10.5 18.8782L19 14.9448V4.53125Z" fill="white"/>
<path d="M19 32.4684V25.4528L27.75 20.3867L19 32.4684Z" fill="#B4C2E3"/>
<path d="M19 32.4684V25.4513L10.5 20.3867L19 32.4684Z" fill="white"/>
<path d="M19 23.9128V14.8516L27.75 18.7911L19 23.9128Z" fill="#7990C9"/>
<path d="M19 23.9128L10.5 18.7911L19 14.8516V23.9128Z" fill="#B4C2E3"/>
</svg>
