<svg width="37" height="37" viewBox="0 0 37 37" fill="none" xmlns="http://www.w3.org/2000/svg">
<path d="M18.5 37C28.7526 37 37 28.7526 37 18.5C37 8.2474 28.7526 0 18.5 0C8.24741 0 0 8.2474 0 18.5C0 28.7526 8.24741 37 18.5 37Z" fill="#2F76BC"/>
<path d="M23.5843 21.4275C23.5843 18.7305 21.9659 17.8055 18.7283 17.4186C16.4156 17.1096 15.9534 16.4937 15.9534 15.4149C15.9534 14.3367 16.7246 13.6429 18.2655 13.6429C19.6533 13.6429 20.4245 14.1051 20.8093 15.2617C20.8872 15.4928 21.1183 15.6466 21.3495 15.6466H22.5834C22.8924 15.6466 23.124 15.4149 23.124 15.1059V15.0286C22.815 13.3319 21.4273 12.022 19.6553 11.8688V10.0188C19.6553 9.70983 19.4237 9.47821 19.0393 9.40234H17.8827C17.5737 9.40234 17.3426 9.63396 17.2667 10.0188V11.7909C14.954 12.0999 13.4889 13.6409 13.4889 15.5687C13.4889 18.1125 15.0299 19.1148 18.2676 19.4997C20.4265 19.8846 21.1204 20.3473 21.1204 21.5813C21.1204 22.8152 20.0416 23.6623 18.5765 23.6623C16.5728 23.6623 15.8795 22.8152 15.6479 21.6586C15.5705 21.3496 15.3389 21.1964 15.1078 21.1964H13.7979C13.4889 21.1964 13.2578 21.4275 13.2578 21.7365V21.8144C13.5668 23.7417 14.7988 25.1294 17.3426 25.5143V27.3642C17.3426 27.6732 17.5737 27.9044 17.9586 27.9802H19.1152C19.4237 27.9802 19.6553 27.7491 19.7311 27.3642V25.5143C22.0418 25.1274 23.5843 23.5086 23.5843 21.4275Z" fill="white"/>
<path d="M22.7371 5.4743C22.4282 5.32056 22.1212 5.4743 22.0438 5.7833C21.9659 5.86118 21.9659 5.93704 21.9659 6.09229V7.17101C21.9659 7.47951 22.197 7.78699 22.4282 7.94224C28.4407 10.1012 31.5247 16.8076 29.2883 22.7423C28.1317 25.9795 25.5879 28.4459 22.4282 29.602C22.1197 29.7553 21.9659 29.9869 21.9659 30.3733V31.452C21.9659 31.761 22.1197 31.9921 22.4282 32.068C22.506 32.068 22.6598 32.068 22.7371 31.9901C30.0591 29.6779 34.068 21.8932 31.7563 14.5688C30.3686 10.1771 26.9777 6.86202 22.7371 5.4743ZM14.5676 29.5242C8.55503 27.3652 5.47112 20.6593 7.70794 14.7241C8.86403 11.4869 11.4078 9.02096 14.5676 7.86437C14.8766 7.71113 15.0304 7.47951 15.0304 7.09314V6.01442C15.0304 5.70542 14.8766 5.4743 14.5676 5.39844C14.4902 5.39844 14.3365 5.39844 14.2586 5.47631C6.9367 7.7885 2.9278 15.5737 5.23999 22.8976C6.6277 27.2135 9.94275 30.529 14.2586 31.9162C14.5676 32.07 14.8746 31.9162 14.9525 31.6072C15.0304 31.5299 15.0304 31.454 15.0304 31.2982V30.22C15.0304 29.9869 14.7992 29.6799 14.5676 29.5242Z" fill="white"/>
</svg>
