<svg width="37" height="37" viewBox="0 0 37 37" fill="none" xmlns="http://www.w3.org/2000/svg">
<path d="M18.5003 0C28.7168 0 37 8.28357 37 18.5C37 28.7169 28.7168 37 18.5003 37C8.28369 37 0 28.7189 0 18.5C0 8.28106 8.28218 0 18.5003 0Z" fill="#4FB197"/>
<path d="M20.786 20.2101V20.2081C20.6574 20.2162 19.9977 20.2559 18.529 20.2559C17.3543 20.2559 16.5283 20.2222 16.2369 20.2071V20.2111C11.718 20.0107 8.34464 19.2239 8.34464 18.2823C8.34464 17.3403 11.7185 16.5545 16.2369 16.354V19.4269C16.5334 19.4475 17.3795 19.4972 18.5481 19.4972C19.9514 19.4972 20.6574 19.4389 20.7865 19.4269V16.354C25.2969 16.555 28.6627 17.3428 28.6627 18.2808C28.6627 19.2193 25.2954 20.0072 20.7865 20.2081M20.7845 16.0349V13.2831H27.078V9.08984H9.94089V13.2831H16.2349V16.0329C11.1196 16.2681 7.27344 17.281 7.27344 18.4943C7.27344 19.7082 11.1216 20.7211 16.2349 20.9578V29.7729H20.786V20.9568C25.8918 20.7211 29.7304 19.7087 29.7304 18.4964C29.7304 17.284 25.8918 16.2716 20.786 16.0359" fill="white"/>
</svg>
