<svg width="26" height="18" viewBox="0 0 26 18" fill="none" xmlns="http://www.w3.org/2000/svg">
<g clip-path="url(#clip0_2457_18552)">
<path d="M0 0H26V18H0V0Z" fill="white"/>
<path d="M0 0H26L24.3043 9H1.69565L0 0Z" fill="black"/>
<path d="M13.0037 9.00187L7.35156 7.04535L10.2319 6.47287L7.78188 4.79906L10.6539 5.41478L9.00708 2.89498L11.4336 4.60517L10.8406 1.62265L12.4525 4.16691L13.0037 1.17578L13.555 4.16691L15.1668 1.62265L14.5739 4.60517L17.0004 2.89498L15.3535 5.41478L18.2256 4.79906L15.7756 6.47287L18.6559 7.04535L13.0037 9.00187Z" fill="#FCD116"/>
<path d="M1.69531 7.04297H24.304V10.956H1.69531V7.04297Z" fill="#0072C6"/>
<path d="M0 0L13 18L26 0V18H0V0Z" fill="#CE1126"/>
</g>
<defs>
<clipPath id="clip0_2457_18552">
<rect width="26" height="18" rx="4" fill="white"/>
</clipPath>
</defs>
</svg>
