<svg width="26" height="19" viewBox="0 0 26 19" fill="none" xmlns="http://www.w3.org/2000/svg">
<path d="M22 0.0507812H4C1.79086 0.0507812 0 1.84164 0 4.05078V14.0449C0 16.2541 1.79086 18.0449 4 18.0449H22C24.2091 18.0449 26 16.2541 26 14.0449V4.05078C26 1.84164 24.2091 0.0507812 22 0.0507812Z" fill="#002395"/>
<path d="M6 0.0507812H21V18.0449L6 0.0507812Z" fill="#FECB00"/>
<path d="M17.0228 14.5938L17.3609 15.6777L18.3421 15.6345L17.5699 16.3476L17.908 17.4316L17.0927 16.7884L16.3205 17.5015L16.5888 16.3908L15.7734 15.7476L16.7546 15.7044L17.0228 14.5938Z" fill="white"/>
<path d="M20.303 17.783L20.0206 18.0438H17.9216L17.7344 17.896L18.7155 17.8529L18.9838 16.7422L19.3219 17.8262L20.303 17.783Z" fill="white"/>
<path d="M15.1556 12.2891L15.4937 13.373L16.4749 13.3298L15.7027 14.0429L16.0408 15.1269L15.2255 14.4837L14.4533 15.1968L14.7216 14.0861L13.9062 13.4429L14.8874 13.3997L15.1556 12.2891Z" fill="white"/>
<path d="M13.2181 10.0508L13.5562 11.1347L14.5374 11.0916L13.7652 11.8047L14.1033 12.8886L13.288 12.2454L12.5158 12.9585L12.7841 11.8479L11.9688 11.2046L12.9499 11.1614L13.2181 10.0508Z" fill="white"/>
<path d="M11.2963 7.75L11.6344 8.83396L12.6155 8.79078L11.8433 9.50389L12.1814 10.5878L11.3661 9.94461L10.5939 10.6577L10.8622 9.54707L10.0469 8.90383L11.028 8.86065L11.2963 7.75Z" fill="white"/>
<path d="M9.45251 5.53516L9.79062 6.61912L10.7717 6.57593L9.99958 7.28904L10.3377 8.37301L9.52236 7.72977L8.7502 8.44288L9.01846 7.33223L8.20312 6.68899L9.18425 6.64581L9.45251 5.53516Z" fill="white"/>
<path d="M7.53064 3.30078L7.86875 4.38475L8.84987 4.34156L8.07771 5.05467L8.41582 6.13863L7.60048 5.4954L6.82832 6.2085L7.09658 5.09785L6.28125 4.45462L7.26238 4.41144L7.53064 3.30078Z" fill="white"/>
<path d="M5.59313 1.08594L5.93124 2.1699L6.91237 2.12671L6.14021 2.83982L6.47832 3.92378L5.66298 3.28055L4.89082 3.99366L5.15908 2.88301L4.34375 2.23977L5.32487 2.19659L5.59313 1.08594Z" fill="white"/>
<path d="M4.91255 0.0431174L4.18708 0.713083L4.52517 1.79705L3.70985 1.15382L2.93769 1.86694L3.20595 0.756269L2.39062 0.113038L3.37173 0.0698516L3.3782 0.0431174H3.97808L3.97811 0.043186L3.97965 0.0431174L4.95924 0L4.91255 0.0431174Z" fill="white"/>
</svg>
