<svg width="26" height="18" viewBox="0 0 26 18" fill="none" xmlns="http://www.w3.org/2000/svg">
<g clip-path="url(#clip0_2457_18523)">
<path d="M0 0H26V18H0V0Z" fill="#EE1C25"/>
<path d="M14.2441 3.75466C14.126 3.79392 14.0182 3.86093 13.9291 3.95048C13.84 4.04004 13.772 4.14972 13.7303 4.27101C13.6887 4.3923 13.6745 4.52192 13.689 4.64981C13.7034 4.77771 13.7461 4.90042 13.8136 5.00841C13.9175 5.1745 13.985 5.3622 14.0115 5.55831C14.0379 5.75443 14.0227 5.95418 13.9668 6.14352C13.9109 6.33285 13.8158 6.50717 13.688 6.6542C13.5603 6.80124 13.4031 6.91741 13.2274 6.99454C13.0544 7.07052 12.9027 7.1906 12.7862 7.34365C12.6698 7.49671 12.5924 7.67781 12.5612 7.87017C12.5301 8.06253 12.5462 8.25995 12.608 8.44415C12.6698 8.62834 12.7754 8.79336 12.915 8.92393C12.4952 8.6138 12.2088 8.14568 12.1167 7.61936C12.0246 7.09304 12.1341 6.55018 12.4219 6.10652C12.4107 6.09659 12.4 6.0861 12.3899 6.07509C12.0954 6.52559 11.9812 7.0774 12.0715 7.61376C12.1619 8.15012 12.4496 8.62893 12.8739 8.94888C12.2789 8.7014 11.7924 8.23519 11.5071 7.63912C11.2218 7.04305 11.1578 6.35882 11.3271 5.71686C11.4965 5.07489 11.8874 4.52009 12.4253 4.15821C12.9633 3.79633 13.6107 3.65269 14.2441 3.75466Z" fill="white"/>
<path d="M13.0619 5.43258L12.2656 5.79323L13.114 5.98752L12.5376 5.3125L12.6218 6.21042" fill="#EE1C25"/>
<path d="M18.1896 8.57159C18.1179 8.46859 18.0237 8.3844 17.9145 8.32558C17.8052 8.26675 17.6838 8.23487 17.5596 8.23241C17.4354 8.22995 17.3119 8.25697 17.1985 8.31138C17.0852 8.3658 16.9851 8.44613 16.906 8.54614C16.7845 8.69995 16.6321 8.82509 16.4595 8.91276C16.287 9.00043 16.0986 9.04849 15.9075 9.05357C15.7164 9.05865 15.5273 9.02062 15.3535 8.94216C15.1797 8.86369 15.0255 8.74671 14.9016 8.59943C14.7795 8.45435 14.6233 8.34393 14.4474 8.2784C14.2715 8.21287 14.0815 8.19434 13.8951 8.22453C13.7086 8.25472 13.5318 8.33265 13.3809 8.4511C13.23 8.56956 13.1099 8.72471 13.0318 8.9022C13.1908 8.39441 13.5353 7.96701 13.992 7.71115C14.4486 7.45529 14.9812 7.39121 15.4762 7.53256C15.482 7.51853 15.4884 7.50477 15.4955 7.49135C14.9922 7.34561 14.45 7.40799 13.9835 7.66528C13.5171 7.92257 13.1631 8.35459 12.9964 8.86992C13.045 8.21061 13.3275 7.58838 13.7902 7.12183C14.2528 6.65529 14.8633 6.37706 15.5051 6.34019C16.1469 6.30331 16.7753 6.51038 17.2704 6.9219C17.7654 7.33343 18.0926 7.92064 18.1896 8.57159Z" fill="white"/>
<path d="M16.2859 7.94732L15.7128 7.28089L15.7897 8.17378L16.2384 7.39548L15.4354 7.76191" fill="#EE1C25"/>
<path d="M9.02847 12.4698C9.14673 12.5108 9.27221 12.5231 9.39518 12.5058C9.51815 12.4884 9.63528 12.4418 9.73748 12.3697C9.83967 12.2975 9.92418 12.2017 9.98443 12.0897C10.0447 11.9778 10.0791 11.8526 10.0849 11.724C10.0938 11.5262 10.1445 11.3333 10.2334 11.1589C10.3223 10.9845 10.4471 10.8329 10.5992 10.7146C10.7513 10.5964 10.927 10.5144 11.1137 10.4745C11.3005 10.4346 11.494 10.4377 11.6804 10.4836C11.864 10.5288 12.0552 10.5253 12.2362 10.4736C12.4172 10.4219 12.5821 10.3235 12.7158 10.1876C12.8495 10.0517 12.9475 9.88266 13.0009 9.69613C13.0543 9.50959 13.0612 9.31159 13.0211 9.12045C13.1882 9.62875 13.1579 10.1824 12.9366 10.6634C12.7152 11.1444 12.3204 11.5146 11.8363 11.6951C11.8398 11.71 11.8426 11.7251 11.8447 11.7402C12.3381 11.5582 12.7417 11.1836 12.9702 10.6957C13.1986 10.2077 13.2339 9.64463 13.0686 9.12563C13.4137 9.69129 13.5473 10.3665 13.444 11.0226C13.3406 11.6786 13.0076 12.2696 12.5082 12.683C12.0089 13.0963 11.3782 13.303 10.7365 13.2637C10.0947 13.2243 9.48677 12.9418 9.02847 12.4698Z" fill="white"/>
<path d="M10.9357 11.8475L11.7859 12.0466L11.2054 11.3688L11.2945 12.2664L11.7308 11.4918" fill="#EE1C25"/>
<path d="M14.9351 14.0008C15.01 13.8959 15.0609 13.7751 15.0839 13.6479C15.1069 13.5206 15.1013 13.3903 15.0676 13.2671C15.0339 13.1439 14.973 13.031 14.8896 12.9373C14.8062 12.8437 14.7026 12.7717 14.5867 12.7269C14.4086 12.6582 14.2482 12.5495 14.1167 12.4085C13.9853 12.2675 13.886 12.0977 13.8259 11.911C13.7658 11.7243 13.7464 11.5253 13.7689 11.3279C13.7914 11.1305 13.8554 10.9395 13.9563 10.7685C14.0557 10.6 14.113 10.4093 14.1229 10.2141C14.1328 10.0189 14.0949 9.82543 14.0128 9.65167C13.9308 9.4779 13.8071 9.32943 13.6533 9.22001C13.4995 9.11058 13.3206 9.04373 13.1331 9.02564C13.6509 9.01375 14.1478 9.2115 14.5178 9.57673C14.8879 9.94195 15.1018 10.4458 15.1139 10.9807C15.1287 10.9817 15.1433 10.9835 15.1578 10.986C15.1473 10.4414 14.9322 9.92756 14.558 9.55317C14.1838 9.17878 13.6799 8.97325 13.1528 8.98008C13.7794 8.80898 14.4393 8.88088 15.0068 9.18207C15.5743 9.48325 16.0097 9.99266 16.23 10.6132C16.4503 11.2337 16.44 11.922 16.2012 12.5467C15.9624 13.1715 15.5117 13.6891 14.9351 14.0008Z" fill="white"/>
<path d="M14.9693 11.9207L15.4194 11.1387L14.6172 11.5088L15.4651 11.692L14.8954 11.0255" fill="#EE1C25"/>
<path d="M8.58569 6.15508C8.58509 6.28396 8.61309 6.4112 8.66751 6.52691C8.72193 6.64262 8.80131 6.7437 8.89947 6.82228C8.99763 6.90086 9.11193 6.95482 9.23349 6.97999C9.35506 7.00515 9.4806 7.00083 9.60038 6.96736C9.78458 6.91588 9.97734 6.90699 10.1651 6.94129C10.3528 6.97559 10.531 7.05225 10.6871 7.16589C10.8431 7.27952 10.9733 7.42737 11.0684 7.59901C11.1635 7.77066 11.2212 7.96194 11.2374 8.15938C11.2535 8.35387 11.3164 8.54095 11.4205 8.70329C11.5246 8.86563 11.6665 8.99798 11.833 9.08811C11.9995 9.17823 12.1852 9.22321 12.373 9.21887C12.5607 9.21454 12.7445 9.16104 12.9072 9.06331C12.4934 9.38269 11.9762 9.52156 11.4658 9.45034C10.9554 9.37911 10.4922 9.10342 10.1751 8.68204C10.1626 8.69001 10.1496 8.69735 10.1364 8.70402C10.4577 9.13413 10.9276 9.41717 11.4467 9.49325C11.9657 9.56933 12.4931 9.43247 12.9174 9.11164C12.5066 9.62365 11.9292 9.96092 11.2952 10.0592C10.6612 10.1574 10.0149 10.0098 9.47954 9.64435C8.94418 9.27894 8.55719 8.72133 8.39234 8.07783C8.22749 7.43432 8.29632 6.74992 8.58569 6.15508Z" fill="white"/>
<path d="M9.75476 7.83976L9.83852 8.73804L10.2789 7.95938L9.4826 8.32099L10.3307 8.51455" fill="#EE1C25"/>
</g>
<defs>
<clipPath id="clip0_2457_18523">
<rect width="26" height="18" rx="4" fill="white"/>
</clipPath>
</defs>
</svg>
