<svg width="27" height="18" viewBox="0 0 27 18" fill="none" xmlns="http://www.w3.org/2000/svg">
<g clip-path="url(#clip0_2457_18400)">
<path d="M27 0H0V18H27V0Z" fill="#012169"/>
<path d="M0 0L13.5 9L0 0ZM13.5 0L0 9L13.5 0Z" fill="black"/>
<path d="M0 0L13.5 9M13.5 0L0 9" stroke="white" stroke-width="2"/>
<mask id="mask0_2457_18400" style="mask-type:luminance" maskUnits="userSpaceOnUse" x="0" y="0" width="16" height="12">
<path d="M0 0V4.5H15.75V9H13.5L0 0ZM13.5 0H6.75V12H0V9L13.5 0Z" fill="white"/>
</mask>
<g mask="url(#mask0_2457_18400)">
<path d="M0 0L13.5 9L0 0ZM13.5 0L0 9L13.5 0Z" fill="black"/>
<path d="M0 0L13.5 9M13.5 0L0 9" stroke="#C8102E" stroke-width="2"/>
</g>
<path d="M6.75 0V12V0ZM0 4.5H15.75H0Z" fill="black"/>
<path d="M6.75 0V12M0 4.5H15.75" stroke="white" stroke-width="2"/>
<path d="M6.75 0V12V0ZM0 4.5H15.75H0Z" fill="black"/>
<path d="M6.75 0V12M0 4.5H15.75" stroke="#C8102E"/>
<path d="M13.5 0V9H0V18H27V0H13.5Z" fill="#012169"/>
<path d="M18.0986 10.832C17.8143 11.0902 17.5432 11.4675 17.4765 11.8085C17.289 12.7678 17.0402 12.9812 16.6562 12.7755C16.6562 13.2909 17.0775 13.3299 17.2624 13.0289C17.2624 13.5119 17.4259 13.931 17.7947 14.2883C17.9502 14.4388 17.9796 14.3359 17.9058 14.1692C17.832 14.0025 17.832 13.4642 17.6845 13.1556C17.9209 13.3375 18.2684 13.2346 18.2391 12.7354C17.936 12.926 17.6347 12.9184 17.6036 12.4658C17.5654 11.9352 17.7583 11.1645 18.0986 10.832Z" fill="#F7E017" stroke="black" stroke-width="0.01" stroke-linejoin="round"/>
<path d="M17.735 7.01848C17.7554 6.82795 17.7172 6.63266 17.5874 6.50976C17.3368 6.2735 17.0915 6.35162 16.9084 6.54215C16.6347 6.38401 16.4899 6.94513 16.1797 6.85082C16.2312 7.03277 16.313 7.11185 16.4676 7.04897C16.305 7.20711 16.4676 7.39764 16.2757 7.58722C16.6232 7.70631 16.808 7.50053 16.7929 7.14328C16.9262 7.26999 17.1324 7.26237 17.2435 7.11947C17.0586 7.05564 17.0577 6.88416 17.1324 6.72316C17.2435 6.48595 17.7643 6.49547 17.735 7.01848Z" fill="#F7E017" stroke="black" stroke-width="0.01" stroke-linejoin="round"/>
<path d="M18.5397 9.77064C18.1478 9.99261 17.4315 9.89735 17.3648 9.35052C17.2982 8.80369 17.7932 8.55791 17.9265 8.48741C18.1336 8.37595 18.2962 8.5741 18.2295 8.80465C18.4588 8.71795 18.5104 8.43215 18.3993 8.26639C18.7023 8.29021 18.9832 8.04442 19.1014 7.69575C18.9947 7.80435 18.705 7.731 18.4668 7.7148C18.5406 7.62811 18.5397 7.45853 18.5175 7.37089C18.2669 7.64716 17.9043 7.52046 17.4244 8.32069C17.4981 8.04347 17.6385 7.48902 17.7203 7.12415C17.7283 7.08795 17.7345 7.05175 17.739 7.01459C17.7674 6.49158 17.2475 6.48206 17.1364 6.72022C17.2582 6.86693 17.1942 7.03841 17.1506 7.29849C17.0991 7.60715 16.988 8.32069 16.892 8.55791C16.8627 8.18541 16.6334 8.1616 16.589 7.97964C16.5223 8.02727 16.4859 8.15398 16.5001 8.24067C16.4183 8.1454 16.1375 8.26449 16.0344 8.12159C15.9233 8.3588 16.1011 8.59696 16.2859 8.69985C16.1784 8.70747 16.1526 8.84656 16.0344 8.84656C16.1935 9.04472 16.3561 9.12379 16.5445 9.13998C16.7329 9.15618 16.8734 9.23144 16.988 9.47627C17.1729 9.87353 17.8767 10.1307 18.5397 9.77064Z" fill="#337321" stroke="black" stroke-width="0.01" stroke-linejoin="round"/>
<path d="M19.5199 9.29292C19.2986 9.95026 18.6925 10.418 18.4188 10.4895C17.9531 10.6105 17.0039 11.1049 16.7497 11.3592C16.7097 11.3497 16.6724 11.3345 16.6449 11.3135C16.5196 11.2183 16.4156 10.9096 16.6378 10.6476C17.3327 9.95026 18.0793 10.2513 18.545 9.77592C18.153 9.99789 17.4367 9.90263 17.3701 9.3558C17.7913 9.47488 18.553 9.4825 19.1582 8.78516C19.239 8.88138 19.4754 9.18242 19.5199 9.29292Z" fill="#F7E017" stroke="black" stroke-width="0.01" stroke-linejoin="round"/>
<path d="M18.0944 10.8361C17.7434 11.1552 17.5612 11.9393 17.5985 12.4699C17.6092 12.6176 17.6474 12.7176 17.7061 12.7786C17.7319 12.4775 17.9274 11.6992 18.4259 11.3524C18.8472 11.059 19.5049 10.4017 19.7493 9.64908C19.7048 9.51475 19.6311 9.41948 19.4906 9.32422C19.248 10.0349 18.6001 10.376 18.0944 10.8361Z" fill="#337321" stroke="black" stroke-width="0.01" stroke-linejoin="round"/>
<path d="M19.293 8.98617C19.1677 9.18813 18.8825 9.46536 18.6096 9.57682C18.6683 9.50537 18.6869 9.41487 18.6905 9.33961C18.343 9.4825 17.648 9.46631 17.3672 9.3558C17.7884 9.47488 18.5501 9.4825 19.1553 8.78516C19.2157 8.85565 19.2673 8.91853 19.293 8.98617Z" fill="#316D3A" stroke="black" stroke-width="0.01" stroke-linejoin="round"/>
<path d="M16.6337 10.6445C16.0685 11.2114 16.4417 11.7058 16.663 11.8173C16.6044 12.2136 16.951 12.1659 16.9439 12.4984C17.0843 12.4117 17.1216 12.1812 17.0994 11.9992C17.2771 12.205 17.7277 11.9754 17.8237 12.3555C17.8832 11.9354 17.5802 11.5162 17.2034 11.5553C17.3589 11.4048 17.27 11.159 17.1225 11.0961C17.0932 11.4048 16.7679 11.4048 16.6417 11.3104C16.5155 11.2152 16.4115 10.9065 16.6337 10.6445Z" fill="#337321" stroke="black" stroke-width="0.01" stroke-linejoin="round"/>
<path d="M17.8593 14.2519C17.798 14.29 17.8025 14.3748 17.8407 14.43C17.918 14.5405 17.7856 14.7921 18.0362 14.8464C18.11 14.8625 18.1668 14.814 18.1953 14.7235C18.2726 14.4739 18.0255 14.4462 18.0033 14.3272C17.9811 14.2081 17.9109 14.2205 17.8593 14.2519Z" fill="#F7E017" stroke="black" stroke-width="0.01" stroke-linejoin="round"/>
<path d="M18.07 14.717C17.9874 14.758 17.9145 14.8161 17.9482 15.101C17.9616 15.2191 17.9554 15.5049 17.8594 15.5087C17.918 15.5401 18.0442 15.5744 18.0958 15.5011C18.1455 15.5906 18.2584 15.5649 18.3028 15.4534C18.3615 15.5049 18.4433 15.4182 18.4433 15.3429C18.4948 15.3782 18.5988 15.3267 18.5721 15.1572C18.6352 15.181 18.7161 15.1334 18.7454 15.0895C18.653 15.0695 18.4202 14.9352 18.3651 14.8285C18.31 14.7209 18.166 14.6694 18.07 14.717Z" fill="#F7E017" stroke="black" stroke-width="0.01" stroke-linejoin="round"/>
<path d="M16.7891 6.70197C16.8264 6.6429 16.8682 6.58765 16.9144 6.53906" stroke="black" stroke-width="0.01" stroke-linejoin="round"/>
<path d="M18.1953 7.75113C18.2602 7.71112 18.3597 7.70635 18.4699 7.71397" stroke="black" stroke-width="0.01" stroke-linejoin="round"/>
<path d="M18.0969 15.4982C18.0711 15.4582 18.0613 15.2924 18.08 15.1914" stroke="black" stroke-width="0.01" stroke-linejoin="round"/>
<path d="M18.2956 15.4488C18.2547 15.4155 18.1774 15.3002 18.1641 15.1992" stroke="black" stroke-width="0.01" stroke-linejoin="round"/>
<path d="M18.4397 15.3398C18.3881 15.3141 18.2619 15.1398 18.2344 15.0273" stroke="black" stroke-width="0.01" stroke-linejoin="round"/>
<path d="M18.5675 15.154C18.5061 15.1397 18.3195 15.0092 18.2422 14.8711" stroke="black" stroke-width="0.01" stroke-linejoin="round"/>
<path d="M21.976 10.6523C22.8852 11.4688 22.9439 12.1175 22.8034 12.4986C22.7297 12.1423 22.3529 11.5879 21.9609 11.445L21.976 10.6523Z" fill="#F7E017" stroke="black" stroke-width="0.01" stroke-linejoin="round"/>
<path d="M20.3481 10.1953H22.0331C22.0331 10.1953 22.0331 10.6707 22.0331 12.334C22.0331 14.1565 21.0875 15.2339 20.1259 15.8036C19.1652 15.233 18.2188 14.1555 18.2188 12.334C18.2188 10.6707 18.2188 10.1953 18.2188 10.1953H19.4016C19.4034 10.3058 19.4132 10.4725 19.5349 10.6393C19.814 10.6097 20.1295 10.3858 20.3481 10.1953Z" fill="#337321" stroke="black" stroke-width="0.01" stroke-linejoin="round"/>
<path d="M22.0314 10.1953C22.0314 10.1953 22.0314 10.6707 22.0314 12.334C22.0314 12.8837 21.9452 13.3667 21.7985 13.7868L20.1251 10.4954L18.4516 13.7868C18.305 13.3658 18.2188 12.8837 18.2188 12.334C18.2188 10.6707 18.2188 10.1953 18.2188 10.1953H22.0314Z" fill="#006EC7" stroke="black" stroke-width="0.01" stroke-linejoin="round"/>
<path d="M21.8545 13.6269C21.8252 13.7241 21.771 13.8813 21.7301 13.9784L20.1304 10.7908L18.5307 13.9784C18.4889 13.8813 18.4356 13.7241 18.4062 13.6269L20.1313 10.1992L21.8545 13.6269Z" fill="#F7E017"/>
<path d="M20.8918 14.7978C20.9363 14.8216 21.018 14.8655 21.0545 14.8817C21.1433 14.6911 21.1575 14.4225 21.1282 14.1843C21.0322 14.4463 20.707 14.4377 20.6181 14.5959C20.6723 14.6254 20.723 14.6635 20.7665 14.6968C20.6554 14.8159 20.3959 15.015 20.2484 15.0627V13.3631C20.2484 13.244 20.2111 13.145 20.2111 13.0459C20.2111 13.0459 20.2111 12.7734 20.2111 12.6943C20.2111 12.6153 20.1959 12.5 20.1302 12.5C20.0635 12.5 20.0493 12.6153 20.0493 12.6943C20.0493 12.7734 20.0493 13.0459 20.0493 13.0459C20.0493 13.145 20.012 13.2602 20.012 13.3631V15.0627C19.9311 14.8093 19.6121 14.8959 19.4645 14.6425C19.5223 14.6273 19.5836 14.6225 19.6423 14.6349C19.5312 14.231 19.2281 14.1995 19.1695 14.0805C19.1695 14.2472 19.1028 14.6349 19.2068 14.8016C19.2299 14.7721 19.2646 14.7407 19.3072 14.714C19.4325 15.0074 19.9978 15.0084 20.1311 15.4914C20.2377 15.3132 20.6225 15.1074 20.8918 14.7978Z" fill="#F7E017" stroke="black" stroke-width="0.01" stroke-linejoin="round"/>
<path d="M20.1361 13.3836C20.2614 13.3836 20.6604 13.3398 20.8053 13.3398C20.8426 13.3398 20.8737 13.2798 20.8737 13.2055C20.8737 13.1312 20.8435 13.0712 20.8053 13.0712C20.6613 13.0712 20.2623 13.0273 20.1361 13.0273C20.0108 13.0273 19.6117 13.0712 19.4669 13.0712C19.4295 13.0712 19.3984 13.1312 19.3984 13.2055C19.3984 13.2798 19.4287 13.3398 19.4669 13.3398C19.6117 13.3398 20.0108 13.3836 20.1361 13.3836Z" fill="#F7E017" stroke="black" stroke-width="0.01" stroke-linejoin="round"/>
<path d="M20.0487 12.6913C20.022 12.6684 19.9873 12.6541 19.9482 12.6541C19.8647 12.6541 19.7963 12.7208 19.7963 12.8028C19.7963 12.8847 19.8638 12.9514 19.9482 12.9514C20.0318 12.9514 20.0993 12.8847 20.0993 12.8028C20.0993 12.7389 20.1855 12.7389 20.1855 12.8028C20.1855 12.9314 20.0789 13.0352 19.9482 13.0352C19.8167 13.0352 19.7109 12.9314 19.7109 12.8028C19.7109 12.6742 19.8176 12.5703 19.9482 12.5703C19.9873 12.5703 20.0247 12.5798 20.0575 12.596C20.0549 12.617 20.0487 12.657 20.0487 12.6913Z" fill="#F7E017" stroke="black" stroke-width="0.01" stroke-linejoin="round"/>
<path d="M19.4609 13.3429C19.4983 13.3429 19.5285 13.2829 19.5285 13.2085C19.5285 13.1342 19.4983 13.0742 19.4609 13.0742" fill="#F7E017"/>
<path d="M19.4609 13.3429C19.4983 13.3429 19.5285 13.2829 19.5285 13.2085C19.5285 13.1342 19.4983 13.0742 19.4609 13.0742" stroke="black" stroke-width="0.01" stroke-linejoin="round"/>
<path d="M19.5234 13.3429C19.5608 13.3429 19.591 13.2829 19.591 13.2085C19.591 13.1342 19.5608 13.0742 19.5234 13.0742" fill="#F7E017"/>
<path d="M19.5234 13.3429C19.5608 13.3429 19.591 13.2829 19.591 13.2085C19.591 13.1342 19.5608 13.0742 19.5234 13.0742" stroke="black" stroke-width="0.01" stroke-linejoin="round"/>
<path d="M19.875 13.3708C19.9203 13.3708 19.9568 13.2984 19.9568 13.2088C19.9568 13.1193 19.9203 13.0469 19.875 13.0469" fill="#F7E017"/>
<path d="M19.875 13.3708C19.9203 13.3708 19.9568 13.2984 19.9568 13.2088C19.9568 13.1193 19.9203 13.0469 19.875 13.0469" stroke="black" stroke-width="0.01" stroke-linejoin="round"/>
<path d="M19.9688 13.3782C20.0159 13.3782 20.0541 13.302 20.0541 13.2086C20.0541 13.1153 20.0159 13.0391 19.9688 13.0391" fill="#F7E017"/>
<path d="M19.9688 13.3782C20.0159 13.3782 20.0541 13.302 20.0541 13.2086C20.0541 13.1153 20.0159 13.0391 19.9688 13.0391" stroke="black" stroke-width="0.01" stroke-linejoin="round"/>
<path d="M20.25 13.3781C20.298 13.3781 20.3362 13.3009 20.3362 13.2066C20.3362 13.1123 20.2971 13.0352 20.25 13.0352" fill="#F7E017"/>
<path d="M20.25 13.3781C20.298 13.3781 20.3362 13.3009 20.3362 13.2066C20.3362 13.1123 20.2971 13.0352 20.25 13.0352" stroke="black" stroke-width="0.01" stroke-linejoin="round"/>
<path d="M20.3359 13.3745C20.383 13.3745 20.4213 13.3002 20.4213 13.2087C20.4213 13.1173 20.383 13.043 20.3359 13.043" fill="#F7E017"/>
<path d="M20.3359 13.3745C20.383 13.3745 20.4213 13.3002 20.4213 13.2087C20.4213 13.1173 20.383 13.043 20.3359 13.043" stroke="black" stroke-width="0.01" stroke-linejoin="round"/>
<path d="M20.7422 13.3447C20.7804 13.3447 20.8115 13.2837 20.8115 13.2075C20.8115 13.1313 20.7804 13.0703 20.7422 13.0703" fill="#F7E017"/>
<path d="M20.7422 13.3447C20.7804 13.3447 20.8115 13.2837 20.8115 13.2075C20.8115 13.1313 20.7804 13.0703 20.7422 13.0703" stroke="black" stroke-width="0.01" stroke-linejoin="round"/>
<path d="M19.3047 14.715C19.35 14.6855 19.4051 14.6588 19.4629 14.6445L19.3047 14.715Z" fill="#F7E017"/>
<path d="M19.3047 14.715C19.35 14.6855 19.4051 14.6588 19.4629 14.6445" stroke="black" stroke-width="0.01" stroke-linejoin="round"/>
<path d="M20.8092 14.7326C20.7958 14.7221 20.7807 14.7116 20.7656 14.6992L20.8092 14.7326Z" fill="#F7E017"/>
<path d="M20.8092 14.7326C20.7958 14.7221 20.7807 14.7116 20.7656 14.6992" stroke="black" stroke-width="0.01" stroke-linejoin="round"/>
<path d="M20.8906 14.8023C20.9937 14.6832 21.0799 14.5489 21.1279 14.3945L20.8906 14.8023Z" fill="#F7E017"/>
<path d="M20.8906 14.8023C20.9937 14.6832 21.0799 14.5489 21.1279 14.3945" stroke="black" stroke-width="0.01" stroke-linejoin="round"/>
<path d="M19.7891 11.7066C19.7891 11.6676 19.8184 11.6514 19.853 11.6238C19.8948 11.5904 19.9117 11.5742 19.949 11.5742H20.4343C20.4698 11.5742 20.4787 11.5837 20.4787 11.6199V12.3259C20.4787 12.3611 20.4707 12.3716 20.4343 12.3716H19.7891V11.699" fill="white"/>
<path d="M19.7891 11.7066C19.7891 11.6676 19.8184 11.6514 19.853 11.6238C19.8948 11.5904 19.9117 11.5742 19.949 11.5742H20.4343C20.4698 11.5742 20.4787 11.5837 20.4787 11.6199V12.3259C20.4787 12.3611 20.4707 12.3716 20.4343 12.3716H19.7891V11.699" stroke="black" stroke-width="0.01" stroke-linejoin="round"/>
<path d="M20.318 12.4323C20.382 12.4323 20.3704 12.4304 20.4149 12.3827C20.462 12.3332 20.4575 12.337 20.4575 12.2913V11.6444C20.4575 11.6111 20.4495 11.6016 20.4166 11.6016H19.9678C19.9323 11.6016 19.9172 11.6168 19.879 11.6482C19.847 11.674 19.8203 11.6902 19.8203 11.7264V12.4323H20.318Z" fill="#E5E5E5" stroke="black" stroke-width="0.01" stroke-linejoin="round"/>
<path d="M20.3623 12.4167C20.3623 12.4519 20.3543 12.4624 20.3179 12.4624H19.8326C19.7962 12.4624 19.7891 12.4529 19.7891 12.4167V11.7098C19.7891 11.6745 19.7971 11.6641 19.8326 11.6641H20.3179C20.3543 11.6641 20.3623 11.6736 20.3623 11.7098V12.4167Z" fill="white" stroke="black" stroke-width="0.01" stroke-linejoin="round"/>
<path d="M21.2956 9.77876C21.3898 9.89213 21.4209 10.0436 21.3693 10.1922H21.2289C21.2876 10.0017 21.2511 9.82068 20.9996 9.79686C20.6237 9.76161 20.1864 10.5418 19.5288 10.6362C19.3368 10.3904 19.3466 9.92261 19.591 9.70064C19.4648 9.311 19.1991 8.88231 19.0142 8.69749C18.8934 8.67653 18.7538 8.66605 18.6641 8.67177C18.76 8.4498 19.0338 8.2164 19.256 8.12113C19.2915 8.06492 19.3306 8.01062 19.3662 7.96203C19.3884 7.65718 20.741 7.80008 21.029 7.98966C21.0298 8.33167 21.1552 9.4701 21.2956 9.77876Z" fill="#96877D" stroke="black" stroke-width="0.01" stroke-linejoin="round"/>
<path d="M19.6673 9.98867C19.6353 9.4609 19.4362 9.02553 19.1562 8.72925C19.2896 8.76927 19.5624 8.76927 19.7473 8.62637C19.9908 8.45203 20.6271 8.14718 20.8599 8.27769C20.8786 8.32152 20.8893 8.42059 20.875 8.48347C20.8199 8.32533 20.2058 8.57016 20.0325 8.64542C19.8663 8.7283 19.7926 8.83976 19.8512 9.08936C19.7553 9.00267 19.7881 8.91883 19.6886 8.85596C19.7286 8.95885 19.7615 9.14461 19.773 9.29514C19.7357 9.18844 19.6699 8.95885 19.5251 8.82357C19.6504 9.0846 19.7597 9.7124 19.7081 10.0458C19.8077 10.0458 20.0281 9.94104 20.1161 9.86578C20.0388 9.98486 19.8148 10.0677 19.6708 10.0992C19.6059 10.1821 19.5615 10.3964 19.5651 10.5155C19.5553 10.3688 19.5979 10.0115 19.6673 9.98867Z" fill="black"/>
<path d="M21.3066 9.78097C21.184 9.63522 20.9556 9.55615 20.6641 9.64093C20.7085 9.61712 20.8045 9.5771 20.8898 9.56186C20.8791 9.47898 20.8089 9.12173 20.7974 9.03504L20.8791 8.99979C20.92 9.21414 20.9716 9.45897 21.0044 9.55805C21.0302 9.56567 21.0898 9.57806 21.1413 9.60568C21.1191 9.5228 20.9938 8.92453 20.9973 8.8607L21.1084 8.79688C21.152 9.12173 21.2222 9.5933 21.3066 9.78097Z" fill="black"/>
<path d="M21.2367 10.1934C21.2954 10.0028 21.2589 9.82182 21.0074 9.798C20.8128 9.7799 20.6013 9.98282 20.3516 10.1934H21.2367Z" fill="#96877D" stroke="black" stroke-width="0.01" stroke-linejoin="round"/>
<path d="M19.6038 8.48417C19.4927 8.50037 19.2456 8.47655 19.1194 8.43273C19.1265 8.39653 19.1398 8.36032 19.1558 8.32031C19.0785 8.37557 18.931 8.48417 18.875 8.55943C19.0527 8.59944 19.4189 8.61945 19.6038 8.48417Z" fill="#96877D" stroke="black" stroke-width="0.01" stroke-linejoin="round"/>
<path d="M19.6016 9.70312C19.6424 9.82983 19.6691 9.95177 19.6727 10.0604" stroke="black" stroke-width="0.01" stroke-linejoin="round"/>
<path d="M19.262 8.12109C19.1954 8.22589 19.1367 8.3383 19.1172 8.43357C19.2425 8.47739 19.4905 8.50121 19.6015 8.48501" stroke="black" stroke-width="0.01" stroke-linejoin="round"/>
<path d="M19.0234 8.69906C19.0714 8.70764 19.1159 8.71716 19.1541 8.72859C19.2874 8.76861 19.5602 8.76861 19.7451 8.62571C19.9299 8.48281 20.4321 8.03982 21.0017 7.99219" stroke="black" stroke-width="0.01" stroke-linejoin="round"/>
<path d="M18.875 8.56321C19.0527 8.60322 19.4189 8.62228 19.6029 8.48795C20.0312 8.17548 20.4454 7.99257 20.8595 7.96875" stroke="black" stroke-width="0.01" stroke-linejoin="round"/>
<path d="M21.9766 10.6523C22.5969 11.1115 23.0555 11.5555 23.1888 12.2681C23.3221 12.9806 23.5736 13.1712 23.8838 12.9806C23.81 13.3922 23.4252 13.4398 23.1008 13.1235C23.1301 13.5989 22.9533 14.1696 22.4947 14.3753C22.4654 14.0905 22.6413 13.8647 22.5907 13.6304C22.5685 13.5275 22.5613 13.2893 22.6867 13.1788C22.4431 13.2655 22.0583 13.0997 22.0219 12.711C22.3027 12.8539 22.6644 12.8778 22.8049 12.4967C22.9444 12.1175 22.8857 11.4678 21.9766 10.6523Z" fill="#337321" stroke="black" stroke-width="0.01" stroke-linejoin="round"/>
<path d="M22.7578 6.9469C22.9498 6.40865 23.4528 6.4639 23.6225 6.69349C24.1176 6.39245 24.1842 7.07361 24.6055 6.93928C24.5984 7.06599 24.4579 7.18507 24.3024 7.17649C24.465 7.33464 24.2358 7.5728 24.5832 7.71475C24.2873 7.87289 23.874 7.70713 23.763 7.27081C23.667 7.47658 23.3195 7.47658 23.1791 7.31082C23.4821 7.22413 23.4599 6.92309 23.2902 6.804C23.1186 6.68397 22.8165 6.73255 22.7578 6.9469Z" fill="#337321" stroke="black" stroke-width="0.01" stroke-linejoin="round"/>
<path d="M21.264 8.1307C21.4018 8.60703 21.687 9.05097 21.9945 9.35296C22.3491 9.70163 22.885 9.61399 23.1845 9.28151C23.1916 9.94456 22.5509 9.99601 22.1945 9.78833C22.0372 9.69687 21.9101 9.7445 22.0612 9.89121C22.2905 10.1132 22.7917 10.278 23.3836 10.4142C24.4181 10.6514 24.0493 11.5317 23.7462 11.5231C23.8333 11.5212 23.9044 11.424 23.7791 11.3031C22.8815 10.4371 21.056 10.7781 21.0854 8.84519C20.8934 9.35201 20.1024 9.15385 20.4722 8.55177C20.5904 8.65466 20.7974 8.66228 20.857 8.50414C20.9032 8.38125 20.873 8.1669 20.6659 7.98208C20.6997 7.97922 20.7734 7.98208 20.7654 7.89062C20.7743 7.94397 20.8196 8.02305 20.9361 7.99637C20.969 8.05258 21.0045 8.08973 21.0516 8.06973C21.0605 8.06591 21.0889 8.05067 21.0774 7.99446C21.0863 8.10116 21.2027 8.13832 21.264 8.1307Z" fill="#337321" stroke="black" stroke-width="0.01" stroke-linejoin="round"/>
<path d="M22.1899 9.78719C22.6182 10.0882 23.1035 10.0882 23.5496 9.53378C23.69 9.35944 23.9113 9.20892 24.0668 9.19273C24.2224 9.17653 24.2144 9.01839 24.3326 8.98695C24.2588 8.96313 24.2295 8.86787 24.1184 8.88025C24.3957 8.77737 24.3139 8.5392 24.4508 8.42488C24.3397 8.4687 24.1664 8.29056 24.0073 8.51634C24.0482 8.41345 23.9922 8.29055 23.9522 8.24292C23.9673 8.362 23.7345 8.38582 23.69 8.68686C23.6651 8.85548 23.5789 8.845 23.5647 8.58397C23.5541 8.39249 23.4687 7.86281 23.3656 7.59416C23.2626 7.32456 23.2386 6.95492 23.379 6.89967C23.3576 6.86156 23.3283 6.82727 23.2919 6.8025C23.1204 6.68246 22.8191 6.73105 22.7595 6.9454C22.5676 7.48365 23.107 7.79327 23.0626 8.37915C22.9817 7.94379 22.3232 7.83232 22.3312 7.40458C22.117 7.50747 22.1463 7.698 22.2281 7.84852C22.0948 7.62655 21.7917 7.99142 21.5331 7.69038C21.5038 8.08669 21.829 8.23721 22.0948 8.25245C21.9615 8.50586 22.1392 8.72021 22.3161 8.7907C22.3232 8.34676 23.1719 8.52872 23.1808 9.2899C23.1879 9.93771 22.5374 9.99296 22.1899 9.78719Z" fill="#F7E017" stroke="black" stroke-width="0.01" stroke-linejoin="round"/>
<path d="M23.3867 10.4141C24.4212 10.6513 24.0524 11.5315 23.7493 11.523C23.5565 11.5182 23.3725 11.3448 23.361 11.1943C23.1397 11.321 23.1983 11.5706 23.3681 11.6697C22.9024 11.6106 22.7069 11.9393 22.6953 12.2994C22.7806 12.1327 23.0392 12.1212 23.1352 12.1565C23.2312 12.1917 23.4792 12.2117 23.5787 12.0927C23.4969 12.1679 23.6302 12.3422 23.5156 12.4766C23.904 12.4604 24.0737 12.0726 24.0071 11.9021C24.5101 11.4125 24.4141 10.6122 23.3867 10.4141Z" fill="#F7E017" stroke="black" stroke-width="0.01" stroke-linejoin="round"/>
<path d="M22.5954 14.1795C22.6629 14.2243 22.654 14.3195 22.6087 14.3796C22.5172 14.4996 22.6549 14.7864 22.3732 14.8349C22.2896 14.8492 22.2283 14.7921 22.2008 14.6901C22.1243 14.4081 22.4016 14.3891 22.431 14.2567C22.4612 14.1252 22.5385 14.1414 22.5954 14.1795Z" fill="#F7E017" stroke="black" stroke-width="0.01" stroke-linejoin="round"/>
<path d="M22.3399 14.6916C22.4306 14.7411 22.5088 14.8097 22.4608 15.126C22.4404 15.2575 22.4359 15.5766 22.5435 15.5852C22.4759 15.6176 22.3346 15.649 22.2795 15.5652C22.22 15.6623 22.0955 15.6281 22.0502 15.5023C21.9818 15.5566 21.8947 15.4556 21.8983 15.3718C21.8387 15.4089 21.7258 15.347 21.7614 15.1584C21.6903 15.1822 21.6014 15.125 21.5703 15.0755C21.6743 15.0574 21.9391 14.9183 22.0058 14.8011C22.0716 14.6849 22.2342 14.6344 22.3399 14.6916Z" fill="#F7E017" stroke="black" stroke-width="0.01" stroke-linejoin="round"/>
<path d="M22.2812 15.5647C22.3115 15.5218 22.3292 15.336 22.3124 15.2227" stroke="black" stroke-width="0.01" stroke-linejoin="round"/>
<path d="M22.0469 15.5029C22.094 15.4677 22.1846 15.3429 22.2033 15.2305" stroke="black" stroke-width="0.01" stroke-linejoin="round"/>
<path d="M21.8906 15.3714C21.9493 15.3447 22.0968 15.156 22.1324 15.0312" stroke="black" stroke-width="0.01" stroke-linejoin="round"/>
<path d="M21.7578 15.1604C21.8262 15.148 22.0404 15.0108 22.132 14.8594" stroke="black" stroke-width="0.01" stroke-linejoin="round"/>
<path d="M21.0785 8.84766C21.066 9.65932 21.3806 10.0709 21.817 10.3376C21.6553 10.2338 21.7255 9.87748 21.5068 9.76221C21.5584 9.7584 21.6402 9.83747 21.769 9.80603C21.7059 9.65551 21.6028 9.42592 21.3629 9.39448C21.426 9.38686 21.5628 9.41068 21.6508 9.37448C21.5255 9.16775 21.1931 9.26683 21.0785 8.84766Z" fill="#F7E017" stroke="black" stroke-width="0.01" stroke-linejoin="round"/>
<path d="M21.0042 8.07554C20.9775 8.06601 20.9553 8.03743 20.9331 8.00028C20.8166 8.02695 20.7713 7.94788 20.7624 7.89453C20.7695 7.98599 20.6967 7.98218 20.662 7.98503C20.87 8.16985 20.9002 8.3842 20.854 8.50709C20.7944 8.66523 20.5882 8.65761 20.4692 8.55473C20.4541 8.89102 20.8611 9.00248 21.0086 8.57854C21.0086 8.64999 21.0939 8.64237 21.1161 8.73668C21.221 8.55473 21.141 8.29274 21.0042 8.07554Z" fill="#F7E017" stroke="black" stroke-width="0.01" stroke-linejoin="round"/>
<path d="M20.3578 6.46643C20.1729 6.28447 20.0876 5.97962 20.0956 5.80528C20.1027 5.63095 20.1694 5.44041 20.4058 5.52044C20.332 5.52044 20.3836 5.67858 20.3062 5.69477C20.3693 5.71859 20.4538 5.66334 20.4653 5.62714C20.4804 5.68239 20.5764 5.66715 20.5835 5.73002C20.6208 5.69858 20.58 5.54425 20.5249 5.51186C20.5657 5.48805 20.588 5.36515 20.5693 5.30609C20.532 5.31371 20.4769 5.36992 20.4662 5.44899C20.4849 5.38516 20.4626 5.22702 20.3587 5.2032C20.3293 5.24702 20.3213 5.35372 20.3622 5.41279C20.2662 5.38897 20.1258 5.45661 20.092 5.5433C20.0992 5.43851 20.1134 5.28894 20.1738 5.19463C20.1943 5.16319 20.1445 5.10793 20.1054 5.18319C20.0334 5.03267 19.8414 4.9536 19.7561 5.02886C19.6708 5.10412 19.557 4.99362 19.4868 5.11175C19.4166 5.23083 19.1784 5.24321 19.1909 5.36896C19.198 5.44422 19.1811 5.56045 19.1464 5.60237C19.0611 5.70525 19.1873 5.78051 19.2095 5.87197C19.1944 5.57093 19.6415 4.98504 20.0894 5.21463C20.0485 5.28989 20.013 5.44041 20.0005 5.62237C19.9818 5.89197 20.0192 6.27209 20.2627 6.49406L20.3578 6.46643Z" fill="#337321" stroke="black" stroke-width="0.01" stroke-linejoin="round"/>
<path d="M20.4844 5.52526C20.4818 5.45381 20.5973 5.3614 20.7519 5.36331C20.9386 5.36522 21.0825 5.54717 21.2318 5.53003C21.3811 5.51193 21.3074 5.60148 21.2763 5.62529C21.2452 5.64911 21.2265 5.68436 21.2372 5.72818C21.2478 5.772 21.2292 5.80058 21.1687 5.75962C21.0354 5.67007 20.903 5.79487 20.727 5.72627C20.5768 5.6653 20.4889 5.63196 20.4844 5.52526Z" fill="#C8102E" stroke="black" stroke-width="0.01" stroke-linejoin="round"/>
<path d="M19.7251 7.39145C19.6514 7.14185 19.3705 6.86843 19.2337 6.80556L19.2266 6.67123C19.3003 6.6398 19.4781 6.48928 19.5589 6.40544C20.1135 6.69029 20.8671 6.28636 21.2146 5.86719L21.3479 5.95388L21.2813 6.04915L21.2111 6.00913C21.1258 6.11964 20.8085 6.43974 20.7125 6.50738C20.8414 6.54262 21.0182 6.56644 21.0671 6.56358C21.3773 6.32542 21.6208 6.11202 21.739 6.09583L21.8385 6.23873L21.7496 6.30636L21.6794 6.26254C21.3471 6.55596 20.9702 7.1971 20.8218 7.62485C20.6156 7.57721 19.8762 7.60865 19.7251 7.39145Z" fill="#96877D" stroke="black" stroke-width="0.01" stroke-linejoin="round"/>
<path d="M20.7133 6.51162C20.6653 6.49828 20.6244 6.48399 20.5986 6.46875C20.5391 6.52782 20.3915 6.57926 20.2031 6.58783" stroke="black" stroke-width="0.01" stroke-linejoin="round"/>
<path d="M19.7571 7.30758C19.7074 7.01225 19.7865 6.68549 19.9269 6.58641C20.2335 6.80457 20.7587 6.80457 21.0689 6.56641" stroke="black" stroke-width="0.01" stroke-linejoin="round"/>
<path d="M19.7578 7.14933C19.9942 7.14171 20.5079 7.18458 20.6332 7.20459C20.7585 7.22459 20.9691 7.27985 20.9398 7.34749" stroke="black" stroke-width="0.01" stroke-linejoin="round"/>
<path d="M19.8644 7.10965L19.9328 7.03725L19.8644 6.96484L19.7969 7.03629L19.8644 7.10965Z" stroke="black" stroke-width="0.01" stroke-linejoin="round"/>
<path d="M20.0198 5.6334C19.9345 5.5067 19.7008 5.46669 19.6501 5.63721C19.6279 5.71247 19.595 5.79155 19.539 5.82775C19.4839 5.86299 19.4964 5.9716 19.5204 6.01828C19.579 6.13355 19.5275 6.24406 19.6421 6.31932C19.6421 6.22786 19.7674 6.13355 19.875 6.10973C19.9825 6.08592 20.1443 5.98303 20.1665 5.86776C20.1896 5.75153 20.2269 5.65627 20.0198 5.6334Z" fill="#337321" stroke="black" stroke-width="0.01" stroke-linejoin="round"/>
<path d="M19.4961 6.77344H19.5255L19.5264 6.98969C19.5326 6.9916 19.5388 6.99541 19.5441 6.99922L19.7183 6.89157L19.7334 6.91919L19.5583 7.0278C19.5592 7.03447 19.5601 7.04209 19.5592 7.04876L19.7334 7.15641L19.7183 7.18403L19.5423 7.07734C19.5379 7.0821 19.5317 7.08686 19.5255 7.08877V7.30407H19.4961V7.08782C19.4899 7.08591 19.4837 7.0821 19.4784 7.07829L19.3042 7.18594L19.2891 7.15831L19.4641 7.04971C19.4633 7.04304 19.4624 7.03542 19.4633 7.02875L19.2891 6.9211L19.3042 6.89347L19.4792 7.00112C19.4837 6.99636 19.4899 6.9916 19.4961 6.98969V6.77344Z" fill="#96877D" stroke="black" stroke-width="0.01" stroke-linejoin="round"/>
<path d="M19.7553 7.30425C19.6922 7.37284 19.6042 7.41476 19.5064 7.41476C19.3127 7.41476 19.1562 7.24709 19.1562 7.03941C19.1562 6.83173 19.3127 6.66406 19.5064 6.66406C19.6202 6.66406 19.7206 6.72217 19.7846 6.81173C19.7668 6.85936 19.7455 6.9651 19.7437 7.01274C19.7313 6.88317 19.6299 6.78219 19.5055 6.78219C19.3731 6.78219 19.2665 6.89746 19.2665 7.03846C19.2665 7.1804 19.374 7.29472 19.5055 7.29472C19.6157 7.29472 19.7117 7.21184 19.7393 7.10229C19.7401 7.15183 19.7419 7.26519 19.7553 7.30425Z" fill="#96877D" stroke="black" stroke-width="0.01" stroke-linejoin="round"/>
<path d="M19.3637 7.66269C19.3415 7.63506 19.3006 7.5598 19.305 7.50455C19.3379 7.50073 19.401 7.52455 19.4303 7.55599C19.4268 7.51598 19.4117 7.42928 19.4197 7.38927C19.4605 7.40547 19.545 7.45691 19.5752 7.51598C19.5681 7.47597 19.553 7.37308 19.5681 7.3102C19.6125 7.33783 19.6863 7.41309 19.7014 7.46453C19.7049 7.38546 19.7307 7.25495 19.7529 7.22256C19.7858 7.25781 19.8383 7.2902 19.8711 7.33783C19.8782 7.274 19.9085 7.19874 19.952 7.17969C19.9849 7.2197 20.0373 7.3102 20.048 7.41309C20.0809 7.40166 20.1253 7.34164 20.144 7.3102C20.1626 7.34164 20.1813 7.39689 20.1697 7.46453C20.2106 7.42452 20.2586 7.36927 20.2693 7.32163C20.2986 7.34545 20.3546 7.40452 20.3688 7.46834C20.3617 7.4169 20.3653 7.32544 20.3502 7.274C20.4053 7.30544 20.4497 7.36069 20.4613 7.42071C20.4764 7.36546 20.5092 7.26638 20.5386 7.24256C20.5679 7.30639 20.5981 7.38165 20.5937 7.44453C20.6123 7.40452 20.6417 7.33402 20.671 7.31782C20.6968 7.36165 20.6932 7.45691 20.6861 7.50836C20.7119 7.46834 20.7599 7.42166 20.7892 7.40547C20.7927 7.42928 20.7963 7.47692 20.7892 7.51217C20.8221 7.49216 20.8781 7.38546 20.8967 7.33021C20.9483 7.35784 20.9998 7.4531 21.0043 7.50073C21.0416 7.48454 21.1154 7.41404 21.1376 7.37403C21.1376 7.40166 21.1491 7.47692 21.134 7.53598C21.1562 7.51217 21.1785 7.46453 21.1891 7.44453C21.2042 7.48454 21.1927 7.57885 21.1776 7.6303C21.2104 7.59886 21.2593 7.57885 21.2887 7.57885C21.2922 7.64649 21.2478 7.76462 21.2069 7.85227C20.8532 7.74652 20.1102 7.70651 19.3637 7.66269Z" fill="#337321" stroke="black" stroke-width="0.01" stroke-linejoin="round"/>
<path d="M20.6016 5.56698C20.5998 5.53745 20.6603 5.47171 20.7696 5.47267C20.9002 5.47362 21.0211 5.57651 21.1251 5.56889C21.2299 5.56126 21.1784 5.59842 21.1562 5.60794C21.1339 5.61747 21.1215 5.63271 21.1286 5.64986C21.1366 5.66796 21.1233 5.67939 21.0806 5.6632C20.9873 5.627 20.894 5.67749 20.7713 5.64986C20.6656 5.62414 20.6043 5.6108 20.6016 5.56698Z" fill="#F7E017"/>
<path d="M19.474 7.8987C19.3629 8.0416 19.2527 8.01778 19.2304 7.92633C19.2082 7.83487 19.29 7.792 19.2598 7.71198C19.2304 7.63291 19.3078 7.59671 19.3451 7.63291C19.3824 7.66816 19.5006 7.55384 19.5522 7.67292C19.6037 7.792 19.6446 7.87489 19.6153 7.92252C19.585 7.97015 19.4962 7.94634 19.474 7.8987Z" fill="#F7E017" stroke="black" stroke-width="0.01" stroke-linejoin="round"/>
<path d="M19.9477 7.68787C19.9273 7.63547 20.0419 7.53544 20.1015 7.60689C20.161 7.67834 20.2534 7.52973 20.305 7.64214C20.3565 7.75551 20.3734 7.81457 20.3992 7.87745C20.425 7.94128 20.2588 7.97462 20.2072 7.91937C20.2143 7.95652 20.0633 7.98605 20.0224 7.87935C20.0002 7.82315 19.9762 7.75741 19.9477 7.68787Z" fill="#F7E017" stroke="black" stroke-width="0.01" stroke-linejoin="round"/>
<path d="M20.7146 7.75382C20.687 7.69857 20.8221 7.6195 20.8923 7.72048C20.911 7.67856 21.0443 7.67094 21.0532 7.79193C21.0621 7.91292 21.0665 7.98437 21.0701 8.032C21.0736 8.07963 20.9892 8.12345 20.9279 8.00247C20.8186 8.02628 20.7688 7.96055 20.7564 7.89196C20.743 7.82146 20.7297 7.78716 20.7146 7.75382Z" fill="#F7E017" stroke="black" stroke-width="0.01" stroke-linejoin="round"/>
<path d="M19.5486 7.67455C19.5317 7.63454 19.6428 7.55547 19.7183 7.61549C19.7939 7.67455 19.8988 7.56404 19.9441 7.67074C20.0347 7.887 20.0401 7.90224 20.0125 7.94416C19.985 7.98607 19.8668 7.96988 19.8365 7.91272C19.8312 7.95273 19.729 7.94606 19.6757 7.91462C19.6153 7.87842 19.5726 7.746 19.5486 7.67455Z" fill="#337321" stroke="black" stroke-width="0.01" stroke-linejoin="round"/>
<path d="M20.3229 7.68235C20.2971 7.62138 20.4704 7.56708 20.5469 7.67473C20.586 7.63662 20.6704 7.63472 20.7184 7.75189C20.7664 7.86907 20.7735 7.93385 20.7388 7.96338C20.7139 7.98434 20.6242 8.00054 20.5949 7.94719C20.554 7.97482 20.4287 7.951 20.4011 7.87574C20.3736 7.80143 20.3496 7.7357 20.3229 7.68235Z" fill="#337321" stroke="black" stroke-width="0.01" stroke-linejoin="round"/>
<path d="M21.0626 7.79763C21.059 7.74237 21.1532 7.71665 21.1879 7.79763C21.2235 7.8786 21.3354 7.80525 21.3452 7.94053C21.347 7.96625 21.3319 8.06533 21.2972 8.11296C21.2626 8.16059 21.0901 8.11296 21.0795 8.01198C21.0679 7.91004 21.0644 7.85288 21.0626 7.79763Z" fill="#337321" stroke="black" stroke-width="0.01" stroke-linejoin="round"/>
<path d="M19.4787 7.90171C19.4378 7.84264 19.3827 7.74738 19.3125 7.85027" stroke="black" stroke-width="0.01" stroke-linejoin="round"/>
<path d="M19.8401 7.90976C19.8161 7.87642 19.785 7.82021 19.7734 7.77734" stroke="black" stroke-width="0.01" stroke-linejoin="round"/>
<path d="M20.2181 7.92129C20.1924 7.90129 20.1533 7.86223 20.1328 7.82031" stroke="black" stroke-width="0.01" stroke-linejoin="round"/>
<path d="M20.1875 7.71094C20.2524 7.71856 20.2968 7.78429 20.3164 7.81382C20.3368 7.84336 20.3795 7.89671 20.4123 7.90337" stroke="black" stroke-width="0.01" stroke-linejoin="round"/>
<path d="M20.5966 7.94673C20.5744 7.90863 20.5522 7.87528 20.5469 7.84766" stroke="black" stroke-width="0.01" stroke-linejoin="round"/>
<path d="M20.5547 7.67578C20.5769 7.70912 20.5938 7.73675 20.6062 7.76914" stroke="black" stroke-width="0.01" stroke-linejoin="round"/>
<path d="M20.9428 7.99951C20.9134 7.94045 20.8672 7.88233 20.8281 7.86328" stroke="black" stroke-width="0.01" stroke-linejoin="round"/>
<path d="M20.9219 7.78125C20.9254 7.89843 21.0712 7.90605 21.0774 7.98893" stroke="black" stroke-width="0.01" stroke-linejoin="round"/>
<path d="M21.1875 7.80078C21.2026 7.83031 21.2079 7.85985 21.2097 7.90938" stroke="black" stroke-width="0.01" stroke-linejoin="round"/>
</g>
<defs>
<clipPath id="clip0_2457_18400">
<rect width="27" height="18" rx="4" fill="white"/>
</clipPath>
</defs>
</svg>
