<svg width="24" height="18" viewBox="0 0 24 18" fill="none" xmlns="http://www.w3.org/2000/svg">
<path d="M0 4C0 1.79086 1.79086 0 4 0H20C22.2091 0 24 1.79086 24 4V13.9945C24 16.2036 22.2091 17.9945 20 17.9945H4C1.79086 17.9945 0 16.2036 0 13.9945V4Z" fill="#3366FF"/>
<path d="M0 8.32031V9.6699L24 8.32031V9.6699L0 8.32031Z" fill="#FFFF00"/>
<path d="M11.9958 8.99684L1.38281 2.32388V1.19922H2.38281L11.9958 8.99684ZM11.9958 8.99684L21.6881 1.19922H22.6881V2.32388L11.9958 8.99684Z" fill="#FFFF00"/>
<path d="M11.9984 8.99725L11.3984 0H12.5984L11.9984 8.99725Z" fill="#FFFF00"/>
<path d="M12 8.39453L20 17.9916H4L12 8.39453Z" fill="#EB0B00"/>
</svg>
