<svg width="26" height="18" viewBox="0 0 26 18" fill="none" xmlns="http://www.w3.org/2000/svg">
<g clip-path="url(#clip0_2457_18559)">
<path d="M0 0H26V18H0V0Z" fill="#012169"/>
<path d="M0 0L13 9L0 0ZM13 0L0 9L13 0Z" fill="black"/>
<path d="M0 0L13 9M13 0L0 9" stroke="white" stroke-width="60"/>
<mask id="mask0_2457_18559" style="mask-type:luminance" maskUnits="userSpaceOnUse" x="0" y="0" width="16" height="11">
<path d="M0 0V4.5H15.1667V9H13L0 0ZM13 0H6.5V10.5H0V9L13 0Z" fill="white"/>
</mask>
<g mask="url(#mask0_2457_18559)">
<path d="M0 0L13 9L0 0ZM13 0L0 9L13 0Z" fill="black"/>
<path d="M0 0L13 9M13 0L0 9" stroke="#C8102E" stroke-width="2"/>
</g>
<path d="M6.5 0V10.5V0ZM0 4.5H15.1667H0Z" fill="black"/>
<path d="M6.5 0V10.5M0 4.5H15.1667" stroke="white" stroke-width="2"/>
<path d="M6.5 0V10.5V0ZM0 4.5H15.1667H0Z" fill="black"/>
<path d="M6.5 0V10.5M0 4.5H15.1667" stroke="#C8102E" stroke-width="2"/>
<path d="M0 9H13V0H26V18H0V9Z" fill="#012169"/>
<path d="M21.9998 9.44144C21.994 11.5872 21.6687 13.8989 19 15C16.3311 13.8989 16.0058 11.5872 16 9.44141L21.9998 9.44144Z" fill="#128BBF"/>
<path d="M21.9998 9.44144C21.994 11.5872 21.6687 13.8989 19 15C16.3311 13.8989 16.0058 11.5872 16 9.44141L21.9998 9.44144Z" stroke="black"/>
<path d="M18.9985 15.0035C20.2083 14.5044 20.9577 13.6899 21.3928 12.8213C21.3242 12.797 21.1876 12.7948 21.1323 12.8156C21.0666 12.8112 18.5522 12.6169 18.257 12.5042C18.0001 12.4062 17.02 12.5875 16.5625 12.7576C16.9893 13.6815 17.7285 14.4796 18.9985 15.0035Z" fill="#E8ECE9"/>
<path d="M17.1387 13.6685C17.1795 13.6547 17.2574 13.658 17.2881 13.6638C17.3242 13.6706 17.3307 13.674 17.3439 13.633C17.357 13.5921 17.3865 13.6023 17.4095 13.6228C17.4325 13.6433 17.4914 13.633 17.5144 13.5989C17.5374 13.5649 17.544 13.5683 17.5669 13.5921C17.5899 13.616 17.5997 13.6091 17.6227 13.6023C17.6457 13.5956 17.6851 13.5683 17.7048 13.5307C17.7244 13.4931 17.7538 13.4795 17.7703 13.4999C17.7867 13.5204 17.8031 13.5307 17.8261 13.5273C17.8491 13.5239 17.8556 13.5478 17.8523 13.5784C17.8491 13.6091 17.8622 13.616 17.918 13.5683C17.9672 13.6194 17.9835 13.5989 17.9835 13.5444C17.9835 13.4897 17.9705 13.2883 17.9508 13.261C17.9311 13.2336 17.9114 13.1551 17.9081 13.0936C17.9019 12.9776 17.9016 12.9707 17.767 12.899C17.767 12.858 17.7571 12.8409 17.6621 12.8477C17.6654 12.8341 17.649 12.7931 17.6293 12.776C17.6096 12.7589 17.6063 12.7521 17.6161 12.7044C17.6555 12.7078 17.6982 12.701 17.7212 12.6668C17.744 12.6327 17.8195 12.6395 17.8655 12.66C17.9114 12.6805 17.9705 12.6839 18.059 12.6703C18.0918 12.6429 18.1476 12.6122 18.2067 12.578C18.2656 12.5439 18.2821 12.5302 18.2853 12.4824C18.2938 12.3598 18.2525 12.2195 18.2197 12.1547C18.187 12.0898 18.1771 12.0078 18.1312 11.9053C18.0812 11.7938 18.0819 11.7654 18.0261 11.6971C18.0109 11.6783 17.9933 11.6629 17.99 11.6255C17.9868 11.5879 17.9736 11.5367 17.9344 11.4991C17.8352 11.4043 17.7965 11.0995 17.7571 10.8742C17.7345 10.7451 17.7506 10.4406 17.6982 10.3928C17.6096 10.3177 17.5669 10.3314 17.5078 10.3074C17.4651 10.2459 17.4456 10.1231 17.4062 10.0138C17.3439 10.024 17.3012 10.0924 17.2585 10.1162C17.2158 10.1402 17.2093 10.1402 17.2093 10.2017C17.2093 10.263 17.1765 10.3484 17.1175 10.4441C17.0584 10.5396 16.96 10.5124 16.878 10.6557C16.6975 10.427 16.6942 10.3621 16.6811 10.2972C16.668 10.2324 16.6384 10.2187 16.5368 10.1265C16.5368 10.0992 16.5237 9.98998 16.5336 9.92853C16.458 9.86361 16.4022 9.87385 16.3663 9.92167C16.3302 9.96949 16.3039 10.0411 16.2481 10.0684C16.2147 10.1127 16.1138 10.2244 16.0312 10.3573C16.1063 11.5456 16.364 12.7252 17.1387 13.6685Z" fill="#69522B"/>
<path d="M21.9999 9.44225C22.0009 9.09424 21.9934 8.7506 21.9862 8.41718C21.9767 7.9762 21.9675 7.55312 21.9787 7.16153C20.9814 6.69707 19.6693 6.60156 19.0001 6.60156C18.3307 6.60156 17.0185 6.69707 16.0213 7.16153C16.0325 7.55355 16.0233 7.97712 16.0138 8.41861C16.0066 8.75157 15.9991 9.09472 16.0001 9.44221L21.9999 9.44225Z" fill="#BCA76B"/>
<path d="M21.9999 9.44225C22.0009 9.09424 21.9934 8.7506 21.9862 8.41718C21.9767 7.9762 21.9675 7.55312 21.9787 7.16153C20.9814 6.69707 19.6693 6.60156 19.0001 6.60156C18.3307 6.60156 17.0185 6.69707 16.0213 7.16153C16.0325 7.55355 16.0233 7.97712 16.0138 8.41861C16.0066 8.75157 15.9991 9.09472 16.0001 9.44221L21.9999 9.44225Z" stroke="black"/>
<path d="M16.1562 10.3791C16.1891 10.4337 16.2482 10.5277 16.2547 10.5788C16.2777 10.5292 16.2957 10.5072 16.3007 10.4764C16.3056 10.4457 16.3401 10.3859 16.3269 10.3535C16.3138 10.321 16.304 10.2954 16.3401 10.3193C16.376 10.3432 16.3691 10.3846 16.3613 10.4457C16.3401 10.613 16.2728 10.6471 16.2629 10.7598C16.3598 10.9971 16.2876 11.0825 16.3924 11.3147C16.4088 11.3249 16.4527 11.3067 16.4658 11.3101C16.5215 11.2691 16.5631 11.2839 16.6418 11.301C16.7205 11.3181 16.7632 11.376 16.7632 11.4273C16.7632 11.4785 16.7632 11.4922 16.7796 11.5229C16.796 11.5537 16.8289 11.6015 16.8223 11.6356C16.8157 11.6697 16.8289 11.6902 16.8387 11.7072C16.8485 11.7243 16.8354 11.7619 16.8256 11.7858C16.8157 11.8097 16.819 11.8405 16.8584 11.8917C16.8978 11.9428 16.9896 12.158 16.9896 12.2843C16.9896 12.4107 16.9961 12.4688 17.0454 12.4925C17.0946 12.5164 17.111 12.5369 17.1044 12.5916C17.0979 12.6463 17.1274 12.9297 17.134 12.9741C17.1405 13.0185 17.1569 13.0082 17.1766 13.0321C17.1962 13.0559 17.2093 13.0832 17.2749 13.0832C17.3406 13.0832 17.404 13.0742 17.4466 13.081C17.5057 13.1664 17.5418 13.2824 17.555 13.3541C17.5681 13.4259 17.567 13.5238 17.5899 13.5238C17.6129 13.5238 17.6359 13.5272 17.6293 13.4384C17.6227 13.3495 17.6162 13.3359 17.5866 13.2916C17.5571 13.2472 17.5407 13.2267 17.5571 13.1994C17.5735 13.172 17.5768 13.1276 17.5702 13.0935C17.5637 13.0593 17.5538 13.0082 17.6096 13.0764C17.6654 13.1447 17.6818 13.1618 17.6982 13.1857C17.7146 13.2096 17.7211 13.254 17.7179 13.295C17.7146 13.3359 17.7211 13.353 17.744 13.3325C17.767 13.3121 17.7966 13.3461 17.7834 13.3905C17.7703 13.4349 17.7867 13.4623 17.8261 13.4759C17.8655 13.4896 17.8819 13.4998 17.8918 13.5306C17.9016 13.5614 17.9344 13.5749 17.9344 13.5135C17.9344 13.452 17.9114 13.3222 17.895 13.2814C17.8786 13.2404 17.8655 13.1516 17.8622 13.1003C17.8589 13.0491 17.8491 13.0355 17.8261 13.0253C17.8031 13.0151 17.7834 12.998 17.7802 12.9741C17.7769 12.9502 17.7572 12.9416 17.7424 12.9416C17.7276 12.9416 17.7147 12.9297 17.7064 12.9126C17.6982 12.8955 17.69 12.8938 17.6736 12.8921C17.6572 12.8904 17.631 12.9006 17.6227 12.8733C17.6145 12.846 17.6031 12.8067 17.5866 12.7845C17.5702 12.7623 17.5555 12.7554 17.5538 12.6787C17.5522 12.6019 17.5505 12.5916 17.5276 12.5643C17.5046 12.5369 17.4652 12.4653 17.4488 12.4346C17.4325 12.4039 17.4161 12.3731 17.4161 12.438C17.4161 12.5028 17.4161 12.5369 17.4553 12.5608C17.4947 12.5848 17.5046 12.5848 17.4882 12.6189C17.4717 12.6531 17.4882 12.677 17.4947 12.7009C17.5013 12.7248 17.5144 12.7487 17.4947 12.7725C17.475 12.7964 17.4553 12.7896 17.4586 12.7521C17.4619 12.7146 17.4488 12.6702 17.4325 12.6394C17.4161 12.6087 17.403 12.5882 17.3833 12.6053C17.3636 12.6224 17.3472 12.6018 17.3603 12.5882C17.3734 12.5745 17.3701 12.5643 17.3603 12.554C17.3505 12.5438 17.3472 12.5335 17.3636 12.513C17.38 12.4925 17.38 12.4823 17.3701 12.4346C17.3603 12.3868 17.2881 12.1477 17.2552 12.0931C17.2224 12.0385 17.2257 11.9975 17.2684 12.0521C17.3111 12.1068 17.3472 12.1546 17.3504 12.1989C17.3537 12.2433 17.3636 12.2706 17.3767 12.2877C17.3898 12.3048 17.3997 12.2979 17.4062 12.2604C17.4128 12.2228 17.4391 12.2365 17.3931 12.1649C17.3472 12.0931 17.2618 11.9736 17.229 11.7585C17.1962 11.5434 17.1831 11.3999 17.1502 11.342C17.1175 11.2839 17.1077 11.2703 17.1044 11.2156C17.1011 11.1609 17.1044 11.1063 17.0815 11.0654C17.0585 11.0244 17.0421 11.0176 17.0388 11.0791C17.0355 11.1404 17.0421 11.2771 17.0585 11.301C17.0749 11.3249 17.065 11.3863 17.0618 11.4204C17.0584 11.4546 17.0068 11.4884 17.1143 11.557C17.1569 11.5844 17.1502 11.622 17.1438 11.6459C17.1372 11.6697 17.1307 11.6662 17.1077 11.6288C17.0847 11.5912 17.0618 11.5605 17.0388 11.54C17.0158 11.5195 17.0125 11.5058 17.0158 11.458C17.0191 11.4102 17.0289 11.376 17.0158 11.3591C17.0027 11.342 16.9961 11.3557 16.9896 11.3829C16.983 11.4102 16.9764 11.4853 16.9633 11.5058C16.9501 11.5263 16.9436 11.5127 16.9337 11.4682C16.9239 11.4238 16.9371 11.3557 16.96 11.2771C16.983 11.1985 16.9961 11.1165 16.9764 11.0142C16.9567 10.9117 16.9666 10.881 16.8911 10.7957C16.8157 10.7103 16.7304 10.6283 16.6943 10.5225C16.6582 10.4167 16.6516 10.3244 16.6122 10.2766C16.573 10.2289 16.5172 10.1674 16.481 10.1503V9.99334C16.481 9.95574 16.4647 9.93183 16.422 9.93866C16.3793 9.94549 16.3531 9.98307 16.3269 10.0342C16.3007 10.0854 16.281 10.0615 16.2449 10.1503C16.2088 10.2391 16.1562 10.2834 16.1562 10.3791Z" fill="#CFA763"/>
<path d="M16.4014 11.3782C16.4276 11.3953 16.4527 11.4068 16.4921 11.3862C16.5315 11.3657 16.5786 11.3066 16.6311 11.3647C16.6835 11.4226 16.713 11.5183 16.713 11.5934C16.713 11.6685 16.713 11.8085 16.7951 11.8871C16.8771 11.9655 16.9197 12.0475 16.923 12.15C16.9263 12.2523 16.9624 12.4095 16.9722 12.4504C16.982 12.4913 17.005 12.5391 17.0313 12.5665C17.0575 12.5938 17.0772 12.6724 17.0805 12.7542C17.0838 12.8362 17.0707 12.8943 17.0805 12.9353C17.0904 12.9763 17.0805 13.0104 17.051 12.9899C17.0214 12.9694 17.0149 12.9592 16.9985 12.925C16.982 12.8909 16.9624 12.8977 16.9788 12.949C16.9952 13.0002 17.0444 13.0479 17.0871 13.0479C17.1298 13.0479 17.1429 13.0547 17.1691 13.082C17.1953 13.1094 17.1985 13.123 17.2445 13.123C17.2904 13.123 17.297 13.123 17.3397 13.1367C17.3824 13.1503 17.3824 13.1435 17.4053 13.1367C17.4283 13.1299 17.4511 13.1503 17.4675 13.1947C17.484 13.2392 17.5233 13.362 17.5233 13.3962C17.5233 13.4303 17.5233 13.4645 17.5463 13.4986C17.5693 13.5328 17.5627 13.567 17.5365 13.5465C17.5102 13.526 17.5102 13.5328 17.4905 13.5362C17.4708 13.5397 17.4577 13.5294 17.4316 13.5123C17.4053 13.4952 17.4217 13.4986 17.3955 13.4577C17.3692 13.4167 17.3528 13.403 17.3528 13.4337C17.3528 13.4645 17.3495 13.5021 17.3298 13.485C17.3101 13.4679 17.3003 13.4679 17.2839 13.485C17.2675 13.5021 17.2609 13.5157 17.2412 13.4816C17.2215 13.4474 17.1985 13.4474 17.1789 13.4406C17.1592 13.4337 17.1592 13.4337 17.1494 13.403C17.1396 13.3723 17.1101 13.3654 17.0838 13.3654C17.0576 13.3654 17.0444 13.3518 17.0411 13.3313C17.0378 13.3109 17.0214 13.2972 17.0083 13.287C16.9952 13.2768 17.0017 13.2528 16.9984 13.2289C16.9952 13.205 16.9755 13.2152 16.9623 13.2084C16.9492 13.2016 16.9394 13.205 16.9394 13.1708C16.9394 13.1367 16.9263 13.1264 16.9164 13.1025C16.9067 13.0786 16.9164 13.0547 16.923 13.0275C16.9295 13.0002 16.9263 12.9831 16.9067 12.9592C16.887 12.9353 16.9034 12.9114 16.8509 12.8635C16.7984 12.8157 16.7721 12.8567 16.7557 12.7441C16.7393 12.6314 16.7065 12.3992 16.6769 12.3617C16.6474 12.3241 16.6278 12.2967 16.5983 12.2865C16.5687 12.2762 16.5491 12.2831 16.5458 12.2182C16.5425 12.1534 16.5228 12.0714 16.4834 12.0304C16.444 11.9894 16.4276 11.9758 16.4079 11.9587C16.3882 11.9416 16.3817 11.9109 16.4079 11.8529C16.4342 11.7949 16.4243 11.7163 16.4211 11.6787C16.4178 11.6413 16.4079 11.5934 16.4145 11.5525C16.4211 11.5115 16.4178 11.4602 16.4079 11.4329C16.3981 11.4056 16.385 11.3988 16.4014 11.3782Z" fill="#CFA763"/>
<path d="M17.4009 13.2446C17.3812 13.2856 17.3582 13.272 17.3385 13.2515C17.3188 13.2309 17.2958 13.2309 17.3057 13.1934C17.3155 13.1558 17.3123 13.149 17.286 13.1285C17.283 13.1261 17.28 13.124 17.2769 13.1219C17.2687 13.1216 17.2591 13.1216 17.2466 13.1216C17.2007 13.1216 17.1974 13.108 17.1712 13.0807C17.1661 13.0753 17.1607 13.0702 17.1551 13.0654C17.1546 13.072 17.1549 13.0807 17.1549 13.0909C17.1549 13.1285 17.1549 13.1216 17.1188 13.1319C17.0827 13.1422 17.0892 13.0943 17.0827 13.0636C17.0813 13.0573 17.0794 13.0511 17.077 13.0452C17.0375 13.0373 16.9958 12.994 16.9809 12.9476C16.9645 12.8963 16.9842 12.8895 17.0006 12.9237C17.017 12.9578 17.0236 12.9681 17.0531 12.9886C17.0827 13.0091 17.0925 12.9749 17.0827 12.9339C17.0795 12.9208 17.0787 12.9055 17.0791 12.8886C17.0721 12.8753 17.0625 12.8646 17.0499 12.8588C16.9973 12.8348 17.0137 12.828 17.017 12.7836C17.0203 12.7393 17.0104 12.7393 16.9776 12.7631C16.9448 12.787 16.9415 12.7597 16.9415 12.6915C16.9415 12.6232 16.8989 12.6232 16.8891 12.671C16.8793 12.7188 16.8629 12.6881 16.8432 12.6198C16.8235 12.5515 16.7972 12.5344 16.794 12.5993C16.7912 12.6542 16.7765 12.6673 16.7422 12.6369C16.7482 12.6765 16.7536 12.7136 16.7579 12.7427C16.7743 12.8553 16.8005 12.8143 16.853 12.8622C16.9055 12.91 16.8891 12.9339 16.9088 12.9578C16.9284 12.9817 16.9317 12.9988 16.9251 13.0261C16.9185 13.0533 16.9088 13.0772 16.9185 13.1012C16.9284 13.1251 16.9415 13.1353 16.9415 13.1695C16.9415 13.2036 16.9514 13.2002 16.9645 13.2071C16.9727 13.2113 16.9833 13.2089 16.991 13.2123C16.9995 13.2007 17.0072 13.1866 17.017 13.1763C17.0564 13.1353 17.1155 13.1797 17.1352 13.231C17.1549 13.2822 17.1777 13.2959 17.2072 13.2549C17.2368 13.2139 17.2269 13.2207 17.2598 13.2583C17.2926 13.2959 17.3057 13.289 17.3057 13.289C17.3057 13.289 17.3385 13.2754 17.3615 13.2959C17.3845 13.3164 17.3976 13.3129 17.4402 13.2481C17.4828 13.1832 17.4206 13.2036 17.4009 13.2446Z" fill="#D7C99C"/>
<path d="M17.4297 13.7211C17.5083 13.7143 17.7217 13.6494 17.7445 13.6289C17.797 13.6665 17.889 13.7177 17.9283 13.7177C17.8528 13.7348 17.8036 13.7245 17.7839 13.7109C17.7937 13.7348 17.82 13.7724 17.8364 13.7758C17.7642 13.7724 17.6823 13.7553 17.6561 13.728C17.5937 13.7553 17.4887 13.7621 17.4297 13.7211ZM17.5707 13.8236C17.5986 13.8322 17.738 13.8561 17.756 13.8561C17.7101 13.8969 17.7494 13.9362 17.8266 13.9294C17.7888 13.9345 17.7477 13.9493 17.7757 13.955C17.843 13.9687 18.025 13.9174 18.0611 13.8969C17.9988 13.9806 17.6954 14.0575 17.5707 13.8236ZM17.6954 14.0318C17.733 14.0114 17.8266 14.0182 17.8709 14.0404C17.8216 14.0592 17.725 14.0592 17.6954 14.0318Z" fill="#7FB8C1"/>
<path d="M17.8359 14.0342C17.9032 14.0222 18.0935 14.07 18.1607 14.0273C18.1378 14.0905 18.018 14.0991 17.977 14.0854C17.9361 14.0717 17.8967 14.0547 17.8688 14.0564C17.8836 14.0478 17.8589 14.0461 17.8359 14.0342ZM17.9049 14.1315C17.9558 14.14 18.1378 14.1162 18.1936 14.0939C18.2525 14.1145 18.369 14.1468 18.3953 14.1434C18.3395 14.1792 18.2328 14.1587 18.1985 14.1434C18.1 14.1775 18.0196 14.1878 17.9049 14.1315Z" fill="#7FB8C1"/>
<path d="M17.9914 14.1638C18.0643 14.1809 18.1264 14.1687 18.1981 14.1438C18.2204 14.1537 18.2731 14.166 18.3225 14.1635C18.3555 14.183 18.3998 14.2104 18.4425 14.2137C18.3982 14.2326 18.2357 14.2137 18.203 14.195C18.1209 14.1967 17.9798 14.2155 17.9455 14.2445C17.9439 14.2206 17.9588 14.1874 17.9914 14.1639V14.1638ZM17.9045 13.7785C17.9613 13.7982 18.1669 13.7887 18.2718 13.7375C18.3132 13.7173 18.3388 13.7512 18.2915 13.7682C18.1209 13.8297 17.9864 13.8536 17.8881 13.799C17.8492 13.7775 17.8454 13.758 17.9045 13.7785ZM18.9116 13.4883C18.659 13.6111 18.4916 13.6487 18.1406 13.5361C18.1079 13.5256 18.0848 13.5361 18.1209 13.56C18.1571 13.5838 18.3506 13.6384 18.3965 13.6419C18.4425 13.6453 18.4261 13.6675 18.3982 13.676C18.3703 13.6846 18.3621 13.705 18.3998 13.6897C18.4376 13.6743 18.6484 13.6685 18.7345 13.7153C18.7721 13.7358 18.7819 13.7324 18.7786 13.717C18.7754 13.7016 18.7951 13.6914 18.823 13.688C18.8508 13.6846 18.8673 13.6743 18.8459 13.6658C18.8246 13.6572 18.8213 13.6521 18.8377 13.6436C18.8541 13.635 18.8558 13.6265 18.8312 13.6214C18.8065 13.6162 18.7901 13.6094 18.8131 13.5975C18.8361 13.5856 18.8705 13.577 18.8968 13.5737C18.9034 13.5549 18.8919 13.5054 18.9116 13.4883Z" fill="#7FB8C1"/>
<path d="M18.4879 13.5137C18.6324 13.5243 18.8981 13.4556 19.0392 13.3122C19.0883 13.3429 19.1572 13.377 19.1933 13.3839C19.2294 13.3907 19.2622 13.4248 19.2065 13.4248C19.1507 13.4248 19.0719 13.4009 19.0359 13.3839C18.8488 13.5034 18.6299 13.5427 18.4912 13.5308C18.4519 13.5273 18.4421 13.5102 18.4879 13.5137ZM18.2599 13.0868C18.2405 13.0903 18.1567 13.1107 18.1337 13.109C18.1107 13.1073 18.0878 13.1141 18.0894 13.1312C18.0911 13.1483 18.0976 13.1585 18.0632 13.1551C18.0287 13.1517 17.9991 13.1654 17.9909 13.1756C17.9827 13.1858 17.9762 13.1961 18.0106 13.1995C18.0451 13.2029 18.0632 13.2063 18.1025 13.1876C18.1419 13.1688 18.1797 13.1397 18.2223 13.138C18.2649 13.1363 18.3076 13.0783 18.2599 13.0868Z" fill="#7FB8C1"/>
<path d="M18.1443 13.1964C18.1801 13.2206 18.3575 13.2835 18.4215 13.2784C18.4855 13.2733 18.4735 13.305 18.4248 13.3159C18.3247 13.338 18.2025 13.2927 18.1196 13.2237C18.0786 13.1895 18.1164 13.1776 18.1443 13.1964Z" fill="#7FB8C1"/>
<path d="M18.9917 13.2846C18.856 13.3296 18.7177 13.3136 18.6619 13.2982C18.6062 13.2829 18.5553 13.2794 18.593 13.317C18.6308 13.3545 18.7522 13.3801 18.821 13.3613C18.5766 13.4194 18.5126 13.4142 18.452 13.404C18.3913 13.3937 18.2773 13.396 18.2289 13.4006C18.1928 13.404 18.1436 13.3989 18.1223 13.3852C18.101 13.3715 18.0944 13.3459 18.1584 13.3527C18.2222 13.3596 18.2306 13.3459 18.1748 13.3374C18.119 13.3288 18.0419 13.3527 18.1174 13.4023C18.1928 13.4518 18.3585 13.3989 18.4635 13.4296C18.5684 13.4603 18.7915 13.4825 19.0031 13.3049C19.014 13.2959 19.0327 13.2709 18.9917 13.2846ZM18.6751 13.1428C18.6472 13.1445 18.598 13.1257 18.5717 13.1138C18.5454 13.1018 18.5078 13.1001 18.5357 13.1394C18.5635 13.1786 18.6849 13.2008 18.7276 13.1821C18.7702 13.1633 18.7522 13.1428 18.7947 13.1701C18.8374 13.1974 18.8817 13.2162 18.9129 13.2162C18.9441 13.2162 18.9556 13.2162 18.9211 13.1957C18.8867 13.1752 18.8702 13.1701 18.867 13.153C18.8636 13.136 18.8588 13.1257 18.8899 13.136C18.9211 13.1462 18.9572 13.165 18.9818 13.1513C19.0064 13.1377 19.0523 13.1069 19.0933 13.1069L19.1031 13.0813C19.044 13.0762 19.0064 13.095 18.99 13.1018C18.9736 13.1086 18.9441 13.112 18.9129 13.1069C18.8817 13.1018 18.8407 13.0984 18.8309 13.0898C18.821 13.0813 18.821 13.0745 18.8473 13.0693C18.8735 13.0642 18.8817 13.0454 18.8456 13.0523C18.8095 13.0591 18.7128 13.0557 18.6619 13.0386C18.6111 13.0217 18.5897 13.02 18.5684 13.0284C18.5471 13.0369 18.5504 13.0608 18.5815 13.0625C18.6127 13.0642 18.6833 13.0711 18.7079 13.095C18.7325 13.1189 18.7292 13.1206 18.7013 13.1086C18.6734 13.0967 18.6225 13.1035 18.6751 13.1428ZM19.8626 13.0506C19.7642 13.1257 19.646 13.1428 19.5051 13.153C19.464 13.1561 19.4767 13.1681 19.5116 13.1718C19.6592 13.1872 19.8299 13.1308 19.8856 13.0693C19.9017 13.0516 19.8999 13.0222 19.8626 13.0506ZM19.1918 13.2248C19.2344 13.2265 19.382 13.2658 19.4296 13.2829C19.4657 13.2794 19.4755 13.2709 19.469 13.2572C19.4624 13.2436 19.4575 13.2282 19.5231 13.2316C19.5886 13.235 19.7396 13.2333 19.7675 13.2333C19.7905 13.2231 19.8412 13.1821 19.8642 13.1804C19.8052 13.1838 19.5592 13.1974 19.528 13.194C19.4969 13.1906 19.4805 13.194 19.4608 13.206C19.4411 13.2179 19.4296 13.2231 19.405 13.2128C19.3804 13.2026 19.336 13.1889 19.3115 13.2043C19.2869 13.2196 19.2361 13.206 19.1918 13.2248V13.2248Z" fill="#7FB8C1"/>
<path d="M19.7589 13.2355C19.7819 13.2252 19.8326 13.1843 19.8556 13.1825C19.8983 13.1791 19.9475 13.1979 19.9705 13.2013C19.9935 13.2047 20.0181 13.1996 20.0017 13.1808C19.9853 13.162 20 13.1296 20.0673 13.1381C20.1345 13.1467 20.169 13.1586 20.2346 13.1518C20.3002 13.145 20.3298 13.1962 20.4544 13.145C20.4445 13.1962 20.4675 13.1996 20.4905 13.1894C20.5135 13.1791 20.5397 13.1825 20.5791 13.2133C20.6185 13.244 20.8579 13.2474 20.9137 13.2372C20.9694 13.227 20.999 13.2577 20.9563 13.2714C20.9137 13.285 20.9038 13.3055 20.9137 13.3192C20.9234 13.3327 20.9333 13.3498 20.8809 13.343C20.8284 13.3361 20.8186 13.3532 20.7923 13.3737C20.766 13.3942 20.7595 13.401 20.6873 13.3874C20.6152 13.3737 20.6021 13.3839 20.5627 13.3908C20.5233 13.3976 20.5135 13.3976 20.4741 13.3839C20.4347 13.3703 20.3495 13.3566 20.2969 13.3737C20.2444 13.3908 20.2051 13.4079 20.1591 13.3942C20.1131 13.3805 20.1099 13.3874 20.1394 13.3566C20.169 13.3259 20.1755 13.3293 20.2313 13.3225C20.2871 13.3158 20.3298 13.2987 20.2904 13.2748C20.251 13.2509 20.2379 13.2543 20.1854 13.2816C20.1328 13.3089 20.1066 13.3259 20.0476 13.2919C19.9885 13.2577 19.959 13.2645 19.9196 13.2748C19.8802 13.285 19.8147 13.2611 19.7589 13.2355ZM19.9557 13.3378C19.8806 13.349 19.8605 13.2987 19.7819 13.3089C19.7557 13.3123 19.7114 13.3464 19.7721 13.3413C19.8327 13.3361 19.8983 13.3703 19.9574 13.3652C20.0165 13.36 19.9902 13.3327 19.9557 13.3378ZM19.8687 13.3976C19.9082 13.3826 19.9902 13.4113 20.0247 13.4044C20.0591 13.3976 20.0919 13.4198 20.0558 13.4318C20.0197 13.4437 19.9328 13.4096 19.8934 13.4215C19.854 13.4335 19.8147 13.4181 19.8687 13.3976ZM19.0847 13.6178C19.1389 13.6197 19.334 13.611 19.4112 13.4403C19.4171 13.4272 19.4226 13.4215 19.4473 13.4386C19.4719 13.4557 19.5621 13.512 19.731 13.5274C19.7784 13.5318 19.8295 13.5565 19.7343 13.5496C19.6391 13.5428 19.4883 13.5155 19.4374 13.483C19.3521 13.6229 19.1988 13.6395 19.0847 13.6366C19.0159 13.6349 19.0323 13.6161 19.0847 13.6178Z" fill="#7FB8C1"/>
<path d="M19.5148 13.3823C19.4885 13.4199 19.3982 13.4848 19.3572 13.4882C19.3163 13.4916 19.1932 13.4797 19.162 13.4677C19.1309 13.4558 19.0931 13.4592 19.1374 13.4916C19.1818 13.5241 19.2917 13.5463 19.3359 13.5361C19.3802 13.5258 19.4311 13.5104 19.4655 13.5326C19.5 13.5548 19.564 13.5974 19.6016 13.5889C19.6393 13.5805 19.7165 13.5805 19.7411 13.5923C19.7657 13.6042 19.8084 13.6401 19.7444 13.6196C19.6804 13.5991 19.6278 13.6162 19.5983 13.6025C19.6311 13.6503 19.7056 13.7272 19.769 13.7272C19.7838 13.7272 19.7936 13.7545 19.7624 13.7699C19.7936 13.7853 19.8657 13.7972 19.9034 13.7614C19.8936 13.775 19.8985 13.7836 19.9149 13.7921C19.9313 13.8006 19.951 13.8126 19.9215 13.816C19.8919 13.8195 19.8248 13.828 19.8051 13.8195C19.869 13.862 20.0347 13.9303 20.2036 13.8962C20.2358 13.8897 20.2529 13.8758 20.2003 13.8774C20.092 13.8808 20.0856 13.8791 20.0659 13.8673C20.0462 13.8552 20.0495 13.8451 20.0807 13.8348C20.1117 13.8246 20.1905 13.8126 20.2233 13.8126C20.2561 13.8126 20.289 13.7989 20.2217 13.7989C20.1544 13.7989 20.0725 13.7989 20.0396 13.787C20.0068 13.775 19.9822 13.7596 20.0167 13.7357C20.0511 13.7118 20.0872 13.7187 20.1036 13.6965C19.9953 13.6948 19.8624 13.635 19.9363 13.5805C19.9534 13.5677 19.9477 13.5668 19.9198 13.5634C19.8919 13.56 19.81 13.5361 19.7756 13.5156C19.7411 13.495 19.7641 13.478 19.792 13.4729C19.728 13.4848 19.6 13.4489 19.5148 13.3823ZM20.4776 13.3789C20.4185 13.425 20.307 13.4438 20.2594 13.4438C20.2118 13.4438 20.2053 13.4609 20.243 13.466C20.2808 13.4711 20.3218 13.4762 20.3382 13.4711C20.3546 13.466 20.3644 13.4643 20.3889 13.4762C20.4135 13.4882 20.4661 13.495 20.512 13.4797C20.558 13.4643 20.6333 13.4575 20.6645 13.4592C20.6957 13.4609 20.7301 13.4626 20.6678 13.4438C20.6056 13.425 20.5038 13.4387 20.4792 13.4455C20.4546 13.4523 20.3873 13.4472 20.4234 13.4353C20.4595 13.4233 20.4907 13.4045 20.5087 13.3892C20.4956 13.3857 20.4874 13.3823 20.4776 13.3789ZM20.4464 13.5121C20.3955 13.5514 20.3218 13.5889 20.2463 13.5923C20.3152 13.6179 20.3726 13.6913 20.4168 13.6879C20.3955 13.7016 20.3694 13.7221 20.3415 13.7255C20.3841 13.7374 20.4562 13.7238 20.5153 13.6896C20.6138 13.7187 20.7416 13.6999 20.7843 13.6623C20.7203 13.6623 20.6433 13.6384 20.6088 13.6077C20.64 13.6077 20.6694 13.5872 20.6842 13.5685C20.6105 13.582 20.4841 13.5446 20.4464 13.5121Z" fill="#7FB8C1"/>
<path d="M20.3362 13.7244C20.3641 13.721 20.3902 13.7005 20.4116 13.6868C20.3575 13.7056 20.1212 13.6663 20.0508 13.6014C19.9802 13.5366 19.9802 13.586 20.0294 13.6321C20.0787 13.6783 20.1655 13.7483 20.3362 13.7244ZM20.51 13.8814C20.4805 13.8985 20.3395 13.9087 20.2935 13.8985C20.2476 13.8882 20.2279 13.8933 20.2394 13.9121C20.2508 13.9309 20.2558 13.948 20.218 13.9429C20.1803 13.9377 20.113 13.9463 20.0852 13.9565C20.0573 13.9668 20.0229 13.9924 20.0819 13.9821C20.1409 13.9719 20.1951 13.9599 20.2394 13.9719C20.2837 13.9839 20.4411 13.9873 20.4723 13.9736C20.5034 13.9599 20.4821 13.9599 20.4673 13.9599C20.4526 13.9599 20.446 13.9497 20.4673 13.9395C20.4887 13.9292 20.5051 13.9002 20.51 13.8814ZM19.1453 13.6834C19.0862 13.7107 18.8894 13.7654 18.8369 13.7688C18.7713 13.7995 18.7189 13.8166 18.686 13.8166C18.709 13.8371 18.7975 13.8575 18.8336 13.8474C18.8139 13.8677 18.7681 13.8916 18.7517 13.9019C18.8041 13.8951 18.8664 13.9087 18.8927 13.9121C18.8238 13.9531 18.7287 13.9668 18.6795 13.9599C18.6959 13.9839 18.7189 14.0078 18.7484 14.0078C18.686 14.0248 18.6106 14.0248 18.5712 14.0112C18.5876 14.0453 18.604 14.0658 18.627 14.0692C18.5744 14.0761 18.5088 14.0863 18.4531 14.0522C18.4957 14.1103 18.5909 14.1306 18.732 14.1137C18.873 14.0966 18.9912 14.0317 19.024 14.0043C18.9649 14.0112 18.8861 14.0146 18.8467 14.0078C18.9255 13.9873 19.0961 13.9121 19.1256 13.8814C19.0928 13.8814 19.0601 13.8711 19.037 13.8541C19.0829 13.8609 19.2438 13.8405 19.293 13.82C19.2339 13.8064 19.1978 13.7688 19.1814 13.7449C19.388 13.8132 19.618 13.7908 19.7292 13.7619C19.7555 13.7551 19.7587 13.7204 19.7063 13.7244C19.6144 13.7312 19.4373 13.7039 19.3913 13.68C19.434 13.7141 19.4865 13.7346 19.5226 13.7414C19.4373 13.7654 19.3192 13.7824 19.1453 13.6834Z" fill="#7FB8C1"/>
<path d="M18.7579 13.9037C18.7743 13.8934 18.8202 13.8695 18.8399 13.8492C18.8037 13.8593 18.7152 13.8389 18.6923 13.8184C18.7251 13.8184 18.7775 13.8013 18.8431 13.7706C18.7251 13.7672 18.643 13.7672 18.6004 13.7432C18.5577 13.7193 18.4791 13.7262 18.4495 13.733C18.42 13.7398 18.4298 13.7911 18.5544 13.7774C18.5019 13.815 18.3609 13.8286 18.3084 13.815C18.3215 13.8593 18.3314 13.9037 18.3183 13.9276C18.3872 13.9686 18.5676 14.0198 18.6562 14.013C18.5774 13.9822 18.5347 13.9481 18.6004 13.9413C18.666 13.9344 18.7021 13.9208 18.7579 13.9037ZM18.5544 14.1257C18.7115 14.1121 18.9218 14.1092 19.0892 13.9618C19.1318 13.9242 19.1605 13.9368 19.1187 13.9754C19.0302 14.0574 18.8103 14.17 18.6004 14.1734C18.5149 14.1748 18.4758 14.1324 18.5544 14.1257ZM19.7306 13.8559C19.6912 13.8712 19.5812 13.89 19.5485 13.8849C19.5157 13.8798 19.4681 13.8781 19.4419 13.8951C19.4156 13.9122 19.414 13.9225 19.4501 13.9259C19.4862 13.9293 19.5321 13.9327 19.5551 13.931C19.5255 13.9481 19.5059 13.972 19.4993 13.9822C19.5518 13.9686 19.6485 13.9925 19.6764 14.0096C19.6551 14.0164 19.6305 14.0079 19.6124 13.9976C19.701 14.095 19.9635 14.095 20.0061 14.0779C19.9864 14.0933 19.9684 14.1087 19.9487 14.1138C20.0226 14.1274 20.1078 14.1257 20.1915 14.0745C20.1636 14.0796 20.08 14.0711 20.0586 14.0693C20.0767 14.0511 20.0986 14.0377 20.1225 14.0301C20.0898 14.0232 19.9864 14.0266 19.9618 14.0403C19.9717 14.0198 19.9897 13.9942 20.0094 13.9857C19.8797 13.9857 19.7224 13.984 19.6649 13.9515C19.7568 13.9618 19.8585 13.9054 19.9011 13.9054C19.829 13.9037 19.7503 13.8866 19.7306 13.8559ZM19.4008 13.931C19.3368 13.9447 19.2401 13.972 19.2139 13.9874C19.1876 14.0027 19.1597 14.0113 19.2172 14.0113C19.2746 14.0113 19.4304 14.0181 19.4648 14.0232C19.3779 14.0096 19.2598 14.0062 19.2369 14.0062C19.2139 14.0062 19.1876 14.0044 19.2303 13.9908C19.2729 13.9771 19.3288 13.9464 19.4008 13.931ZM19.2713 14.0898C19.2942 14.0898 19.3943 14.0898 19.4337 14.054C19.4747 14.0864 19.5534 14.1324 19.6042 14.1324C19.6551 14.1324 19.6502 14.1461 19.6058 14.1512C19.5616 14.1563 19.4747 14.1291 19.4304 14.095C19.3713 14.1172 19.3222 14.0984 19.2713 14.0898ZM18.5119 14.549C18.6135 14.59 18.7481 14.6208 18.8464 14.5866C18.9022 14.6378 19.0171 14.6413 19.0793 14.6276C19.1417 14.6139 19.1975 14.6071 19.2664 14.631C19.3352 14.6549 19.4763 14.6566 19.5157 14.6907C19.4796 14.6925 19.4025 14.6907 19.3844 14.6959C19.3663 14.7009 19.3762 14.7129 19.4091 14.7317C19.2976 14.7248 19.1056 14.7744 19.0466 14.8273C19.0678 14.7744 19.1335 14.7026 19.2369 14.7026C19.1778 14.6806 18.9892 14.6789 18.9285 14.718C18.9104 14.6975 18.8891 14.6635 18.8874 14.6498C18.7874 14.7094 18.5905 14.6242 18.5119 14.549ZM18.2509 14.3579C18.372 14.3399 18.4544 14.2998 18.4905 14.2622C18.5119 14.2827 18.6004 14.3032 18.6972 14.2725C18.6775 14.2878 18.6759 14.3169 18.6841 14.3322C18.6201 14.334 18.4986 14.3664 18.4577 14.3886C18.4167 14.4107 18.2969 14.4261 18.2576 14.4038C18.2183 14.3818 18.2166 14.363 18.2509 14.3579Z" fill="#7FB8C1"/>
<path d="M18.6795 14.332C18.6155 14.3337 18.494 14.3661 18.4531 14.3884C18.4613 14.4054 18.4662 14.4326 18.4679 14.4514C18.5859 14.407 18.8566 14.3798 18.96 14.3969C18.9107 14.4003 18.8172 14.4531 18.7648 14.46C18.8927 14.4497 19.0174 14.477 19.0501 14.4856C19.0829 14.4941 19.0895 14.5197 19.0649 14.5437C19.0403 14.5676 19.0289 14.571 19.0813 14.5727C19.1338 14.5744 19.2421 14.5676 19.2913 14.518C19.2716 14.4958 19.2208 14.5044 19.206 14.489C19.2404 14.477 19.2799 14.4514 19.2946 14.4326C19.206 14.4309 19.1732 14.4292 19.1436 14.4224C19.1141 14.4157 19.0928 14.407 19.1289 14.3866C19.165 14.3661 19.1814 14.3491 19.1929 14.3354C19.1289 14.3542 19.0289 14.3696 18.9452 14.3012C18.9764 14.3098 19.0501 14.3047 19.0764 14.2927C19.0485 14.2773 19.0256 14.2654 19.0026 14.2654C19.0698 14.2312 19.2027 14.2005 19.3667 14.2688C19.4487 14.262 19.5374 14.2654 19.5996 14.2825C19.6258 14.2551 19.6816 14.1902 19.7112 14.1732C19.5177 14.1902 19.1699 14.1527 19.1765 14.0469C19.1141 14.1321 18.9698 14.18 18.9074 14.1663C18.9009 14.1971 18.9271 14.2346 18.9501 14.2551C18.8845 14.2688 18.7729 14.279 18.7205 14.2688C18.7501 14.2995 18.8057 14.3269 18.8385 14.3234C18.7697 14.3234 18.7336 14.3371 18.6795 14.332Z" fill="#7FB8C1"/>
<path d="M19.0776 14.5732C19.1301 14.5749 19.2384 14.5681 19.2877 14.5185C19.268 14.4964 19.2171 14.5049 19.2023 14.4895C19.2368 14.4776 19.2762 14.452 19.291 14.4332C19.4287 14.4213 19.5518 14.4282 19.6107 14.4094C19.6698 14.3906 19.8208 14.4009 19.8503 14.3923C19.719 14.4144 19.6928 14.4263 19.6862 14.4485C19.6796 14.4707 19.7289 14.4895 19.7601 14.4895C19.7009 14.4861 19.6271 14.551 19.6205 14.5766C19.5419 14.5288 19.5042 14.5852 19.496 14.604C19.4632 14.5903 19.3548 14.5937 19.299 14.6432C19.227 14.621 19.1794 14.6091 19.1071 14.621C19.1515 14.6108 19.1433 14.58 19.0776 14.5732V14.5732ZM19.7075 14.1737C19.7519 14.172 19.8485 14.1771 19.883 14.172C19.86 14.1839 19.8306 14.2061 19.824 14.2164C19.9355 14.2027 20.088 14.1942 20.1323 14.201C20.0783 14.1925 20.0225 14.2283 19.9946 14.2471C19.9667 14.2659 19.9831 14.2779 20.0208 14.283C20.0586 14.2881 20.1095 14.3188 20.0405 14.3086C19.9716 14.2984 19.8355 14.2984 19.8027 14.3035C19.7699 14.3086 19.7519 14.2915 19.7994 14.2847C19.847 14.2779 19.8797 14.2608 19.9027 14.2471C19.8633 14.2574 19.788 14.2574 19.765 14.2505C19.742 14.2437 19.7272 14.23 19.7535 14.2232C19.7797 14.2164 19.7617 14.2061 19.7338 14.2096C19.7059 14.213 19.6353 14.2437 19.596 14.283C19.6386 14.2369 19.6763 14.1959 19.7075 14.1737ZM19.2073 14.2505C19.2614 14.3137 19.3253 14.3496 19.427 14.353C19.4484 14.3537 19.4881 14.3835 19.4369 14.3855C19.299 14.3906 19.2302 14.3564 19.1695 14.2642C19.157 14.2453 19.1801 14.2189 19.2073 14.2505ZM20.9557 13.4738C20.9148 13.5028 20.8607 13.5541 20.8967 13.6257C20.901 13.6233 20.905 13.6206 20.9092 13.6181C21.0661 13.4202 21.2051 13.2075 21.3246 12.9828C21.326 12.9752 21.3272 12.968 21.3282 12.9617C21.2822 13.0027 21.21 13.0435 21.1804 13.0538C21.2001 13.1084 21.1084 13.1801 21.0591 13.2006C21.0788 13.2348 21.0723 13.286 21.0296 13.2963C21.0395 13.3269 21.0066 13.3269 20.9672 13.344C20.9278 13.3611 20.9081 13.3747 20.8952 13.3952C20.9164 13.3833 20.9459 13.373 20.9623 13.3781C20.9787 13.3833 20.982 13.4089 20.9525 13.4157C20.9229 13.4225 20.9034 13.4396 20.8934 13.4533C20.936 13.4362 20.9968 13.4447 20.9557 13.4738ZM18.0639 12.6953C18.1132 12.7312 18.2002 12.7908 18.3132 12.7823C18.369 12.8285 18.456 12.8677 18.4954 12.8762C18.4199 12.9087 18.3379 12.936 18.3166 12.9616C18.2821 12.9275 18.2379 12.9326 18.2264 12.9155C18.1936 12.9429 18.1985 12.96 18.2198 12.9736C18.2412 12.9873 18.4068 13.0163 18.4478 13.0044C18.4889 12.9924 18.4998 13.0278 18.4659 13.0401C18.3773 13.0725 18.2051 13.0418 18.146 12.9429C18.0869 12.8438 18.036 12.8062 17.8754 12.8967C17.8573 12.8489 17.8573 12.837 17.8261 12.837C17.7949 12.837 17.7375 12.7943 17.7818 12.796C17.8261 12.7977 17.9574 12.7772 18.0639 12.6953V12.6953Z" fill="#7FB8C1"/>
<path d="M18.0952 12.9152C18.0678 12.9223 17.9902 12.9664 17.9624 12.9699C17.9345 12.9733 17.8852 13.0143 17.9362 13.016C17.9869 13.0177 18.0525 12.9596 18.0886 12.9545C18.1247 12.9494 18.128 12.9066 18.0952 12.9152ZM18.31 13.0756C18.315 13.0927 18.315 13.1115 18.31 13.1234C18.3051 13.1354 18.3051 13.1508 18.3265 13.1337C18.3478 13.1166 18.3609 13.0961 18.3822 13.1081C18.4036 13.12 18.4577 13.1183 18.4822 13.1149C18.5069 13.1115 18.5151 13.1064 18.4791 13.091C18.4429 13.0756 18.4069 13.0705 18.3872 13.0722C18.3675 13.0739 18.3429 13.0688 18.3265 13.062C18.31 13.0551 18.3051 13.0585 18.31 13.0756ZM19.0875 13.0807L19.0777 13.1064C19.1384 13.1047 19.2861 13.12 19.3336 13.1508C19.3795 13.1132 19.3713 13.1012 19.4041 13.1081C19.4369 13.1149 19.478 13.1269 19.496 13.1166C19.5141 13.1064 19.5272 13.1081 19.5469 13.1115C19.5665 13.1149 19.6091 13.1064 19.6337 13.091C19.6584 13.0756 19.7092 13.0551 19.7388 13.0551C19.7683 13.0551 19.8043 13.0483 19.7502 13.0398C19.6961 13.0312 19.6141 13.0483 19.5862 13.0585C19.5584 13.0688 19.4747 13.0756 19.4255 13.0756C19.3762 13.0756 19.309 13.1012 19.2533 13.0859C19.1975 13.0705 19.1204 13.0807 19.0875 13.0807ZM20.0209 13.0568C20.0934 13.0924 20.239 13.1234 20.3523 13.1183C20.372 13.1174 20.4116 13.1394 20.362 13.1439C20.2341 13.1559 20.1192 13.1372 20.0127 13.0756C19.9832 13.0585 19.993 13.0432 20.0209 13.0568ZM20.0948 13.0551C20.2062 13.0517 20.2899 13.0534 20.3244 13.0876C20.3883 13.0671 20.5031 13.0551 20.5294 13.0603C20.5556 13.0654 20.5852 13.0534 20.5245 13.0381C20.4637 13.0228 20.3227 13.0177 20.2784 13.0262C20.2341 13.0346 20.0963 13.0398 20.0504 13.0346C20.0701 13.0381 20.0831 13.0415 20.0948 13.0551ZM20.5277 13.1012C20.5802 13.0722 20.7311 13.0995 20.777 13.079C20.7442 13.12 20.8821 13.1234 21.0018 13.091C20.9558 13.1217 20.8575 13.1269 20.8148 13.1456C20.7721 13.1644 20.7492 13.1508 20.7163 13.1354C20.6835 13.12 20.5999 13.0893 20.5277 13.1012Z" fill="#7FB8C1"/>
<path d="M21.0131 13.0862C20.8934 13.1187 20.7555 13.1153 20.7884 13.0743C20.7424 13.0948 20.5916 13.0674 20.5391 13.0965C20.5932 13.0623 20.6342 13.0896 20.6735 13.0196C20.6981 13.0249 20.7555 13.0283 20.7753 13.001C20.8097 13.0095 20.8704 13.0249 20.8885 13.0435C20.9065 13.0623 20.9343 13.0384 20.9113 13.0095C20.9655 12.989 20.9311 13.0338 21.0574 13.001C21.0836 12.9941 21.1476 12.9822 21.169 12.9805C21.1263 13.0163 21.0754 13.0555 21.0131 13.0862Z" fill="#7FB8C1"/>
<path d="M17.1916 10.409C17.1472 10.4686 17.0999 10.5183 17.0386 10.5638C16.9774 10.6094 16.8986 10.6458 16.9423 10.7232C16.9861 10.8006 17.0211 10.8098 17.0298 10.8689C17.0386 10.928 17.0518 10.9782 17.0955 10.9918C17.1392 11.0054 17.1567 10.9963 17.1567 11.092C17.1567 11.1876 17.1567 11.224 17.1961 11.2604C17.2354 11.2968 17.231 11.3332 17.2486 11.4198C17.266 11.5062 17.266 11.6929 17.3185 11.8204C17.371 11.9478 17.4892 12.1892 17.476 12.2392C17.4629 12.2893 17.4454 12.3257 17.4979 12.3848C17.5504 12.4441 17.5854 12.5305 17.5898 12.5806C17.5941 12.6307 17.6029 12.6489 17.6553 12.6307C17.7078 12.6125 17.7341 12.5942 17.7516 12.5715C17.7691 12.5488 17.804 12.5534 17.8522 12.5806C17.9003 12.6079 17.9747 12.6352 18.0184 12.6079C18.0622 12.5806 18.084 12.5397 18.1234 12.5397C18.1846 12.4941 18.2065 12.3985 18.2196 12.3713C18.2327 12.3439 18.224 12.3439 18.1977 12.3166C18.1715 12.2893 18.1846 12.2437 18.1802 12.1982C18.1759 12.1526 18.1584 12.0844 18.1059 11.9842C18.0534 11.8841 18.0228 11.7611 17.9878 11.7293C17.9528 11.6974 17.9353 11.62 17.9309 11.5836C17.9266 11.5472 17.8872 11.5153 17.8609 11.488C17.8347 11.4608 17.8084 11.4198 17.7779 11.2604C17.7472 11.101 17.7254 10.9873 17.7254 10.9599C17.7254 10.9326 17.721 10.928 17.6947 10.9189C17.6684 10.9099 17.6553 10.8643 17.6641 10.8416C17.6729 10.8188 17.6553 10.7961 17.6466 10.7688C17.6379 10.7414 17.6466 10.6914 17.6641 10.6641C17.6816 10.6367 17.6773 10.5593 17.6597 10.4956C17.6422 10.4319 17.6247 10.3772 17.5547 10.3681C17.4848 10.359 17.4716 10.3409 17.4454 10.2816C17.4191 10.2224 17.3929 10.1178 17.3842 10.0949C17.3754 10.0721 17.3623 10.0675 17.3098 10.1131C17.2573 10.1586 17.2398 10.1737 17.2398 10.2588C17.2398 10.3135 17.2486 10.3317 17.266 10.3636C17.2835 10.3954 17.288 10.4045 17.3011 10.491C17.3142 10.5775 17.3886 10.7141 17.2923 10.7915C17.1961 10.8689 17.2092 10.8871 17.2136 10.9417C17.2179 10.9963 17.1874 11.0327 17.1698 10.9553C17.1524 10.878 17.1698 10.8325 17.2223 10.7961C17.2748 10.7596 17.3229 10.7141 17.288 10.664C17.2529 10.614 17.2398 10.4956 17.2354 10.4409C17.231 10.3863 17.2223 10.3681 17.1916 10.409V10.409Z" fill="#CFA763"/>
<path d="M16.4127 11.5717C16.4103 11.6088 16.4183 11.6495 16.4211 11.6822C16.4243 11.7198 16.4342 11.7984 16.4079 11.8565C16.3817 11.9144 16.3882 11.9451 16.4079 11.9622C16.4091 11.9632 16.4101 11.9641 16.4111 11.965C16.4646 11.9463 16.4716 11.8842 16.4572 11.8541C16.4419 11.8223 16.4463 11.7836 16.4637 11.7518C16.4813 11.7198 16.4813 11.7017 16.466 11.6788C16.4506 11.6561 16.4506 11.6561 16.4682 11.5924C16.4835 11.5363 16.4447 11.5367 16.4127 11.5717ZM16.9722 12.454C16.9624 12.413 16.9263 12.2559 16.923 12.1535C16.9197 12.0511 16.8771 11.9691 16.7951 11.8906C16.7311 11.8293 16.7171 11.7307 16.7141 11.6547C16.666 11.6241 16.6456 11.638 16.6497 11.6948C16.654 11.7562 16.713 11.7859 16.7043 11.8746C16.6956 11.9634 16.6956 11.9407 16.7372 11.9839C16.7787 12.0271 16.794 12.0681 16.7721 12.0864C16.7503 12.1045 16.748 12.1365 16.7787 12.1477C16.8092 12.1592 16.8115 12.1933 16.8071 12.2251C16.8027 12.2571 16.8312 12.2639 16.8486 12.2866C16.8662 12.3094 16.8683 12.364 16.8509 12.3959C16.8333 12.4277 16.8312 12.4778 16.8617 12.4506C16.8924 12.4233 16.9056 12.4482 16.9295 12.4915C16.9503 12.5288 16.9678 12.5171 16.9904 12.5058C16.9828 12.4892 16.9767 12.4718 16.9722 12.454ZM16.7163 10.5579C16.6839 10.5604 16.6617 10.5899 16.6802 10.6933C16.6918 10.7573 16.6452 10.7434 16.6278 10.7114C16.6103 10.6796 16.5971 10.6113 16.5622 10.5521C16.5271 10.4929 16.5446 10.5931 16.5404 10.6477C16.5359 10.7024 16.5709 10.7024 16.6016 10.7478C16.6321 10.7934 16.6059 10.8117 16.5709 10.8117C16.5359 10.8117 16.5535 10.8845 16.5622 10.9345C16.5709 10.9846 16.5535 10.9938 16.5271 10.9528C16.501 10.9118 16.5184 10.8481 16.5228 10.7707C16.5271 10.6933 16.5315 10.7114 16.4834 10.6933C16.4353 10.6751 16.444 10.666 16.4616 10.6204C16.479 10.5749 16.4966 10.5521 16.4747 10.5293C16.4527 10.5066 16.4572 10.493 16.4921 10.4883C16.5271 10.4839 16.5141 10.4566 16.5446 10.4474C16.5753 10.4383 16.5885 10.452 16.5927 10.3928C16.5964 10.3434 16.6123 10.3131 16.6479 10.3281C16.6693 10.4041 16.6973 10.5225 16.7163 10.5579ZM17.5158 11.3761C17.5288 11.276 17.5201 11.1759 17.5594 11.1394C17.5988 11.103 17.6469 11.0302 17.6425 11.185C17.6382 11.3397 17.6338 11.3307 17.6033 11.3671C17.5726 11.4034 17.5463 11.4125 17.577 11.4717C17.6075 11.5309 17.612 11.5355 17.6075 11.6266C17.6033 11.7176 17.6033 11.754 17.6382 11.7996C17.6732 11.845 17.6819 11.8496 17.6907 11.8997C17.6995 11.9497 17.73 12.0181 17.7694 12.0544C17.8088 12.0908 17.8526 12.1956 17.8569 12.2685C17.8613 12.3413 17.9225 12.3595 17.9793 12.4096C18.0363 12.4597 17.9663 12.496 17.9225 12.4733C17.8788 12.4506 17.8963 12.4733 17.87 12.5051C17.8437 12.5371 17.835 12.5416 17.8132 12.487C17.7914 12.4323 17.7169 12.3959 17.6819 12.3823C17.6469 12.3686 17.6164 12.3094 17.5857 12.2502C17.5595 12.1994 17.5074 12.1622 17.46 12.1584C17.4731 12.1968 17.4802 12.2268 17.4764 12.2412C17.4633 12.2912 17.4457 12.3276 17.4982 12.3867C17.5508 12.446 17.5857 12.5324 17.5901 12.5825C17.5944 12.6327 17.6033 12.6508 17.6556 12.6327C17.7081 12.6144 17.7344 12.5962 17.752 12.5734C17.7694 12.5507 17.8043 12.5553 17.8526 12.5825C17.9007 12.6098 17.975 12.6372 18.0187 12.6098C18.0625 12.5825 18.0843 12.5416 18.1237 12.5416C18.1849 12.496 18.2068 12.4004 18.2199 12.3732C18.233 12.3459 18.2243 12.3459 18.1981 12.3186C18.1718 12.2912 18.1849 12.2456 18.1805 12.2002C18.1763 12.1546 18.1587 12.0864 18.1062 11.9861C18.0538 11.886 18.0231 11.763 17.9882 11.7312C17.9532 11.6993 17.9356 11.6219 17.9312 11.5856C17.9269 11.5492 17.8876 11.5173 17.8613 11.4899C17.835 11.4627 17.8088 11.4217 17.7782 11.2623C17.7542 11.1378 17.7357 11.0412 17.7287 10.9918C17.6973 11.044 17.6758 11.0567 17.6645 11.021C17.6514 10.9801 17.6338 10.9573 17.6164 10.9846C17.5988 11.0119 17.5944 10.9618 17.5944 10.9391C17.5944 10.9163 17.5901 10.9118 17.5682 10.9118C17.5463 10.9118 17.5639 10.8754 17.555 10.8071C17.5463 10.7388 17.5332 10.7297 17.5245 10.8117C17.5158 10.8935 17.472 10.9436 17.4895 10.9619C17.5069 10.9801 17.4982 11.0165 17.4807 11.0712C17.4633 11.1257 17.472 11.1576 17.4851 11.194C17.4982 11.2304 17.4764 11.2988 17.4675 11.358C17.4588 11.4171 17.5027 11.4763 17.5158 11.3761H17.5158ZM17.157 11.0939C17.157 11.1895 17.157 11.2259 17.1964 11.2623C17.2358 11.2987 17.2314 11.3351 17.2489 11.4217C17.2663 11.5082 17.2663 11.6949 17.3189 11.8223C17.3345 11.8603 17.3561 11.9085 17.3782 11.9587C17.4072 11.9349 17.4325 11.894 17.4414 11.8723C17.4544 11.8404 17.4152 11.7767 17.3845 11.7222C17.3539 11.6675 17.3889 11.6493 17.4195 11.5809C17.4501 11.5128 17.4152 11.5082 17.3671 11.4899C17.3188 11.4718 17.3188 11.4262 17.2926 11.3534C17.2663 11.2806 17.2707 11.2487 17.2883 11.2077C17.3057 11.1667 17.2926 11.1349 17.2576 11.1257C17.2226 11.1167 17.2314 11.0893 17.2445 11.0438C17.2576 10.9982 17.2663 10.9892 17.214 11.0029C17.1742 11.0131 17.1646 11.0209 17.1527 11.0358C17.1556 11.049 17.157 11.0673 17.157 11.0939Z" fill="#D7C99C"/>
<path d="M20.5025 12.9269C20.4996 12.9278 20.4967 12.9284 20.4938 12.9289C20.4907 12.9294 20.4874 12.9297 20.4841 12.93L20.4741 12.9307C20.4708 12.9309 20.4675 12.9311 20.4642 12.9315C20.4611 12.9319 20.4579 12.9323 20.455 12.933C20.4523 12.9336 20.4496 12.9346 20.447 12.9358C20.4446 12.9369 20.4425 12.9384 20.4407 12.9403C20.4388 12.9423 20.4374 12.9446 20.4365 12.9472C20.434 12.9509 20.4312 12.9545 20.4282 12.9579L20.4236 12.9631C20.4204 12.9666 20.4172 12.9702 20.4141 12.9738L20.4095 12.9794C20.4081 12.9814 20.4067 12.9834 20.4053 12.9855C20.404 12.9875 20.4028 12.9897 20.4016 12.9919C20.3783 13.0119 20.3501 13.0246 20.3202 13.0285C20.2988 13.0347 20.2484 13.0363 20.2272 13.0285C20.1862 13.0291 20.1432 13.0259 20.1186 13.0081C20.0898 12.9926 20.0522 13.0028 20.0294 13.0163C20.0112 13.027 20.0076 13.0467 19.9867 13.0529C19.9742 13.0702 19.9188 13.0682 19.8976 13.061C19.8493 13.0642 19.8197 13.0478 19.7851 13.0366C19.7623 13.0197 19.7258 13.0073 19.6998 13.0326C19.6836 13.0507 19.6614 13.0628 19.6339 13.0691C19.5866 13.0671 19.5331 13.0756 19.4982 13.0569C19.4594 13.0535 19.4446 13.0313 19.409 13.0204C19.3685 13.0132 19.3496 13.0353 19.3237 13.0448C19.3006 13.065 19.2677 13.0671 19.2268 13.0651C19.1846 13.0633 19.1332 13.071 19.1066 13.0529C19.0724 13.0489 19.0504 13.0282 19.0252 13.0163C19.0003 12.9957 18.9539 13.0172 18.9322 13.0285C18.8949 13.0345 18.881 13.0651 18.8341 13.061C18.7959 13.0561 18.7699 13.0397 18.7344 13.0285C18.7011 13.0129 18.6712 12.9885 18.6182 12.9919C18.6023 13.0138 18.5681 13.023 18.5331 13.0244C18.5016 13.0248 18.4705 13.0249 18.4475 13.0163C18.3842 13.0143 18.3537 12.9444 18.3078 12.907L18.0786 12.6687C18.0918 12.6261 18.0964 12.6187 18.0753 12.5909C18.084 12.5484 18.0563 12.5426 18.0676 12.5C18.0848 12.4673 18.0367 12.473 18.0249 12.4553C17.9974 12.4497 17.9857 12.4285 17.959 12.4187C17.9373 12.4028 17.9163 12.3923 17.8892 12.378C17.8655 12.3678 17.845 12.354 17.8233 12.3415C17.807 12.326 17.7853 12.3162 17.7691 12.3008C17.7479 12.2906 17.7307 12.2771 17.7147 12.2643C17.6925 12.2569 17.6817 12.2395 17.6604 12.2276C17.6451 12.2126 17.6202 12.1997 17.6023 12.187C17.574 12.1772 17.5483 12.1579 17.517 12.1504C17.4957 12.1496 17.4892 12.0999 17.5284 12.1016C17.5564 12.1025 17.5736 12.1211 17.5945 12.1341C17.6275 12.1484 17.6597 12.1633 17.6992 12.1707C17.7221 12.1849 17.7425 12.1924 17.769 12.2033C17.7919 12.2219 17.8221 12.2251 17.8504 12.2439C17.8768 12.2565 17.9083 12.2714 17.9241 12.2846C17.9466 12.2945 17.9581 12.3115 17.9823 12.3211C17.9906 12.3317 18.0077 12.3365 18.0211 12.3496C18.0448 12.3589 18.0662 12.3696 18.0831 12.3821C18.1052 12.3973 18.1174 12.399 18.1335 12.4146C18.1535 12.4211 18.2797 12.4876 18.2733 12.4798C18.3974 12.5048 18.4523 12.5127 18.5772 12.5314L19.4827 12.5463L19.811 12.4025L19.9107 12.2369L20.396 12.1439C20.3868 12.1336 21.2478 12.1121 21.2659 12.1879C21.2736 12.2199 21.2969 12.2841 21.269 12.2993C21.2507 12.3092 20.4559 12.1932 20.4436 12.268C20.4383 12.3005 20.4448 12.5027 20.4493 12.5354L20.4626 12.6332L20.4759 12.7311L20.4892 12.829L20.5025 12.9269Z" fill="#666666"/>
<path d="M20.3182 9.69539L20.3047 12.1593L20.4757 12.1486L20.404 9.6875L20.3182 9.69539Z" fill="#BCA76B"/>
<path d="M20.4334 12.872C20.4742 12.8978 20.4977 12.9208 20.5313 12.955C20.6062 13.0272 20.6563 13.0275 20.7632 12.9544C20.8031 12.9592 20.8434 12.981 20.8867 12.9727C20.9248 12.9739 20.9619 12.9668 20.9992 12.9583C21.0449 12.9468 21.0514 12.8892 21.0676 12.8505C21.0885 12.8057 21.1113 12.7594 21.1414 12.7207C21.1809 12.6928 21.2236 12.664 21.251 12.6225C21.2822 12.584 21.2769 12.5337 21.2704 12.4874C21.2668 12.4434 21.2634 12.4024 21.2637 12.358C21.2533 12.302 21.2996 12.2586 21.2956 12.2036C21.2692 12.1789 21.2255 12.1723 21.1901 12.1616C21.1276 12.1473 21.0643 12.1377 21.0006 12.1329C20.9485 12.1285 20.8966 12.1226 20.8448 12.1186C20.7936 12.1144 20.7425 12.1107 20.6912 12.1106C20.6336 12.1122 20.5742 12.1047 20.5178 12.1145C20.4775 12.1244 20.4266 12.1206 20.3934 12.14C20.3784 12.181 20.3689 12.2235 20.3672 12.2659C20.3618 12.3025 20.3597 12.3406 20.3598 12.3789C20.3618 12.4488 20.3529 12.5199 20.3714 12.5876C20.3837 12.6422 20.388 12.6977 20.3979 12.7516C20.3993 12.7947 20.4043 12.839 20.4335 12.872H20.4334Z" fill="#333333"/>
<path d="M21.2 11.4375L21.2766 11.494L21.282 11.4961C21.2569 11.4715 21.2324 11.4448 21.2006 11.4376C21.2006 11.4376 21.2002 11.4376 21.2 11.4375ZM21.0383 11.4613L21.0296 11.4641L20.9219 11.9059L21.0383 11.4613ZM21.5522 11.4774C21.5256 11.4797 21.5004 11.4914 21.4753 11.5039L21.5205 11.4874L21.5794 11.4782C21.5704 11.4772 21.5613 11.4769 21.5522 11.4774ZM21.0517 11.8793L21.0306 11.8836C21.0395 11.8836 21.0479 11.8841 21.0549 11.886C21.0656 11.8889 21.075 11.8933 21.0841 11.8982L21.0517 11.8793ZM21.0939 11.904C21.1215 11.9214 21.1448 11.9438 21.1775 11.953L21.0939 11.904ZM21.3431 11.9265L21.1993 11.9567C21.2496 11.9614 21.2947 11.9406 21.3431 11.9265Z" fill="#472B1F"/>
<path d="M21.0376 11.433L20.9141 11.9047L21.0439 11.8781L21.1801 11.9578L21.386 11.9146L21.4906 11.9312C21.5228 11.7797 21.5134 11.6008 21.5982 11.4729L21.5127 11.4862L21.3765 11.536L21.2688 11.4928L21.1833 11.4297L21.0376 11.433Z" fill="white"/>
<path d="M21.2396 11.4961C21.218 11.5396 21.1971 11.5834 21.192 11.6356C21.192 11.6356 21.1317 11.6135 21.1002 11.609C21.0667 11.6043 20.9989 11.609 20.9989 11.609L20.998 11.6121L20.9688 11.7236C20.9718 11.7232 21.0517 11.7129 21.0875 11.7187C21.1143 11.7229 21.1636 11.7486 21.1636 11.7486L21.1237 11.9282L21.1491 11.9431L21.2043 11.9605L21.2058 11.9602L21.2291 11.9553C21.2398 11.8938 21.2484 11.8303 21.2744 11.785C21.2744 11.785 21.3579 11.8086 21.4043 11.805C21.4361 11.8025 21.5019 11.7952 21.5181 11.7933C21.5227 11.7553 21.5275 11.7173 21.5339 11.68C21.5176 11.6845 21.4471 11.7027 21.4074 11.6986C21.3715 11.695 21.3061 11.6589 21.3061 11.6589C21.3156 11.6201 21.3325 11.5813 21.3504 11.5426L21.2396 11.4961Z" fill="#C8102E"/>
<path d="M21.0296 11.4648L20.9757 11.4682L20.8047 12.1026L20.8839 12.1059L21.0296 11.4648Z" fill="#BCA76B"/>
<path d="M20.9779 11.4655C20.9542 11.4517 20.9372 11.4111 20.9494 11.3858C20.9632 11.357 21.0086 11.3501 21.038 11.3592C21.0703 11.3692 21.1154 11.4055 21.1046 11.4389C21.0907 11.4817 21.0155 11.4874 20.9779 11.4655Z" fill="#BCA76B"/>
<path d="M21.5991 11.4844C21.5167 11.6097 21.5235 11.7808 21.4922 11.9279C21.5316 11.9346 21.5638 11.9422 21.5638 11.9422V11.8127L21.6037 11.6665L21.6501 11.4938C21.6501 11.4938 21.6259 11.4884 21.5991 11.4844Z" fill="#472B1F"/>
<path d="M20.4245 9.63274C20.394 9.62165 20.3132 9.61949 20.2811 9.64657C20.2639 9.6611 20.2782 9.70968 20.2997 9.7101C20.3432 9.71093 20.3984 9.71305 20.4157 9.69972C20.4336 9.68589 20.4453 9.64026 20.4245 9.63274Z" fill="#BCA76B"/>
<path d="M19.9453 10.0191C20.0014 10.26 20.2451 10.2198 20.2338 10L19.9453 10.0191Z" fill="#BCA76B"/>
<path d="M20.1797 10.0025C20.2527 10.2791 20.5694 10.2329 20.5547 9.98047L20.1797 10.0025Z" fill="#BCA76B"/>
<path d="M20.4453 10.0012C20.5167 10.2038 20.6172 10.1645 20.7371 9.98047L20.4453 10.0012Z" fill="#BCA76B"/>
<path d="M20.8049 9.90625L19.9141 9.95973L19.9162 10.023L20.8143 9.97468L20.8049 9.90625Z" fill="#BCA76B"/>
<path d="M19.9766 10.8437C20.0305 11.1086 20.2845 11.0692 20.2768 10.8281L19.9766 10.8437Z" fill="#BCA76B"/>
<path d="M20.2109 10.8334C20.2817 11.1379 20.6118 11.0934 20.6012 10.8164L20.2109 10.8334Z" fill="#BCA76B"/>
<path d="M20.4844 10.8336C20.5549 11.0569 20.6601 11.0158 20.7881 10.8164L20.4844 10.8336Z" fill="#BCA76B"/>
<path d="M20.8724 10.7305L19.9453 10.7722L19.9465 10.8415L20.881 10.8057L20.8724 10.7305Z" fill="#BCA76B"/>
<path d="M19.9609 11.5918C20.0208 11.8622 20.2807 11.8171 20.2687 11.5703L19.9609 11.5918Z" fill="#BCA76B"/>
<path d="M20.1953 11.5755C20.2593 11.9789 20.611 11.8343 20.5954 11.5508L20.1953 11.5755Z" fill="#BCA76B"/>
<path d="M20.4844 11.5701C20.5605 11.7976 20.6677 11.7535 20.7956 11.5469L20.4844 11.5701Z" fill="#BCA76B"/>
<path d="M20.8644 11.4609L19.9141 11.521L19.9164 11.5921L20.8744 11.5378L20.8644 11.4609Z" fill="#BCA76B"/>
<path d="M20.5479 10.3906L20.1953 10.4015L20.1964 10.4933L20.5517 10.492L20.5479 10.3906ZM20.5503 11.1726L20.1977 11.1835L20.1988 11.2753L20.5541 11.2741L20.5503 11.1726Z" fill="#BCA76B"/>
<path d="M21.2746 12.2026C21.1265 12.1775 20.9778 12.1519 20.828 12.145C20.7099 12.1396 20.5913 12.1468 20.4736 12.1579C20.302 12.1741 20.1266 12.1824 19.962 12.236C19.9398 12.2432 19.9161 12.2513 19.8995 12.2683C19.8531 12.3158 19.8485 12.3949 19.8094 12.449C19.7714 12.5016 19.6266 12.5891 19.5743 12.6257C19.1936 12.6357 18.7705 12.6301 18.2971 12.5559L18.2305 12.4778L18.2031 12.449L18.2776 12.4778L18.446 12.4819L18.8574 12.4655C18.8574 12.4655 19.2049 12.4659 19.3784 12.4573C19.4766 12.4524 19.5748 12.4463 19.6722 12.4326C19.6933 12.4297 19.7171 12.4325 19.7349 12.4203C19.764 12.4004 19.7735 12.3596 19.7937 12.3299C19.8127 12.3021 19.8246 12.2657 19.8525 12.2477C19.9267 12.1894 20.0208 12.1947 20.1016 12.1785C20.1985 12.1591 20.2877 12.1552 20.3853 12.1401C20.4982 12.1227 20.6122 12.1145 20.7261 12.1081C20.7992 12.1039 20.8726 12.0983 20.9455 12.1039C21.0564 12.1125 21.1781 12.1034 21.2746 12.1615C21.2923 12.1721 21.3242 12.1924 21.3138 12.2108C21.3069 12.2228 21.2877 12.2048 21.2746 12.2026Z" fill="black"/>
<path d="M19.4554 9.46484L19.4062 12.493L19.5773 12.4823L19.5451 9.46518L19.4554 9.46484Z" fill="#BCA76B"/>
<path d="M19.1172 9.74596C19.1711 10.0109 19.4252 9.97155 19.4175 9.73047L19.1172 9.74596Z" fill="#BCA76B"/>
<path d="M19.3438 9.74355C19.4145 10.048 19.7447 10.0035 19.7341 9.72656L19.3438 9.74355Z" fill="#BCA76B"/>
<path d="M19.625 9.74375C19.6955 9.96707 19.8242 9.98733 19.9287 9.72656L19.625 9.74375Z" fill="#BCA76B"/>
<path d="M19.9974 9.64062L19.0703 9.68227L19.0714 9.75166L20.006 9.71578L19.9974 9.64062Z" fill="#BCA76B"/>
<path d="M19.1172 10.3593C19.1711 10.6242 19.4252 10.5848 19.4175 10.3438L19.1172 10.3593Z" fill="#BCA76B"/>
<path d="M19.3438 10.3529C19.4145 10.6574 19.7447 10.6129 19.7341 10.3359L19.3438 10.3529Z" fill="#BCA76B"/>
<path d="M19.625 10.3531C19.6955 10.5764 19.9085 10.5389 19.9287 10.3359L19.625 10.3531Z" fill="#BCA76B"/>
<path d="M19.9974 10.25L19.0703 10.2916L19.0714 10.361L20.006 10.3252L19.9974 10.25Z" fill="#BCA76B"/>
<path d="M19.0703 10.9218C19.1243 11.1867 19.3783 11.1473 19.3706 10.9062L19.0703 10.9218Z" fill="#BCA76B"/>
<path d="M19.2969 10.9193C19.3677 11.2238 19.6978 11.1793 19.6872 10.9023L19.2969 10.9193Z" fill="#BCA76B"/>
<path d="M19.5781 10.9195C19.6486 11.1428 19.8369 11.0726 19.8819 10.9023L19.5781 10.9195Z" fill="#BCA76B"/>
<path d="M19.9506 10.8164L19.0234 10.8581L19.0245 10.9274L19.9591 10.8916L19.9506 10.8164Z" fill="#BCA76B"/>
<path d="M19.0938 11.4765C19.1477 11.7414 19.4017 11.702 19.394 11.4609L19.0938 11.4765Z" fill="#BCA76B"/>
<path d="M19.3203 11.474C19.3911 11.7785 19.7213 11.734 19.7106 11.457L19.3203 11.474Z" fill="#BCA76B"/>
<path d="M19.6016 11.4703C19.672 11.6936 19.8575 11.6496 19.9053 11.4531L19.6016 11.4703Z" fill="#BCA76B"/>
<path d="M19.974 11.3711L19.0469 11.4127L19.048 11.4821L19.9826 11.4463L19.974 11.3711Z" fill="#BCA76B"/>
<path d="M19.6765 10.0508L19.3438 10.0617L19.3447 10.1535L19.6801 10.1522L19.6765 10.0508Z" fill="#BCA76B"/>
<path d="M19.6709 10.6406L19.375 10.6508L19.3758 10.7368L19.674 10.7357L19.6709 10.6406Z" fill="#BCA76B"/>
<path d="M19.6888 11.2188L19.3672 11.2297L19.3682 11.3219L19.6924 11.3206L19.6888 11.2188Z" fill="#BCA76B"/>
<path d="M18.5879 13.0062C18.5661 13.0067 18.5452 12.9984 18.5236 12.9955C18.5021 12.9882 18.4803 12.9814 18.4601 12.9706C18.4401 12.9604 18.4213 12.9448 18.4033 12.9313C18.3851 12.9174 18.368 12.9021 18.3522 12.8854C18.3318 12.8658 18.3113 12.8479 18.2929 12.8266C18.2735 12.8058 18.2531 12.7853 18.2366 12.7638C18.2188 12.743 18.197 12.7267 18.1824 12.7033C18.1657 12.6862 18.1657 12.6562 18.1516 12.6376C18.1286 12.6328 18.0947 12.6288 18.0938 12.597C18.0862 12.5778 18.0829 12.5543 18.0599 12.5569C18.0504 12.5574 18.0478 12.5721 18.0537 12.5629C18.0419 12.5562 18.0451 12.5857 18.0435 12.5699C18.0366 12.5816 18.0291 12.6064 18.0293 12.6046C18.0192 12.626 18.0204 12.65 18.0469 12.6529C18.0722 12.6568 18.0751 12.6859 18.0967 12.6976C18.1138 12.7151 18.1349 12.7383 18.154 12.7541C18.1722 12.7775 18.1862 12.7906 18.2004 12.8173C18.2092 12.836 18.2325 12.8492 18.2459 12.8647C18.257 12.8841 18.2697 12.9012 18.2842 12.9183C18.3002 12.9355 18.3207 12.9536 18.3398 12.9647C18.357 12.9757 18.3744 12.9856 18.3923 12.9961C18.4118 13.0063 18.4303 13.0202 18.4518 13.0245C18.4746 13.0379 18.5029 13.0337 18.528 13.0394C18.5531 13.0409 18.5778 13.0394 18.5986 13.0227C18.6193 13.008 18.5982 13.0108 18.5879 13.0062ZM19.9414 12.3182C19.9109 12.3941 19.8623 12.4995 19.8017 12.5649C20.0003 12.6052 20.1603 12.547 20.3393 12.5151C20.3192 12.4348 20.3199 12.3458 20.3274 12.2539C20.1851 12.2691 20.0838 12.303 19.9415 12.3182H19.9414Z" fill="black"/>
<path d="M19.9535 12.3406C19.9284 12.4077 19.9091 12.4771 19.8594 12.5349C20.0224 12.5706 20.1556 12.5191 20.3025 12.4909C20.2743 12.4286 20.2827 12.3609 20.2927 12.293C20.1759 12.3064 20.0703 12.3272 19.9535 12.3406Z" fill="#333333"/>
<path d="M18.2422 12.6403L18.819 12.686C19.2824 12.7009 19.8138 12.6789 20.2733 12.6237C20.2921 12.6214 20.323 12.6158 20.3292 12.6346C20.3368 12.6575 20.3066 12.686 20.2838 12.6896C19.7564 12.7617 19.2233 12.7339 18.6932 12.73L18.3785 12.6953L18.2422 12.6403Z" fill="black"/>
<path d="M18.4335 9.67253L18.4297 12.5023L18.5778 12.4916L18.4919 9.65625L18.4335 9.67253Z" fill="#BCA76B"/>
<path d="M18.524 9.5816C18.4939 9.56544 18.4142 9.56229 18.3825 9.60169C18.3656 9.62287 18.3797 9.69363 18.401 9.69421C18.4438 9.69541 18.4982 9.69857 18.5153 9.67913C18.533 9.659 18.5445 9.59256 18.524 9.5816Z" fill="#BCA76B"/>
<path d="M18.4377 12.8701C18.4419 12.8461 18.4596 12.8391 18.4803 12.835C18.5042 12.836 18.5334 12.8314 18.5488 12.8413C18.5671 12.8462 18.5765 12.856 18.5929 12.8637C18.6029 12.8765 18.6201 12.8852 18.6325 12.8925C18.6809 12.912 18.6547 12.8533 18.6822 12.8509C18.7056 12.8531 18.7302 12.8418 18.7497 12.8509C18.7671 12.8546 18.7752 12.8679 18.7848 12.8797C18.7952 12.8893 18.8065 12.8977 18.8122 12.9084C18.8161 12.9232 18.8682 12.95 18.87 12.9148C18.8807 12.8908 18.876 12.8493 18.9127 12.8542C18.9536 12.8518 18.985 12.8625 19.0223 12.8669C19.0419 12.8753 19.0577 12.878 19.074 12.8957C19.0881 12.9045 19.087 12.9221 19.0999 12.9212C19.137 12.9499 19.1293 12.8967 19.141 12.8797C19.1503 12.8643 19.1771 12.8685 19.1897 12.8573C19.2133 12.8501 19.2359 12.8419 19.2689 12.8446C19.2821 12.8524 19.305 12.8645 19.3207 12.8733C19.3324 12.8846 19.3471 12.8994 19.3542 12.918C19.3556 12.9367 19.3718 12.9516 19.3877 12.9371C19.3959 12.9157 19.4123 12.9163 19.4273 12.9052C19.443 12.9016 19.4533 12.8911 19.4638 12.8797C19.473 12.8772 19.4825 12.8558 19.4913 12.8477C19.5075 12.835 19.5402 12.8381 19.5674 12.835C19.5942 12.8433 19.6191 12.8467 19.6344 12.8605C19.6437 12.871 19.6505 12.8841 19.6648 12.8893C19.6734 12.9078 19.694 12.8923 19.7075 12.8861C19.7185 12.8775 19.7354 12.8681 19.7501 12.8605C19.763 12.8471 19.7813 12.8394 19.8059 12.8382C19.8359 12.8346 19.8515 12.8512 19.8749 12.8541C19.8969 12.8642 19.9218 12.8658 19.9358 12.8797C19.9517 12.8911 19.9732 12.9006 19.9891 12.8861C20.0098 12.8867 19.9938 12.8441 20.0017 12.8341C20.0257 12.8142 20.0825 12.8169 20.1124 12.8286C20.1376 12.8293 20.1671 12.8255 20.1839 12.835C20.2005 12.8393 20.203 12.8559 20.2098 12.8733C20.2174 12.8896 20.2616 12.889 20.2768 12.8765C20.2912 12.8769 20.2735 12.8549 20.2677 12.8478C20.2583 12.8413 20.2482 12.8258 20.2432 12.8158C20.2659 12.8044 20.2764 12.8261 20.295 12.8286C20.3059 12.8384 20.3206 12.8417 20.3315 12.8541C20.3493 12.861 20.3648 12.8702 20.3923 12.8669C20.4178 12.8747 20.4065 12.9138 20.3772 12.9052C20.3558 12.9125 20.3215 12.9064 20.295 12.9084C20.255 12.9034 20.2121 12.9057 20.1702 12.9052C20.1494 12.9134 20.1152 12.9112 20.0911 12.918C20.0651 12.9177 20.045 12.9234 20.0173 12.9212C19.991 12.9254 19.96 12.9244 19.9298 12.9244C19.9031 12.9298 19.8799 12.9307 19.8517 12.9339C19.8273 12.9342 19.8074 12.9393 19.7806 12.9371C19.7455 12.944 19.6989 12.9387 19.6589 12.9403C19.6337 12.9447 19.6123 12.944 19.5889 12.9467C19.5634 12.9475 19.541 12.952 19.5138 12.9531C19.4861 12.9523 19.4651 12.9586 19.4359 12.9563C19.3926 12.9632 19.3449 12.9578 19.2997 12.9595C19.278 12.9543 19.2493 12.9565 19.2257 12.9531C19.2034 12.9524 19.1848 12.9479 19.1598 12.9499C19.141 12.9431 19.1083 12.9506 19.0897 12.9435C19.0527 12.9458 19.0247 12.9387 18.9883 12.9403H18.7914C18.7746 12.9329 18.7445 12.9393 18.7227 12.9371C18.6861 12.9365 18.6424 12.9385 18.6099 12.9362C18.5804 12.9308 18.5482 12.9367 18.5236 12.9244C18.4843 12.9168 18.4343 12.9035 18.4377 12.8701Z" fill="black"/>
<path d="M18.1016 10.0225C18.1488 10.2059 18.371 10.1786 18.3643 10.0117L18.1016 10.0225Z" fill="#BCA76B"/>
<path d="M18.3125 10.0157C18.3744 10.2264 18.6633 10.1956 18.6541 10.0039L18.3125 10.0157Z" fill="#BCA76B"/>
<path d="M18.5469 10.0158C18.6085 10.1704 18.7211 10.1844 18.8126 10.0039L18.5469 10.0158Z" fill="#BCA76B"/>
<path d="M18.8816 9.94922L18.0703 9.97808L18.0713 10.0261L18.8891 10.0012L18.8816 9.94922Z" fill="#BCA76B"/>
<path d="M18.1094 10.5506C18.1579 10.7476 18.3864 10.7184 18.3795 10.5391L18.1094 10.5506Z" fill="#BCA76B"/>
<path d="M18.2969 10.5538C18.3606 10.818 18.6576 10.7794 18.648 10.5391L18.2969 10.5538Z" fill="#BCA76B"/>
<path d="M18.5703 10.5518C18.6406 10.7172 18.769 10.7321 18.8733 10.5391L18.5703 10.5518Z" fill="#BCA76B"/>
<path d="M18.8948 10.4531L18.0625 10.4913L18.0635 10.5549L18.9024 10.5221L18.8948 10.4531Z" fill="#BCA76B"/>
<path d="M18.0547 11.0571C18.1073 11.2983 18.3548 11.2625 18.3474 11.043L18.0547 11.0571Z" fill="#BCA76B"/>
<path d="M18.2734 11.055C18.3472 11.4105 18.691 11.3585 18.68 11.0352L18.2734 11.055Z" fill="#BCA76B"/>
<path d="M18.5469 11.0508C18.6156 11.2542 18.741 11.2726 18.8429 11.0352L18.5469 11.0508Z" fill="#BCA76B"/>
<path d="M18.9242 10.9609L17.9766 10.9989L17.9777 11.0621L18.9329 11.0295L18.9242 10.9609Z" fill="#BCA76B"/>
<path d="M18.0391 11.6442C18.096 11.9055 18.3641 11.8667 18.356 11.6289L18.0391 11.6442Z" fill="#BCA76B"/>
<path d="M18.2969 11.6378C18.3653 11.9844 18.7118 11.955 18.7089 11.6211L18.2969 11.6378Z" fill="#BCA76B"/>
<path d="M18.5938 11.638C18.6682 11.8583 18.804 11.8783 18.9144 11.6211L18.5938 11.638Z" fill="#BCA76B"/>
<path d="M18.9854 11.5273L17.9297 11.5728L17.931 11.6483L18.9951 11.6093L18.9854 11.5273Z" fill="#BCA76B"/>
<path d="M18.6468 10.2812L18.3438 10.2897L18.3447 10.3607L18.6501 10.3597L18.6468 10.2812ZM18.6468 10.7961L18.3438 10.8046L18.3447 10.8756L18.6501 10.8746L18.6468 10.7961Z" fill="#BCA76B"/>
<path d="M18.6661 11.3555L18.3438 11.3639L18.3447 11.4347L18.6696 11.4337L18.6661 11.3555Z" fill="#BCA76B"/>
<path d="M17.4922 12.1328L18.1459 12.5471L18.1599 12.5287L17.9536 12.3784C17.8064 12.2828 17.6584 12.1887 17.4922 12.1328Z" fill="black"/>
<path d="M18.8203 8.125C18.8203 8.125 18.9281 8.29305 18.9571 8.38349C18.9713 8.42775 18.9766 8.47594 18.9737 8.52254C18.9682 8.60774 18.9368 8.68913 18.9115 8.77027C18.8939 8.82651 18.8553 8.86917 18.8766 8.92395C18.8869 8.95036 18.897 8.97456 18.9239 8.97017C18.9404 8.9675 18.9482 8.94629 18.9612 8.93541C18.9705 8.92764 18.9792 8.91845 18.9902 8.91367C19.0058 8.90693 19.0279 8.91724 19.04 8.90499C19.0501 8.8947 19.0572 8.87295 19.0482 8.86152C19.0404 8.85144 19.0234 8.86103 19.0109 8.86152C18.993 8.86225 18.9727 8.87518 18.9571 8.86587C18.941 8.8563 18.9322 8.81372 18.9322 8.81372C18.9322 8.81372 18.9644 8.72064 18.9819 8.67465C18.9964 8.63667 19.0198 8.60175 19.0275 8.56166C19.03 8.54888 19.0267 8.53554 19.0275 8.52254C19.0289 8.5021 19.0226 8.47674 19.0358 8.46169C19.0445 8.45191 19.0685 8.46544 19.0731 8.45301C19.0909 8.40552 19.0082 8.37441 18.9902 8.32699C18.9835 8.30927 18.9879 8.2885 18.9819 8.27049C18.9691 8.23123 18.9239 8.16185 18.9239 8.16185L18.8203 8.125Z" fill="#69737C"/>
<path d="M19.159 8.25867C19.159 8.25867 19.2547 8.3839 19.2646 8.45965C19.2668 8.47645 19.2538 8.49222 19.2535 8.50918C19.2528 8.53582 19.2685 8.56119 19.2674 8.58782C19.2636 8.67348 19.2206 8.75223 19.2007 8.83541C19.1839 8.90578 19.1562 9.04805 19.1562 9.04805L19.2173 9.04221L19.2285 8.93444C19.2285 8.93444 19.2605 8.81226 19.2757 8.75094C19.2862 8.70831 19.292 8.66418 19.3062 8.62278C19.3157 8.59541 19.3358 8.57241 19.3423 8.54412C19.3508 8.50731 19.3611 8.4645 19.3451 8.43053C19.3396 8.4187 19.3233 8.41676 19.3146 8.40724C19.2938 8.38449 19.278 8.35675 19.2646 8.32858C19.2509 8.30003 19.234 8.23828 19.234 8.23828C19.2213 8.24326 19.159 8.25867 19.159 8.25867Z" fill="#66452B"/>
<path d="M18.7031 8.03299L18.7714 8.09L18.8894 8.16475L18.9439 8.16824L19.0054 8.19147L19.0821 8.18895L19.1389 8.24978L19.1549 8.26104L19.218 8.25188L19.2413 8.22481L19.3617 8.03229L19.3328 7.71484L18.759 7.75379L18.7031 8.03299Z" fill="white"/>
<path d="M19.3361 7.49725C19.4136 7.56322 19.4889 7.6323 19.5495 7.71609C19.5962 7.77408 19.6248 7.85295 19.6933 7.88922C19.7899 7.99733 20.2031 8.12269 20.2045 8.15648C20.1093 8.11578 20.0679 8.25208 19.9756 8.23019C19.8896 8.25635 19.8189 8.19743 19.7446 8.16466C19.6329 8.16048 19.5166 8.16655 19.4172 8.22596C19.3629 8.25692 19.2982 8.20915 19.2553 8.22487L19.2503 8.23467L19.2439 8.24071M18.7172 8.03305C18.651 7.99861 18.6026 7.93392 18.541 7.89495C18.4933 7.82464 18.4322 7.75426 18.4351 7.66174C18.4276 7.56613 18.4037 7.4339 18.447 7.34303C18.4159 7.27178 18.3723 7.25257 18.338 7.18235C18.3131 7.08525 18.2192 7.02952 18.2755 6.95569C18.3382 6.89726 18.3821 6.82825 18.4629 6.79794C18.5299 6.78165 18.5979 6.7885 18.6622 6.81259C18.7454 6.82284 18.7911 6.89732 18.835 6.96182C18.8883 7.04899 18.9236 7.14696 18.9386 7.24938C18.9769 7.33353 19.0789 7.35066 19.1537 7.38657C19.2182 7.41856 19.2826 7.44583 19.336 7.49725" fill="white"/>
<path d="M19.7719 8.05866C19.7394 8.0538 19.6616 8.08753 19.6819 8.03699C19.6021 8.03092 19.5182 8.04889 19.4414 8.02081C19.3619 7.97988 19.2754 7.95468 19.1903 7.93036C19.107 7.92561 19.0087 7.94585 18.9447 7.87412C18.8783 7.83342 18.7812 7.86279 18.7203 7.8036C18.6587 7.74867 18.6217 7.67283 18.624 7.58803C18.6118 7.5049 18.5823 7.39301 18.6711 7.34411C18.7291 7.32567 18.7845 7.3415 18.8195 7.28045C18.8934 7.26768 18.9611 7.296 19.0247 7.33378C19.0994 7.37253 19.1817 7.39653 19.2543 7.44006C19.3238 7.48819 19.3829 7.55086 19.4481 7.6055C19.4993 7.6671 19.559 7.72398 19.5921 7.79962C19.6314 7.88075 19.7126 7.92349 19.7822 7.97051C19.8239 7.98179 19.9233 8.03022 19.8289 8.04322C19.8094 8.04652 19.7914 8.05649 19.7719 8.05866Z" fill="black"/>
<path d="M18.9595 7.78292C18.9189 7.77721 18.8777 7.76848 18.8443 7.74211C18.818 7.72563 18.7529 7.6856 18.7951 7.65432C18.8302 7.64995 18.8704 7.6683 18.9017 7.64296C18.9489 7.63261 18.9987 7.63165 19.0422 7.60732C19.0828 7.58421 19.1307 7.59966 19.1729 7.58547C19.2044 7.56795 19.2 7.50177 19.2481 7.51299C19.2922 7.50118 19.2792 7.58997 19.2399 7.56177C19.2155 7.59758 19.2839 7.6097 19.302 7.63184C19.3384 7.6752 19.2582 7.685 19.2511 7.71716C19.2004 7.73265 19.1633 7.66593 19.1127 7.68463C19.1033 7.70246 19.1139 7.7389 19.0772 7.73001C19.0349 7.70292 18.9983 7.73334 18.9566 7.7388C18.9688 7.74848 18.9422 7.78403 18.9595 7.78292ZM19.8392 8.1011C19.8154 8.0879 19.7848 8.09906 19.7584 8.10072C19.7406 8.10095 19.723 8.10192 19.7064 8.09411C19.6802 8.09342 19.6305 8.06369 19.6229 8.10322C19.6246 8.12029 19.6675 8.12755 19.632 8.13292C19.596 8.1383 19.5638 8.12122 19.5309 8.10903C19.5174 8.09582 19.4889 8.07916 19.496 8.11107C19.5074 8.1387 19.4791 8.15147 19.4564 8.15058C19.4243 8.14818 19.3885 8.13905 19.3651 8.11452C19.3483 8.13638 19.3889 8.16716 19.4128 8.16872C19.4368 8.19002 19.3767 8.18163 19.363 8.17867C19.3428 8.17504 19.3199 8.17221 19.3023 8.18538C19.2742 8.19203 19.2735 8.22078 19.3061 8.21765C19.3375 8.22845 19.3727 8.23828 19.4039 8.22127C19.4376 8.20061 19.4741 8.18583 19.5129 8.1789C19.5431 8.17187 19.5737 8.16694 19.6046 8.16415C19.6455 8.15923 19.6867 8.15981 19.7281 8.15984C19.7603 8.17788 19.792 8.16226 19.8205 8.1464C19.838 8.14071 19.8911 8.11969 19.8525 8.10368C19.8476 8.10547 19.8436 8.09723 19.8392 8.1011Z" fill="#69737C"/>
<path d="M19.731 8.16151C19.7469 8.1617 19.7626 8.1613 19.7767 8.15328C19.7922 8.14427 19.8091 8.14136 19.8256 8.13506C19.8468 8.1353 19.8565 8.10536 19.8342 8.09918C19.8226 8.09105 19.8087 8.08526 19.7965 8.07957C19.7839 8.06816 19.7654 8.06461 19.7541 8.05268C19.7636 8.04024 19.7719 8.02679 19.7815 8.01442C19.7963 8.0082 19.8142 8.01061 19.8301 8.00644C19.8418 8.00253 19.8542 8.00444 19.8663 8.00398C19.8827 8.01273 19.9006 8.0185 19.9163 8.02821C19.9325 8.03747 19.9495 8.04595 19.9677 8.05175C19.9827 8.05657 19.9972 8.06223 20.0114 8.06843C20.0279 8.07724 20.0468 8.08011 20.0642 8.08626C20.0817 8.09001 20.0888 8.1105 20.1095 8.10749C20.1297 8.11118 20.1479 8.11556 20.1628 8.13042C20.174 8.13535 20.1941 8.14636 20.1945 8.15627C20.1781 8.15852 20.1641 8.14308 20.147 8.14653C20.1337 8.14956 20.125 8.16322 20.1094 8.16072C20.1026 8.18175 20.0766 8.17854 20.0646 8.1959C20.0477 8.20955 20.0294 8.22176 20.0094 8.23017C19.9938 8.23636 19.9765 8.23583 19.9612 8.22871C19.9431 8.22348 19.924 8.2282 19.9058 8.22505C19.8863 8.23057 19.8683 8.22605 19.8499 8.21933C19.8338 8.21478 19.8215 8.20232 19.8076 8.19352C19.7908 8.18637 19.7605 8.17797 19.7439 8.17067C19.7351 8.16625 19.7361 8.16345 19.7266 8.1615L19.731 8.16151Z" fill="black"/>
<path d="M18.501 6.78523C18.4841 6.78496 18.4671 6.78523 18.4511 6.79236C18.4232 6.79889 18.3984 6.81626 18.3803 6.8393C18.3571 6.86781 18.3301 6.89262 18.3005 6.91373C18.2861 6.92431 18.2742 6.93819 18.2656 6.95433C18.2825 6.96591 18.3091 6.96914 18.3209 6.94812C18.3392 6.92443 18.363 6.90519 18.3902 6.89434C18.4143 6.88935 18.4387 6.89944 18.4627 6.90212C18.4819 6.91303 18.5016 6.9216 18.5236 6.92492C18.535 6.92928 18.5544 6.93113 18.5705 6.93587C18.5927 6.94483 18.6162 6.94886 18.6391 6.95514C18.6651 6.96075 18.6915 6.95877 18.7175 6.95439C18.7233 6.95368 18.7292 6.95347 18.7351 6.95328C18.7314 6.9621 18.7284 6.97024 18.7289 6.97438C18.7294 6.99094 18.7363 7.00585 18.7433 7.02035C18.7517 7.03472 18.7601 7.04901 18.7683 7.06311C18.775 7.07955 18.7828 7.09541 18.7888 7.11219C18.7967 7.12494 18.8011 7.13886 18.8065 7.15267C18.8101 7.1683 18.8161 7.18356 18.8265 7.19494C18.837 7.20936 18.8494 7.22248 18.8589 7.23781C18.8675 7.25106 18.8739 7.26602 18.8805 7.27988C18.8919 7.28996 18.9039 7.3046 18.9196 7.30287C18.9358 7.30505 18.9512 7.29823 18.9671 7.29641L18.9617 7.29497C18.9467 7.28686 18.9393 7.27078 18.9314 7.2563C18.9278 7.24012 18.9263 7.22321 18.9235 7.2074C18.9225 7.19135 18.9171 7.17595 18.9119 7.16077C18.908 7.14737 18.9028 7.13457 18.8994 7.12119C18.8932 7.10752 18.8881 7.09326 18.8833 7.07894C18.8778 7.06397 18.8736 7.04844 18.8652 7.03493C18.8575 7.02047 18.8514 7.00518 18.8429 6.99099C18.8338 6.97816 18.8286 6.9615 18.819 6.94929C18.8142 6.9416 18.8076 6.93756 18.8002 6.93495C18.8032 6.92731 18.8 6.91705 18.7917 6.90889C18.7807 6.89513 18.7656 6.88211 18.7572 6.8643C18.7391 6.84079 18.7099 6.83327 18.6849 6.821C18.6558 6.80711 18.6243 6.80051 18.5931 6.79408C18.5687 6.78711 18.5433 6.78419 18.5179 6.78543C18.5123 6.78545 18.5067 6.78531 18.501 6.78522L18.501 6.78523Z" fill="black"/>
<path d="M18.7867 7.21753C18.7858 7.19421 18.7554 7.20339 18.7461 7.21581C18.7311 7.23128 18.7227 7.25296 18.7048 7.26541C18.6783 7.28567 18.6433 7.28846 18.617 7.30894C18.6018 7.32528 18.5902 7.34615 18.5699 7.35637C18.5491 7.36808 18.5265 7.38126 18.5157 7.40435C18.5109 7.4213 18.5 7.44482 18.5169 7.45833C18.5386 7.46687 18.5178 7.48752 18.519 7.50231C18.5292 7.51793 18.5537 7.52408 18.569 7.51295C18.5895 7.50006 18.6117 7.48809 18.625 7.46643C18.6444 7.4416 18.6663 7.41711 18.6944 7.40316C18.7129 7.39835 18.7273 7.38538 18.7399 7.37124C18.7532 7.35981 18.742 7.33758 18.7622 7.33375C18.7807 7.32641 18.7905 7.30809 18.8022 7.29286C18.8131 7.27516 18.7933 7.25863 18.7959 7.23973C18.7949 7.23156 18.7939 7.22252 18.7867 7.21755L18.7867 7.21753Z" fill="#69737C"/>
<path d="M19.1065 9.06549H18.9946C18.9761 9.05768 18.9632 9.02518 18.9396 9.03809C18.9191 9.04634 18.8986 9.05651 18.8791 9.06758C18.8601 9.07839 18.8441 9.09271 18.8318 9.11075C18.8295 9.12317 18.7949 9.13715 18.824 9.13759C18.8493 9.13975 18.8648 9.11258 18.8891 9.10902C18.9083 9.10095 18.9294 9.10599 18.9495 9.10459C18.9658 9.10869 18.9842 9.10883 19.0019 9.10871C19.0218 9.10709 19.0405 9.11094 19.0598 9.11043C19.0879 9.11307 19.0494 9.13106 19.0404 9.13503C19.0185 9.14548 18.9941 9.14852 18.9706 9.15397C18.9473 9.15416 18.9233 9.15314 18.902 9.16401C18.8804 9.17445 18.8588 9.18552 18.8389 9.19981C18.8281 9.20611 18.8004 9.22133 18.8277 9.22163C18.848 9.22424 18.8677 9.219 18.8869 9.21264C18.9204 9.19944 18.9552 9.19083 18.9905 9.18498C19.0135 9.17951 19.0348 9.16908 19.0581 9.16465C19.0724 9.16465 19.1103 9.15729 19.0984 9.18355C19.0838 9.20187 19.0632 9.21468 19.0426 9.22422C19.0253 9.23476 19.0092 9.25133 18.9873 9.2507C18.9709 9.24464 18.9362 9.25792 18.9613 9.27537C18.9739 9.29914 19.0006 9.28286 19.0171 9.27404C19.0365 9.26388 19.0556 9.25587 19.076 9.24761C19.0988 9.2387 19.1223 9.22942 19.1442 9.21904C19.1625 9.20694 19.1852 9.20268 19.202 9.18939C19.2219 9.17722 19.2454 9.16739 19.2549 9.14333C19.2609 9.12378 19.2751 9.11172 19.293 9.10519C19.3133 9.09981 19.335 9.10316 19.3556 9.09841C19.3789 9.09829 19.3722 9.05432 19.3507 9.05321C19.332 9.04044 19.316 9.0254 19.2968 9.01404C19.2742 9.00544 19.2503 8.99928 19.2258 9.00169C19.2054 9.00323 19.1895 9.01667 19.1795 9.03423C19.1669 9.04975 19.164 9.07701 19.1391 9.07088C19.1279 9.07411 19.1168 9.06982 19.1065 9.0655V9.06549ZM18.561 9.21158C18.561 9.21158 18.5822 9.12962 18.6098 9.10124C18.6658 9.04356 18.8254 9.00166 18.8254 9.00166C18.7573 9.02947 18.6756 9.00877 18.6098 9.02856C18.5549 9.04654 18.4609 9.12008 18.4609 9.12008C18.4609 9.12008 18.4957 9.04178 18.5225 9.00973C18.6015 8.91918 18.7277 8.90859 18.8228 8.92361L18.9306 8.93974C18.9306 8.93974 18.949 8.95142 18.9409 8.96861C18.9239 9.00456 18.8728 9.02517 18.8382 9.04242C18.7413 9.09417 18.6212 9.13457 18.561 9.21159V9.21158Z" fill="#66452B"/>
<path d="M18.8893 8.92362C18.8025 8.98524 18.6021 9.09536 18.6096 9.10124C18.6096 9.10124 18.7804 9.06028 18.8585 9.02051C18.8856 9.00672 18.9236 8.99674 18.9329 8.96669C18.9377 8.95129 18.9305 8.92966 18.9176 8.92093C18.9096 8.91559 18.8971 8.91807 18.8893 8.92362Z" fill="#69737C"/>
<path d="M19.3143 8.44535C19.2932 8.44386 19.2901 8.48435 19.2893 8.50652C19.2886 8.52185 19.2885 8.54913 19.3032 8.55022C19.3217 8.5516 19.3264 8.51723 19.3281 8.49778C19.3298 8.47972 19.3315 8.44657 19.3143 8.44535Z" fill="#69737C"/>
<path d="M19.2227 9.04567C19.2234 9.02787 19.2018 9.03737 19.1926 9.0405C19.1716 9.04556 19.1535 9.05806 19.1351 9.06924C19.1207 9.07907 19.1052 9.0869 19.0905 9.09603C19.0614 9.11064 19.0351 9.13065 19.0059 9.14517C18.9936 9.15147 18.9809 9.15746 18.9675 9.1604C18.9567 9.16261 18.9605 9.16981 18.9698 9.16895C18.9898 9.17346 19.0107 9.17103 19.0299 9.16388C19.0513 9.15688 19.0756 9.1511 19.0962 9.14196C19.1073 9.13136 19.1303 9.12753 19.1431 9.11979C19.1538 9.11256 19.1816 9.10819 19.1931 9.10258C19.2122 9.09208 19.2044 9.07762 19.2262 9.07744C19.2399 9.07741 19.2418 9.05568 19.2283 9.05293C19.2258 9.05124 19.2234 9.04886 19.2227 9.04567Z" fill="#69737C"/>
<path d="M19.0234 9.23707C19.0388 9.23266 19.0552 9.23346 19.0703 9.22764C19.089 9.22257 19.1074 9.21627 19.1256 9.20963C19.1342 9.20513 19.143 9.20067 19.1516 9.19611C19.167 9.18477 19.1774 9.16779 19.1876 9.15158C19.1945 9.1378 19.2011 9.12374 19.2077 9.10982C19.2108 9.09851 19.1977 9.0935 19.1911 9.10174C19.1812 9.10919 19.1721 9.11772 19.1619 9.12468C19.1519 9.13356 19.1399 9.13955 19.1306 9.14921C19.1194 9.16301 19.1139 9.18108 19.1014 9.19373C19.0955 9.20003 19.0887 9.20487 19.0809 9.20838C19.0651 9.21745 19.0476 9.22231 19.0315 9.23082C19.0286 9.2326 19.0255 9.23431 19.0234 9.23707Z" fill="#69737C"/>
<path d="M19.7734 8.17397C19.7852 8.1748 19.7971 8.17371 19.8086 8.17076C19.8207 8.17003 19.8317 8.16498 19.8433 8.16211C19.8553 8.15681 19.865 8.14422 19.8792 8.14545C19.8919 8.14473 19.9062 8.14952 19.9176 8.14127C19.9248 8.13101 19.935 8.12737 19.9467 8.12949C19.9586 8.12767 19.9699 8.13176 19.9814 8.13425C19.9921 8.13826 20.0032 8.14073 20.0139 8.14467C20.0242 8.15032 20.0343 8.15673 20.0451 8.16111C20.0559 8.16688 20.0376 8.17483 20.0341 8.18056C20.0234 8.18525 20.0103 8.18093 20.0007 8.18973C19.9908 8.19526 19.9819 8.2027 19.9773 8.21366C19.9715 8.22619 19.957 8.2226 19.9465 8.22664C19.9361 8.22821 19.9256 8.22672 19.9152 8.2285C19.9063 8.22881 19.8968 8.23216 19.8886 8.22758C19.8775 8.22395 19.8659 8.22123 19.8543 8.22092C19.8452 8.21436 19.8379 8.20375 19.826 8.20279C19.81 8.19898 19.7968 8.18787 19.7813 8.18251C19.7795 8.18176 19.7778 8.18061 19.7765 8.17913C19.7751 8.17766 19.7741 8.1759 19.7734 8.17397Z" fill="#BCA76B"/>
<path d="M18.3342 7.09455C18.3077 7.08867 18.2817 7.10166 18.255 7.10111C18.2306 7.10684 18.2048 7.10265 18.1798 7.10392C18.1536 7.09896 18.1256 7.10146 18.099 7.10589C18.0595 7.11262 18.0219 7.12891 17.9821 7.13521C17.9283 7.13883 17.874 7.13574 17.82 7.13677C17.7822 7.14011 17.8237 7.08868 17.8452 7.09083C17.8944 7.07691 17.9425 7.05818 17.9936 7.05296C18.0315 7.04707 18.0684 7.03496 18.106 7.02797C18.1365 7.01888 18.1674 7.01169 18.1978 7.00247C18.2294 6.99689 18.2613 6.99059 18.2933 6.99632C18.3263 6.98775 18.3593 6.97959 18.3908 6.96553C18.4194 6.95063 18.4536 6.96058 18.4805 6.94204C18.4974 6.91576 18.5292 6.91668 18.5562 6.9191C18.5849 6.92463 18.6163 6.93566 18.6339 6.96235C18.655 6.99443 18.5904 6.99028 18.6097 7.02389C18.5983 7.03626 18.5763 7.03916 18.5588 7.03824C18.5436 7.03732 18.5276 7.04146 18.514 7.03286C18.4894 7.02379 18.4707 7.00391 18.4482 6.99033C18.4251 6.98657 18.4239 7.03131 18.3946 7.02651C18.3577 7.04137 18.3172 7.03758 18.2783 7.03824C18.3028 7.04763 18.3296 7.05678 18.3492 7.07484C18.3568 7.08728 18.3432 7.09198 18.3342 7.09455Z" fill="black"/>
<path d="M18.4922 6.97881L18.5168 6.96708L18.5302 6.94362C18.5302 6.94362 18.5514 6.97692 18.5414 6.98818C18.5301 7.00102 18.4922 6.97881 18.4922 6.97881ZM18.5576 6.91595C18.5626 6.91192 18.5372 6.89539 18.5561 6.89102C18.5762 6.8658 18.6078 6.88657 18.6311 6.8943C18.6761 6.90919 18.7233 6.92753 18.7533 6.9679C18.7964 7.02008 18.8061 7.09143 18.8402 7.14908C18.8549 7.17666 18.8642 7.20679 18.8739 7.23646C18.881 7.26011 18.9154 7.28466 18.8975 7.31009C18.8763 7.32358 18.8548 7.30551 18.8349 7.30006C18.8078 7.29709 18.8209 7.32881 18.8387 7.33251C18.8579 7.34053 18.8639 7.37264 18.8364 7.3708C18.8101 7.36752 18.784 7.36542 18.7582 7.36118C18.7377 7.34952 18.7637 7.32799 18.7752 7.32017C18.7906 7.31049 18.8109 7.29758 18.8079 7.27561C18.8082 7.23589 18.782 7.20332 18.7763 7.16483C18.7695 7.13599 18.7629 7.1066 18.7492 7.08032C18.7374 7.01839 18.6843 6.9757 18.6298 6.95674C18.6064 6.94416 18.5815 6.93329 18.5592 6.91953L18.5576 6.91596V6.91595Z" fill="white"/>
<path d="M18.7579 6.9521C18.7657 6.95666 18.7733 6.96165 18.7813 6.96589C18.7876 6.97272 18.8021 6.99576 18.8067 7.00398C18.8098 7.01076 18.8112 7.01797 18.8128 7.02525C18.8142 7.03456 18.8211 7.04098 18.8258 7.04845C18.8301 7.05904 18.8334 7.07011 18.8373 7.08085C18.8426 7.08921 18.8478 7.09779 18.8498 7.10777C18.8516 7.11621 18.854 7.12437 18.8572 7.13231C18.8617 7.13901 18.8641 7.15224 18.853 7.15285C18.8457 7.15089 18.838 7.14695 18.8336 7.14004C18.8251 7.13196 18.8206 7.1206 18.814 7.11097C18.81 7.10421 18.8075 7.096 18.806 7.08889C18.8014 7.08059 18.8003 7.07073 18.7971 7.06185C18.7931 7.05344 18.7917 7.04409 18.787 7.03603C18.7818 7.02691 18.7799 7.01629 18.7744 7.00735C18.7698 6.99655 18.7529 6.9698 18.7569 6.95735C18.7573 6.95561 18.7576 6.95388 18.7579 6.9521ZM18.581 6.88301C18.5748 6.88089 18.5704 6.87595 18.5663 6.87103C18.5616 6.86813 18.553 6.86502 18.5496 6.86152C18.5382 6.8663 18.5476 6.85362 18.542 6.85553C18.5393 6.85092 18.5397 6.84757 18.5369 6.84265C18.5333 6.83827 18.5288 6.83488 18.5255 6.83025C18.5257 6.82772 18.5206 6.8244 18.5257 6.82441C18.5318 6.82421 18.5382 6.82358 18.5437 6.82659C18.5497 6.82549 18.5543 6.83022 18.5602 6.82924C18.5686 6.82859 18.5771 6.82939 18.5855 6.82901C18.5895 6.82747 18.5902 6.833 18.5945 6.83145C18.5974 6.83202 18.5983 6.83463 18.6016 6.83348C18.6085 6.83383 18.6094 6.84139 18.6131 6.84554C18.6182 6.84883 18.6204 6.85468 18.6217 6.86012C18.6228 6.86153 18.6239 6.868 18.6235 6.86657C18.6242 6.86514 18.6243 6.87287 18.6211 6.87257C18.6169 6.87711 18.6109 6.87768 18.6063 6.88056C18.6003 6.88106 18.5959 6.88661 18.5898 6.88532C18.5868 6.8848 18.5839 6.88363 18.581 6.88301Z" fill="#BCA76B"/>
<path d="M18.5643 6.86859C18.5558 6.87253 18.5464 6.87612 18.5369 6.87468C18.5307 6.87615 18.526 6.88108 18.5213 6.88539C18.5159 6.88906 18.5093 6.8902 18.5031 6.89146C18.4979 6.89035 18.4941 6.88603 18.489 6.8846C18.4846 6.88281 18.4847 6.87654 18.48 6.87503C18.4752 6.87157 18.4699 6.86944 18.4645 6.86712C18.46 6.86506 18.4615 6.85921 18.461 6.85504C18.4608 6.85029 18.4615 6.84551 18.4632 6.84115C18.463 6.83447 18.4687 6.83193 18.4742 6.83324C18.4846 6.83333 18.4951 6.83325 18.5055 6.83328C18.5107 6.83041 18.5165 6.82731 18.5226 6.82832C18.5283 6.83033 18.5312 6.8366 18.5358 6.84026C18.5455 6.84954 18.5548 6.85919 18.5643 6.86859ZM18.6112 6.84309C18.6181 6.83938 18.6256 6.83579 18.6333 6.83473C18.641 6.83438 18.6481 6.83782 18.6554 6.83946C18.6634 6.84198 18.6715 6.84406 18.6787 6.8486C18.687 6.85148 18.6944 6.85627 18.7024 6.86007C18.7097 6.86421 18.7168 6.8687 18.7242 6.87242C18.7311 6.87594 18.7377 6.87998 18.7439 6.88465C18.7505 6.8901 18.7571 6.89591 18.762 6.90306C18.7667 6.90859 18.7622 6.91891 18.7551 6.91312C18.7482 6.90836 18.7405 6.90545 18.7327 6.90269C18.7255 6.90158 18.7185 6.90034 18.7119 6.89674C18.7043 6.89521 18.6974 6.89003 18.6897 6.88798C18.6799 6.88325 18.6696 6.88018 18.6598 6.87532C18.6557 6.872 18.6501 6.87148 18.6456 6.86861C18.6366 6.8636 18.6273 6.85916 18.6183 6.85421C18.6156 6.85114 18.61 6.84819 18.6112 6.84309Z" fill="white"/>
<path d="M18.7222 7.00458C18.6921 7.00209 18.6619 7.0168 18.6321 7.00678C18.6096 7.00361 18.592 7.02144 18.5726 7.0299C18.5475 7.02731 18.5424 7.06503 18.5201 7.06315C18.501 7.06077 18.4782 7.04528 18.4609 7.05243C18.4998 7.07048 18.5394 7.08858 18.5739 7.11495C18.5927 7.13323 18.6141 7.14921 18.6388 7.15714C18.6556 7.16472 18.6751 7.18232 18.6675 7.20361C18.66 7.22851 18.6245 7.23291 18.6231 7.2611C18.6191 7.28582 18.5932 7.29635 18.5848 7.31869C18.5757 7.33605 18.5544 7.34645 18.5528 7.3677C18.5579 7.39422 18.5873 7.37423 18.5865 7.35475C18.5909 7.33777 18.6053 7.31153 18.6253 7.32235C18.6417 7.34664 18.6618 7.30531 18.6815 7.31522C18.6906 7.32954 18.7117 7.33704 18.7209 7.31807C18.7342 7.31259 18.7551 7.30348 18.7424 7.28357C18.742 7.26316 18.7661 7.26454 18.777 7.25294C18.7922 7.24572 18.8082 7.22506 18.7916 7.21007C18.7766 7.18827 18.7927 7.15713 18.774 7.13691C18.7598 7.1137 18.7744 7.08471 18.7626 7.06066C18.7525 7.04075 18.7447 7.01254 18.7244 7.00391L18.7222 7.00458Z" fill="black"/>
<path d="M19.5261 7.8674C19.4916 7.86674 19.4638 7.89438 19.4297 7.89695C19.3884 7.90302 19.4405 7.92261 19.4532 7.93201C19.486 7.95484 19.5251 7.96271 19.5616 7.97601C19.5957 7.99307 19.6343 8.00367 19.6719 7.99676C19.707 7.98814 19.681 7.95161 19.6712 7.93139C19.6502 7.8999 19.6146 7.88395 19.5882 7.85801C19.5691 7.84023 19.5405 7.84664 19.5261 7.86738V7.8674Z" fill="#69737C"/>
<path d="M19.5122 7.94571C19.4995 7.94733 19.4871 7.95165 19.4743 7.95016C19.4595 7.9515 19.4437 7.95471 19.4301 7.94627C19.4148 7.94219 19.3991 7.93905 19.3854 7.93029C19.3747 7.92292 19.3603 7.91992 19.354 7.90728C19.345 7.89385 19.3633 7.89271 19.3717 7.89122C19.3871 7.88796 19.4034 7.8848 19.419 7.88815C19.4359 7.89732 19.4545 7.90219 19.4714 7.91147C19.4854 7.91789 19.4993 7.92525 19.5096 7.93716C19.5095 7.9367 19.512 7.94263 19.5122 7.94572V7.94571Z" fill="white"/>
<path d="M19.6805 7.93551C19.6828 7.95095 19.6568 7.93628 19.6475 7.94138C19.6298 7.94399 19.6144 7.9382 19.5982 7.93104C19.5726 7.9183 19.5466 7.90578 19.519 7.89928C19.5061 7.89578 19.4799 7.88338 19.4988 7.86798C19.5137 7.85597 19.5329 7.84632 19.5511 7.84381C19.5706 7.84272 19.5873 7.85635 19.6053 7.86306C19.6233 7.87221 19.6423 7.88012 19.658 7.89373C19.6691 7.90349 19.6818 7.9185 19.6805 7.93551Z" fill="white"/>
<path d="M19.2108 7.76142C19.1858 7.7772 19.1571 7.78459 19.1279 7.7838C19.102 7.79381 19.0577 7.76931 19.0485 7.80535C19.036 7.83467 19.0697 7.84708 19.0877 7.85994C19.1404 7.89186 19.2025 7.89021 19.2614 7.8929C19.2775 7.89396 19.3285 7.88656 19.3014 7.86589C19.2719 7.84224 19.25 7.81073 19.2265 7.78111C19.2206 7.77518 19.2142 7.76946 19.2108 7.76142ZM19.5061 7.78155C19.4943 7.77974 19.4832 7.77456 19.4719 7.77104C19.4563 7.76557 19.443 7.75469 19.4282 7.74709C19.4081 7.73513 19.3884 7.72224 19.3676 7.71193C19.3575 7.70818 19.3594 7.69661 19.3706 7.69801C19.3816 7.69838 19.3855 7.67987 19.3962 7.69196C19.4099 7.70058 19.4227 7.71024 19.4332 7.72297C19.4458 7.73389 19.4576 7.74732 19.4742 7.75139C19.486 7.75832 19.5053 7.76513 19.5061 7.78155ZM19.4662 7.83885C19.4662 7.83885 19.4128 7.85341 19.388 7.84269C19.3697 7.83696 19.3508 7.83324 19.3337 7.82379C19.3129 7.8128 19.2903 7.80293 19.2739 7.78492C19.2607 7.76745 19.2771 7.7399 19.2983 7.74709C19.3113 7.74325 19.3059 7.71206 19.3258 7.72592C19.353 7.73882 19.3803 7.75296 19.4038 7.77261C19.4179 7.78675 19.4338 7.79904 19.4473 7.81382C19.454 7.82181 19.4662 7.83885 19.4662 7.83885ZM19.0678 7.44515C19.1035 7.45474 19.1449 7.47222 19.1667 7.50518C19.1981 7.54513 19.1369 7.56692 19.1093 7.54433C19.0639 7.52104 19.0183 7.49707 18.9696 7.48259C18.923 7.48889 18.9902 7.51717 19.0032 7.53004C19.0238 7.54283 19.0414 7.56735 19.0411 7.59187C19.0104 7.61685 18.971 7.59018 18.9372 7.58671C18.9003 7.58221 18.8796 7.54833 18.8563 7.52237C18.8394 7.50394 18.8198 7.4929 18.7972 7.50366C18.7972 7.53613 18.8198 7.54418 18.8341 7.57157C18.8467 7.58806 18.8957 7.62999 18.8484 7.63031C18.8139 7.62039 18.782 7.5966 18.7636 7.56358C18.7425 7.54077 18.726 7.49334 18.7695 7.48736C18.8068 7.46376 18.8507 7.45211 18.8943 7.45217C18.9418 7.44759 18.9899 7.45563 19.0365 7.44265C19.043 7.44474 19.0732 7.42837 19.0678 7.44515Z" fill="#69737C"/>
<path d="M18.7057 7.47266C18.6998 7.48332 18.6956 7.49357 18.6955 7.50485C18.6948 7.51843 18.6961 7.53092 18.6973 7.54347C18.7006 7.55355 18.7031 7.5652 18.707 7.57485C18.7128 7.58636 18.7221 7.59326 18.7309 7.60128C18.7382 7.60962 18.7456 7.61394 18.7548 7.61925C18.7619 7.62371 18.7689 7.62655 18.7768 7.6294C18.7839 7.63268 18.7952 7.63585 18.8048 7.63785C18.8153 7.63975 18.8228 7.63805 18.8271 7.62873C18.8378 7.62167 18.8291 7.61572 18.8218 7.61342C18.8136 7.61179 18.8064 7.60484 18.7991 7.59836C18.7912 7.59091 18.7854 7.58239 18.7803 7.57293C18.7773 7.56445 18.7717 7.5566 18.7663 7.54845C18.7608 7.54172 18.7566 7.5349 18.7493 7.52808C18.7415 7.52067 18.7343 7.51255 18.7279 7.5038C18.7227 7.49633 18.7148 7.48685 18.7084 7.47968C18.7069 7.47763 18.7055 7.4753 18.7057 7.47266ZM19.0191 7.60232C18.9992 7.60037 18.9674 7.59163 18.9437 7.58447C18.917 7.57471 18.8923 7.55804 18.8756 7.53376C18.8557 7.51443 18.8364 7.49383 18.8133 7.47877C18.7891 7.47109 18.7793 7.50667 18.7947 7.5221C18.8078 7.54426 18.8272 7.56154 18.842 7.58245C18.8594 7.60174 18.881 7.61577 18.9032 7.62827C18.9313 7.64636 18.9651 7.65201 18.9975 7.65424C19.0163 7.65175 19.039 7.63963 19.0437 7.6189C19.0452 7.60553 19.0284 7.60268 19.0191 7.60232ZM18.9496 7.76931C18.9323 7.77261 18.9131 7.77272 18.8985 7.76101C18.8838 7.75339 18.8737 7.73815 18.8649 7.72407C18.8529 7.70932 18.8389 7.69364 18.8207 7.68797C18.8045 7.68314 18.785 7.695 18.7901 7.71427C18.7924 7.73031 18.804 7.7429 18.8144 7.75407C18.8316 7.77197 18.8549 7.77991 18.8766 7.78987C18.8875 7.79597 18.9007 7.79727 18.913 7.7975C18.9255 7.7973 18.9453 7.80224 18.9496 7.78563C18.9502 7.78019 18.9492 7.77473 18.9496 7.76931H18.9496ZM19.1241 7.71602C19.1389 7.72281 19.1491 7.74274 19.1394 7.75823C19.1284 7.77464 19.1084 7.78427 19.0893 7.78169C19.0731 7.78111 19.0567 7.7836 19.0409 7.77868C19.0229 7.77298 19.0061 7.76435 18.9897 7.75496C18.9714 7.74861 18.9694 7.72618 18.9574 7.71327C18.9499 7.69868 18.975 7.69161 18.9854 7.69579C19.003 7.70178 19.0137 7.7193 19.0308 7.72593C19.0443 7.73339 19.058 7.7405 19.0734 7.74225C19.0865 7.74551 19.1039 7.74835 19.1124 7.73441C19.1156 7.72787 19.1199 7.72188 19.1241 7.71602Z" fill="white"/>
<path d="M19.2756 7.67345C19.2884 7.68751 19.2805 7.71397 19.2624 7.71838C19.2475 7.72162 19.2316 7.72529 19.2167 7.72007C19.1945 7.71445 19.1748 7.70185 19.1559 7.68917C19.1444 7.67915 19.1265 7.67569 19.118 7.66176C19.1129 7.64278 19.1327 7.62769 19.1495 7.63446C19.1736 7.64275 19.1994 7.64592 19.2219 7.65916C19.2382 7.66643 19.2548 7.6741 19.2726 7.67471L19.2756 7.67345Z" fill="white"/>
</g>
<defs>
<clipPath id="clip0_2457_18559">
<rect width="26" height="18" rx="4" fill="white"/>
</clipPath>
</defs>
</svg>
